<?xml version="1.0" encoding="utf-8"?>
<svg xmlns="http://www.w3.org/2000/svg"
	xmlns:xlink="http://www.w3.org/1999/xlink"
	width="104px" height="116px" viewBox="0 0 104 116">
<path fillRule="evenodd" d="M 56.85 80.87C 56.84 80.87 56.83 80.87 56.82 80.87 56.4 80.87 55.99 80.69 55.71 80.37 55.71 80.37 46.73 70.36 46.73 70.36 46.18 69.74 46.23 68.79 46.84 68.24 47.46 67.68 48.4 67.73 48.96 68.35 48.96 68.35 56.77 77.07 56.77 77.07 56.77 77.07 69.63 61.39 69.63 61.39 70.16 60.75 71.1 60.66 71.74 61.19 72.38 61.71 72.47 62.66 71.94 63.3 71.94 63.3 57.98 80.32 57.98 80.32 57.7 80.66 57.29 80.86 56.85 80.87ZM 99.03 70.19C 95.64 72.82 91.7 73.31 87.64 71.6 85.56 70.72 83.86 69.24 82.6 67.2 82.56 67.13 82.53 67.06 82.5 66.99 82.33 66.59 82.15 66.19 81.96 65.79 79.72 60.59 74.24 53.89 73.38 52.86 73.38 52.86 73.1 52.66 73.1 52.66 72.73 52.38 72.36 52.11 71.98 51.86 64.32 46.87 54.23 47.12 46.87 52.49 46.52 52.79 46.19 53.1 45.87 53.4 45.84 53.44 45.79 53.48 45.75 53.51 40.51 57.64 38 66.51 37.79 67.27 37.79 67.27 37.76 67.46 37.76 67.46 37.69 67.88 37.61 68.3 37.57 68.73 36.57 79.35 42.96 89.04 53.11 92.3 62.8 95.41 73.68 91.33 79 82.6 80.87 79.53 83.68 77.5 86.91 76.89 89.99 76.31 93.13 77.09 95.76 79.1 100.04 82.36 101.34 88.6 98.73 93.3 95.62 98.88 91.23 103.7 85.68 107.6 79.52 111.94 72.51 114.64 64.83 115.65 63.38 115.91 61.75 116 60.19 116 56.75 116 53.64 115.56 53.45 115.53 52.83 115.42 52.25 115.33 51.67 115.23 50.4 115.02 49.09 114.8 47.79 114.52 37.09 112.15 27.65 106.64 19.75 98.13 9.74 87.37 3.43 74.99 0.98 61.34 0.71 59.82 0.56 58.27 0.41 56.78 0.34 56.09 0.27 55.39 0.19 54.69 0.15 54.34 0.11 53.99 0.06 53.63 0.06 53.63 0 53.19 0 53.19-0 53.13-0.01 53.07-0.01 53-0.01 53-0.01 46.81-0.01 46.81-0.01 46.75-0 46.69 0 46.63 0.11 45.72 0.21 44.8 0.3 43.88 0.53 41.82 0.75 39.69 1.07 37.58 1.7 33.45 4.03 30.39 7.81 28.76 11.9 27 15.57 27.63 18.4 30.52 20.47 21.78 24.38 13.45 30.04 5.73 31.6 3.6 33.89 1.04 37.77 0.18 37.85 0.16 37.93 0.15 38.01 0.15 39.54 0.06 41.51 0 42.24 0.19 42.33 0.22 42.41 0.25 42.5 0.29 42.83 0.45 43.18 0.6 43.53 0.75 44.4 1.13 45.3 1.53 46.16 2.09 48.19 3.43 49.51 5.42 49.87 7.69 50.11 9.17 49.92 10.67 49.35 12.07 57.06 7.35 65.73 4.32 75.14 3.04 81.39 2.19 86.99 6.32 87.87 12.43 88.79 18.78 84.66 24.32 78.27 25.31 75.48 25.75 72.91 26.33 70.51 27.07 77.8 28.84 84.35 32.33 90.02 37.47 90.07 37.52 90.11 37.56 90.15 37.61 90.15 37.61 90.62 38.16 90.62 38.16 91.2 38.79 98.03 46.13 100.34 51.46 100.73 52.26 102.71 56.98 103.16 59.29 104 63.6 102.53 67.47 99.03 70.19ZM 100.22 59.87C 99.84 57.9 97.92 53.3 97.65 52.78 97.64 52.75 97.62 52.71 97.61 52.68 95.47 47.72 88.48 40.27 88.41 40.19 88.39 40.17 88.37 40.15 88.35 40.13 88.35 40.13 87.94 39.63 87.94 39.63 81.72 34.02 74.38 30.53 66.11 29.26 65.85 29.22 65.6 29.14 65.34 29.06 65.34 29.06 65.14 29 65.14 29 64.63 28.86 64.24 28.46 64.1 27.96 63.96 27.45 64.09 26.91 64.45 26.52 65.02 25.92 65.6 25.64 66.09 25.44 69.64 24.03 73.47 23.02 77.81 22.35 82.61 21.6 85.59 17.61 84.91 12.86 84.27 8.4 80.15 5.39 75.54 6.02 66.4 7.26 57.99 10.23 50.55 14.86 49.31 15.63 48.07 16.47 46.88 17.29 46.3 17.68 45.73 18.08 45.15 18.47 44.58 18.85 43.82 18.79 43.31 18.33 42.81 17.87 42.67 17.12 42.99 16.52 43.72 15.14 44.59 13.81 45.67 12.47 46.71 11.17 47.15 9.64 46.92 8.16 46.69 6.74 45.84 5.47 44.52 4.61 43.87 4.18 43.12 3.85 42.33 3.51 42.01 3.37 41.7 3.23 41.39 3.09 40.95 3.05 39.5 3.08 38.31 3.14 36.06 3.67 34.3 4.98 32.45 7.51 26.57 15.52 22.67 24.2 20.85 33.32 20.8 33.55 20.73 33.78 20.64 34.05 20.64 34.05 20.54 34.38 20.54 34.38 20.36 34.94 19.87 35.36 19.28 35.42 18.68 35.49 18.12 35.21 17.82 34.7 15.61 30.95 12.72 29.91 8.99 31.52 6.17 32.74 4.5 34.93 4.03 38.04 3.72 40.07 3.5 42.17 3.28 44.2 3.18 45.1 3.09 46 2.98 46.89 2.98 46.89 2.98 52.91 2.98 52.91 2.98 52.91 3.03 53.25 3.03 53.25 3.08 53.61 3.12 53.98 3.17 54.35 3.25 55.06 3.32 55.77 3.39 56.49 3.54 57.99 3.68 59.4 3.93 60.81 6.27 73.88 12.33 85.75 21.93 96.08 29.42 104.13 38.33 109.35 48.44 111.58 49.65 111.85 50.92 112.06 52.15 112.27 52.74 112.36 53.34 112.46 53.93 112.57 53.94 112.57 60.13 113.44 64.38 112.68 71.64 111.73 78.2 109.2 83.96 105.14 89.14 101.5 93.23 97.02 96.11 91.83 98.02 88.41 97.07 83.87 93.95 81.49 92 80.01 89.7 79.42 87.46 79.84 85.08 80.3 82.98 81.83 81.55 84.17 75.53 94.06 63.18 98.69 52.2 95.16 40.69 91.47 33.45 80.48 34.59 68.45 34.64 67.94 34.73 67.44 34.81 66.94 34.81 66.94 34.86 66.69 34.86 66.69 34.86 66.65 34.87 66.61 34.88 66.57 34.99 66.15 37.63 56.13 43.85 51.19 44.22 50.84 44.58 50.5 44.96 50.17 44.99 50.14 45.02 50.12 45.06 50.09 53.42 43.97 64.9 43.67 73.61 49.34 74.04 49.62 74.45 49.92 74.87 50.23 74.87 50.23 75.29 50.54 75.29 50.54 75.39 50.61 75.47 50.69 75.55 50.78 75.82 51.1 82.11 58.56 84.69 64.56 84.86 64.92 85.04 65.31 85.21 65.71 86.12 67.16 87.33 68.21 88.8 68.83 91.85 70.11 94.68 69.77 97.2 67.81 99.83 65.77 100.85 63.1 100.22 59.87Z" fill="rgb(61,137,199)"/></svg>