<?xml version="1.0" encoding="utf-8"?>
<svg xmlns="http://www.w3.org/2000/svg"
	xmlns:xlink="http://www.w3.org/1999/xlink"
	width="11px" height="9px" viewBox="0 0 11 9">
<path fillRule="evenodd" d="M 0.07 5.37C 0.02 5.14 0.09 4.67 0.09 4.5 0.09 4.5 0.09 4.5 0.09 4.5 0.09 4.33 0.02 3.86 0.07 3.63 0.07 3.63 0.07 3.63 0.07 3.63 0.07 3.63-0 3.7-0 3.7-0 3.7 0.09 3.52 0.09 3.52 0.08 3.54 0.07 3.59 0.07 3.63 0.07 3.63 3.74-0 3.74-0 3.74-0 5.15 1.38 5.15 1.38 5.15 1.38 2.98 3.52 2.98 3.52 2.98 3.52 10.01 3.52 10.01 3.52 10.56 3.52 11 3.96 11 4.5 11 4.5 11 4.5 11 4.5 11 4.5 11 4.5 11 4.5 11 5.04 10.56 5.48 10.01 5.48 10.01 5.48 2.98 5.48 2.98 5.48 2.98 5.48 5.15 7.62 5.15 7.62 5.15 7.62 3.74 9 3.74 9 3.74 9 0.07 5.37 0.07 5.37ZM-0 5.3C-0 5.3 0.07 5.37 0.07 5.37 0.07 5.41 0.08 5.46 0.09 5.48 0.09 5.48-0 5.3-0 5.3Z" fill="rgb(211,211,211)"/></svg>