<?xml version="1.0" encoding="utf-8"?>
<svg xmlns="http://www.w3.org/2000/svg"
	xmlns:xlink="http://www.w3.org/1999/xlink"
	width="14px" height="13px" viewBox="0 0 14 13">
<path fillRule="evenodd" d="M 12.13 11C 12.13 11 12.13 2 12.13 2 12.13 2 3.73 2 3.73 2 3.73 2 3.73-0 3.73-0 3.73-0 14-0 14-0 14-0 14 1 14 1 14 1 14 2 14 2 14 2 14 11 14 11 14 11 12.13 11 12.13 11ZM 10.27 13C 10.27 13-0 13-0 13-0 13-0 4-0 4-0 4 10.27 4 10.27 4 10.27 4 10.27 13 10.27 13ZM 8.4 6C 8.4 6 1.87 6 1.87 6 1.87 6 1.87 11 1.87 11 1.87 11 8.4 11 8.4 11 8.4 11 8.4 6 8.4 6Z" fill="rgb(255,255,255)"/></svg>