<?xml version="1.0" encoding="utf-8"?>
<svg xmlns="http://www.w3.org/2000/svg"
	xmlns:xlink="http://www.w3.org/1999/xlink"
	width="11px" height="13px" viewBox="0 0 11 13">
<path fillRule="evenodd" d="M 5.51 1.3C 7.74 1.3 9.63 2.85 9.63 4.95 9.63 5.6 9.54 6.39 9.04 7.12 9.01 7.16 8.99 7.2 8.96 7.24 7.76 9.6 6.27 10.9 5.56 11.53 3.64 9.83 2.48 8.3 1.93 6.74 1.92 6.69 1.9 6.65 1.88 6.6 1.67 6.2 1.42 5.61 1.38 5.08 1.37 4.92 1.37 4.75 1.38 4.59 1.51 2.71 3.27 1.39 5.33 1.3 5.39 1.3 5.45 1.3 5.51 1.3M 5.58 7.26C 6.91 7.26 7.98 6.22 7.98 4.94 7.98 3.67 6.91 2.63 5.58 2.63 4.26 2.63 3.19 3.67 3.19 4.94 3.19 6.22 4.26 7.26 5.58 7.26M 5.51 0C 5.43 0 5.36 0 5.28 0.01 2.65 0.11 0.17 2.03 0.01 4.52-0.01 4.73-0.01 4.94 0.01 5.15 0.05 5.8 0.31 6.5 0.59 7.07 1.46 9 2.72 10.7 5.51 13 5.51 13 8.11 11.96 10.19 7.85 10.73 7.08 11.01 5.95 11.01 4.95 11.01 2.22 8.39 0 5.51 0 5.51 0 5.51 0 5.51 0ZM 5.58 5.95C 5 5.95 4.53 5.5 4.53 4.94 4.53 4.39 5 3.93 5.58 3.93 6.16 3.93 6.62 4.39 6.62 4.94 6.62 5.5 6.16 5.95 5.58 5.95 5.58 5.95 5.58 5.95 5.58 5.95Z" fill="rgb(219,221,225)"/></svg>