<?xml version="1.0" encoding="utf-8"?>
<svg xmlns="http://www.w3.org/2000/svg"
	xmlns:xlink="http://www.w3.org/1999/xlink"
	width="15px" height="20px" viewBox="0 0 15 20">
<path fillRule="evenodd" d="M 10.89 19.03C 10.65 19.07 10.17 19 10 19 9.83 19 9.35 19.07 9.11 19.03 9.11 19.03 5.4 15.32 5.4 15.32 5.4 15.32 6.82 13.9 6.82 13.9 6.82 13.9 9 16.08 9 16.08 9 16.08 9 9 9 9 9 8.45 9.45 8 10 8 10 8 10 8 10 8 10 8 10 8 10 8 10.55 8 11 8.45 11 9 11 9 11 16.08 11 16.08 11 16.08 13.18 13.9 13.18 13.9 13.18 13.9 14.6 15.32 14.6 15.32 14.6 15.32 10.89 19.03 10.89 19.03ZM 10.82 19.1C 10.82 19.1 10.89 19.03 10.89 19.03 10.93 19.02 10.98 19.02 11 19 11 19 10.82 19.1 10.82 19.1ZM 9 19C 9.02 19.02 9.07 19.02 9.11 19.03 9.11 19.03 9.18 19.1 9.18 19.1 9.18 19.1 9 19 9 19ZM 8.18 6.1C 8.18 6.1 6 3.92 6 3.92 6 3.92 6 11 6 11 6 11.55 5.55 12 5 12 5 12 5 12 5 12 5 12 5 12 5 12 4.45 12 4 11.55 4 11 4 11 4 3.92 4 3.92 4 3.92 1.82 6.1 1.82 6.1 1.82 6.1 0.4 4.68 0.4 4.68 0.4 4.68 4.11 0.97 4.11 0.97 4.35 0.93 4.83 1 5 1 5.17 1 5.65 0.93 5.89 0.97 5.89 0.97 9.6 4.68 9.6 4.68 9.6 4.68 8.18 6.1 8.18 6.1ZM 4.18 0.9C 4.18 0.9 4.11 0.97 4.11 0.97 4.07 0.98 4.02 0.98 4 1 4 1 4.18 0.9 4.18 0.9ZM 6 1C 5.98 0.98 5.93 0.98 5.89 0.97 5.89 0.97 5.82 0.9 5.82 0.9 5.82 0.9 6 1 6 1Z" fill="rgb(211,211,211)"/></svg>