<?xml version="1.0" encoding="utf-8"?>
<svg xmlns="http://www.w3.org/2000/svg"
	xmlns:xlink="http://www.w3.org/1999/xlink"
	width="14px" height="13px" viewBox="0 0 14 13">
<path fillRule="evenodd" d="M 12 13C 12 13 2 13 2 13 2 13-0 13-0 13-0 13-0 11-0 11-0 11-0 7-0 7-0 7 2 7 2 7 2 7 2 11 2 11 2 11 12 11 12 11 12 11 12 7 12 7 12 7 14 7 14 7 14 7 14 11 14 11 14 11 14 13 14 13 14 13 12 13 12 13ZM 9.33 5.16C 9.33 5.16 8 3.83 8 3.83 8 3.83 8 9 8 9 8 9 6 9 6 9 6 9 6 3.59 6 3.59 6 3.59 4.46 5.13 4.46 5.13 4.46 5.13 3.05 3.71 3.05 3.71 3.05 3.71 6.99-0.01 6.99-0.01 6.99-0.01 7.04 0.07 7.04 0.07 7.04 0.07 10.76 3.73 10.76 3.73 10.76 3.73 9.33 5.16 9.33 5.16Z" fill="rgb(219,221,225)"/></svg>