<?xml version="1.0" encoding="utf-8"?>
<svg xmlns="http://www.w3.org/2000/svg"
	xmlns:xlink="http://www.w3.org/1999/xlink"
	width="5px" height="25px" viewBox="0 0 5 25">
<path fillRule="evenodd" d="M 2.5 15.12C 1.12 15.12-0 13.95-0 12.5-0 11.05 1.12 9.87 2.5 9.87 3.88 9.87 5 11.05 5 12.5 5 13.95 3.88 15.12 2.5 15.12ZM 2.5 5.25C 1.12 5.25-0 4.07-0 2.62-0 1.18 1.12-0 2.5-0 3.88-0 5 1.18 5 2.62 5 4.07 3.88 5.25 2.5 5.25ZM 2.5 19.75C 3.88 19.75 5 20.93 5 22.37 5 23.82 3.88 25 2.5 25 1.12 25-0 23.82-0 22.37-0 20.93 1.12 19.75 2.5 19.75Z" fill="rgb(218,221,224)" opacity="0.70"/></svg>