<?xml version="1.0" encoding="utf-8"?>
<svg xmlns="http://www.w3.org/2000/svg"
	xmlns:xlink="http://www.w3.org/1999/xlink"
	width="163px" height="27px" viewBox="0 0 163 27">
<path fillRule="evenodd" d="M 159.09 26.51C 159.09 26.51 88.06 26.51 88.06 26.51 85.9 26.51 84.15 24.75 84.15 22.59 84.15 22.59 84.15 3.91 84.15 3.91 84.15 1.75 85.9-0.01 88.06-0.01 88.06-0.01 159.09-0.01 159.09-0.01 161.25-0.01 163 1.75 163 3.91 163 3.91 163 22.59 163 22.59 163 24.75 161.25 26.51 159.09 26.51ZM 162.08 3.91C 162.08 2.26 160.74 0.92 159.09 0.92 159.09 0.92 88.06 0.92 88.06 0.92 86.41 0.92 85.07 2.26 85.07 3.91 85.07 3.91 85.07 22.59 85.07 22.59 85.07 24.24 86.41 25.59 88.06 25.59 88.06 25.59 159.09 25.59 159.09 25.59 160.74 25.59 162.08 24.24 162.08 22.59 162.08 22.59 162.08 3.91 162.08 3.91ZM 155.97 20.37C 155.97 20.37 157.18 17.75 157.18 17.75 157.18 17.75 155.04 12.88 155.04 12.88 155.04 12.88 156.1 12.88 156.1 12.88 156.1 12.88 157.65 16.62 157.65 16.62 157.65 16.62 157.67 16.62 157.67 16.62 157.67 16.62 159.17 12.88 159.17 12.88 159.17 12.88 160.23 12.88 160.23 12.88 160.23 12.88 156.98 20.37 156.98 20.37 156.98 20.37 155.97 20.37 155.97 20.37ZM 153.93 17.36C 153.93 17.36 153.89 17.36 153.89 17.36 153.5 17.95 152.93 18.25 152.19 18.25 151.64 18.25 151.18 18.09 150.81 17.77 150.44 17.45 150.25 17.03 150.25 16.51 150.25 15.94 150.47 15.5 150.91 15.18 151.34 14.86 151.88 14.69 152.53 14.69 153.1 14.69 153.57 14.8 153.93 15.01 153.93 15.01 153.93 14.86 153.93 14.86 153.93 14.48 153.8 14.18 153.54 13.95 153.28 13.72 152.96 13.6 152.58 13.6 152.3 13.6 152.04 13.67 151.81 13.8 151.58 13.94 151.43 14.12 151.34 14.35 151.34 14.35 150.45 13.97 150.45 13.97 150.57 13.66 150.81 13.37 151.16 13.11 151.51 12.84 151.98 12.71 152.56 12.71 153.22 12.71 153.77 12.9 154.21 13.29 154.64 13.68 154.86 14.23 154.86 14.94 154.86 14.94 154.86 18.08 154.86 18.08 154.86 18.08 153.93 18.08 153.93 18.08 153.93 18.08 153.93 17.36 153.93 17.36ZM 152.7 15.5C 152.22 15.5 151.87 15.6 151.63 15.81 151.39 16.01 151.27 16.25 151.27 16.53 151.27 16.79 151.38 16.99 151.6 17.14 151.81 17.28 152.06 17.36 152.35 17.36 152.75 17.36 153.11 17.21 153.44 16.91 153.77 16.61 153.93 16.25 153.93 15.84 153.66 15.61 153.25 15.5 152.7 15.5ZM 148.71 10.48C 148.71 10.48 149.68 10.48 149.68 10.48 149.68 10.48 149.68 18.08 149.68 18.08 149.68 18.08 148.71 18.08 148.71 18.08 148.71 18.08 148.71 10.48 148.71 10.48ZM 145.7 15C 145.7 15 144.1 15 144.1 15 144.1 15 144.1 18.08 144.1 18.08 144.1 18.08 143.12 18.08 143.12 18.08 143.12 18.08 143.12 10.48 143.12 10.48 143.12 10.48 145.7 10.48 145.7 10.48 146.35 10.48 146.9 10.69 147.37 11.12 147.84 11.55 148.07 12.09 148.07 12.74 148.07 13.39 147.84 13.93 147.37 14.36 146.9 14.79 146.35 15 145.7 15ZM 146.71 11.83C 146.46 11.55 146.13 11.41 145.73 11.41 145.73 11.41 144.1 11.41 144.1 11.41 144.1 11.41 144.1 14.07 144.1 14.07 144.1 14.07 145.73 14.07 145.73 14.07 146.13 14.07 146.46 13.93 146.71 13.65 146.96 13.38 147.08 13.07 147.08 12.74 147.08 12.41 146.96 12.1 146.71 11.83ZM 136.16 15.66C 136.19 16.18 136.37 16.6 136.69 16.9 137.01 17.21 137.38 17.36 137.81 17.36 138.51 17.36 138.99 17.06 139.23 16.47 139.23 16.47 140.1 16.83 140.1 16.83 139.93 17.23 139.65 17.57 139.26 17.84 138.88 18.11 138.4 18.25 137.84 18.25 137.05 18.25 136.42 17.99 135.93 17.47 135.44 16.94 135.19 16.28 135.19 15.48 135.19 14.72 135.43 14.07 135.91 13.53 136.38 12.98 136.99 12.71 137.73 12.71 138.5 12.71 139.11 12.96 139.58 13.46 140.04 13.96 140.27 14.64 140.27 15.48 140.27 15.48 140.26 15.66 140.26 15.66 140.26 15.66 136.16 15.66 136.16 15.66ZM 138.82 14C 138.57 13.73 138.2 13.6 137.71 13.6 137.35 13.6 137.04 13.71 136.77 13.94 136.51 14.17 136.33 14.47 136.23 14.85 136.23 14.85 139.23 14.85 139.23 14.85 139.21 14.56 139.07 14.27 138.82 14ZM 134.71 7.73C 134.71 7.69 134.56 7.45 134.26 7.02 133.94 6.57 133.77 6.26 133.72 6.09 133.72 6.09 133.7 6.09 133.7 6.09 133.72 6.33 133.74 6.55 133.74 6.74 133.74 7.01 133.74 7.34 133.76 7.73 133.76 7.73 133.36 7.73 133.36 7.73 133.37 7.39 133.38 7.02 133.38 6.61 133.38 6.21 133.37 5.87 133.36 5.59 133.36 5.59 133.84 5.59 133.84 5.59 133.84 5.65 133.98 5.88 134.25 6.29 134.53 6.72 134.7 7.01 134.74 7.16 134.74 7.16 134.77 7.16 134.77 7.16 134.74 6.92 134.73 6.7 134.73 6.51 134.73 6.21 134.72 5.91 134.7 5.59 134.7 5.59 135.11 5.59 135.11 5.59 135.1 5.87 135.09 6.21 135.09 6.61 135.09 7.03 135.1 7.4 135.11 7.73 135.11 7.73 134.71 7.73 134.71 7.73ZM 131.83 7.79C 131.54 7.79 131.3 7.69 131.1 7.49 130.91 7.28 130.81 7.03 130.81 6.71 130.81 6.38 130.91 6.1 131.12 5.88 131.32 5.66 131.58 5.54 131.88 5.54 132.17 5.54 132.41 5.65 132.6 5.85 132.8 6.05 132.89 6.31 132.89 6.62 132.89 6.96 132.79 7.24 132.59 7.46 132.38 7.68 132.13 7.79 131.83 7.79ZM 132.27 6.12C 132.15 5.97 132.01 5.9 131.84 5.9 131.68 5.9 131.54 5.97 131.43 6.12 131.32 6.26 131.26 6.44 131.26 6.66 131.26 6.89 131.32 7.07 131.44 7.22 131.56 7.36 131.7 7.43 131.87 7.43 132.03 7.43 132.16 7.36 132.28 7.22 132.39 7.07 132.44 6.89 132.44 6.67 132.44 6.44 132.38 6.26 132.27 6.12ZM 131.75 13.6C 131.75 13.6 131.8 13.6 131.8 13.6 131.8 13.6 131.8 12.88 131.8 12.88 131.8 12.88 132.73 12.88 132.73 12.88 132.73 12.88 132.73 17.82 132.73 17.82 132.73 18.71 132.47 19.39 131.96 19.85 131.44 20.31 130.81 20.54 130.07 20.54 129.46 20.54 128.96 20.39 128.57 20.08 128.18 19.77 127.9 19.42 127.74 19.03 127.74 19.03 128.62 18.65 128.62 18.65 128.72 18.94 128.9 19.17 129.17 19.37 129.43 19.56 129.73 19.65 130.07 19.65 130.61 19.65 131.03 19.49 131.34 19.17 131.64 18.85 131.8 18.41 131.8 17.86 131.8 17.86 131.8 17.36 131.8 17.36 131.8 17.36 131.75 17.36 131.75 17.36 131.59 17.61 131.35 17.83 131.04 18 130.73 18.17 130.38 18.25 129.99 18.25 129.32 18.25 128.74 17.99 128.25 17.45 127.77 16.92 127.52 16.27 127.52 15.48 127.52 14.69 127.77 14.04 128.25 13.5 128.74 12.97 129.32 12.71 129.99 12.71 130.38 12.71 130.73 12.79 131.04 12.96 131.35 13.13 131.59 13.35 131.75 13.6ZM 130.15 13.6C 129.7 13.6 129.31 13.77 128.98 14.12 128.66 14.46 128.5 14.91 128.5 15.48 128.5 16.05 128.66 16.5 128.98 16.84 129.31 17.19 129.7 17.36 130.15 17.36 130.61 17.36 131 17.19 131.32 16.85 131.64 16.51 131.8 16.05 131.8 15.48 131.8 14.91 131.64 14.45 131.32 14.11 131 13.77 130.61 13.6 130.15 13.6ZM 128.68 6.92C 128.63 6.92 128.59 6.92 128.57 6.92 128.57 7.12 128.58 7.4 128.59 7.73 128.59 7.73 128.13 7.73 128.13 7.73 128.14 7.42 128.15 7.04 128.15 6.61 128.15 6.22 128.14 5.88 128.13 5.59 128.13 5.59 128.42 5.59 128.42 5.59 128.46 5.59 128.53 5.59 128.65 5.59 128.76 5.59 128.86 5.58 128.95 5.58 129.15 5.58 129.33 5.63 129.47 5.73 129.61 5.82 129.69 5.96 129.69 6.15 129.69 6.42 129.59 6.61 129.39 6.73 129.2 6.86 128.96 6.92 128.68 6.92ZM 128.8 5.89C 128.72 5.89 128.64 5.9 128.55 5.92 128.56 6.12 128.57 6.36 128.57 6.62 128.6 6.62 128.63 6.62 128.67 6.62 129.06 6.62 129.26 6.5 129.26 6.24 129.26 6.01 129.11 5.89 128.8 5.89ZM 126.72 6.92C 126.67 6.92 126.63 6.92 126.61 6.92 126.61 7.12 126.62 7.4 126.63 7.73 126.63 7.73 126.17 7.73 126.17 7.73 126.18 7.42 126.19 7.04 126.19 6.61 126.19 6.22 126.18 5.88 126.17 5.59 126.17 5.59 126.45 5.59 126.45 5.59 126.49 5.59 126.57 5.59 126.68 5.59 126.8 5.59 126.9 5.58 126.98 5.58 127.19 5.58 127.37 5.63 127.51 5.73 127.65 5.82 127.72 5.96 127.72 6.15 127.72 6.42 127.63 6.61 127.43 6.73 127.24 6.86 127 6.92 126.72 6.92ZM 126.84 5.89C 126.76 5.89 126.68 5.9 126.59 5.92 126.6 6.12 126.61 6.36 126.61 6.62 126.64 6.62 126.67 6.62 126.7 6.62 127.1 6.62 127.3 6.5 127.3 6.24 127.3 6.01 127.15 5.89 126.84 5.89ZM 125.14 7.12C 125.14 7.12 124.38 7.12 124.38 7.12 124.28 7.45 124.23 7.66 124.23 7.73 124.23 7.73 123.74 7.73 123.74 7.73 123.74 7.69 123.87 7.34 124.12 6.68 124.37 6.02 124.5 5.66 124.5 5.59 124.5 5.59 125.12 5.59 125.12 5.59 125.12 5.66 125.24 6.01 125.47 6.67 125.7 7.32 125.81 7.67 125.81 7.73 125.81 7.73 125.29 7.73 125.29 7.73 125.29 7.66 125.24 7.46 125.14 7.12ZM 124.78 5.89C 124.78 5.89 124.75 5.89 124.75 5.89 124.75 5.93 124.65 6.24 124.46 6.81 124.46 6.81 125.06 6.81 125.06 6.81 124.87 6.24 124.78 5.93 124.78 5.89ZM 121.53 7.75C 121.37 7.75 121.15 7.75 120.87 7.73 120.88 7.4 120.89 7.03 120.89 6.61 120.89 6.22 120.88 5.88 120.87 5.59 120.87 5.59 121.15 5.59 121.15 5.59 121.2 5.59 121.27 5.59 121.36 5.59 121.45 5.59 121.52 5.58 121.54 5.58 121.94 5.58 122.22 5.68 122.4 5.88 122.58 6.08 122.67 6.31 122.67 6.59 122.67 6.9 122.57 7.17 122.37 7.4 122.17 7.64 121.89 7.75 121.53 7.75ZM 122.04 6.13C 121.91 5.99 121.73 5.91 121.48 5.91 121.43 5.91 121.37 5.92 121.28 5.93 121.29 6.15 121.3 6.38 121.3 6.61 121.3 6.88 121.31 7.14 121.32 7.39 121.39 7.41 121.46 7.41 121.53 7.41 121.76 7.41 121.94 7.34 122.05 7.2 122.16 7.05 122.22 6.87 122.22 6.66 122.22 6.45 122.16 6.27 122.04 6.13ZM 120.79 17.46C 120.29 17.99 119.65 18.25 118.87 18.25 118.1 18.25 117.46 17.99 116.96 17.46 116.46 16.93 116.21 16.27 116.21 15.48 116.21 14.69 116.46 14.03 116.96 13.5 117.46 12.97 118.1 12.71 118.87 12.71 119.65 12.71 120.29 12.97 120.79 13.5 121.29 14.03 121.54 14.69 121.54 15.48 121.54 16.27 121.29 16.93 120.79 17.46ZM 120.06 14.12C 119.73 13.77 119.33 13.6 118.87 13.6 118.41 13.6 118.02 13.77 117.68 14.12 117.35 14.46 117.18 14.91 117.18 15.48 117.18 16.05 117.35 16.5 117.68 16.84 118.02 17.19 118.41 17.36 118.87 17.36 119.33 17.36 119.73 17.19 120.06 16.84 120.4 16.5 120.57 16.05 120.57 15.48 120.57 14.91 120.4 14.46 120.06 14.12ZM 119.83 7.73C 119.85 7.39 119.85 7.02 119.85 6.61 119.85 6.21 119.85 5.87 119.83 5.59 119.83 5.59 120.29 5.59 120.29 5.59 120.28 5.87 120.27 6.21 120.27 6.61 120.27 7.03 120.28 7.4 120.29 7.73 120.29 7.73 119.83 7.73 119.83 7.73ZM 118.3 7.79C 118.01 7.79 117.77 7.69 117.58 7.49 117.38 7.28 117.29 7.03 117.29 6.71 117.29 6.38 117.39 6.1 117.59 5.88 117.8 5.66 118.05 5.54 118.35 5.54 118.64 5.54 118.88 5.65 119.08 5.85 119.27 6.05 119.37 6.31 119.37 6.62 119.37 6.96 119.27 7.24 119.06 7.46 118.86 7.68 118.6 7.79 118.3 7.79ZM 118.74 6.12C 118.63 5.97 118.48 5.9 118.31 5.9 118.15 5.9 118.02 5.97 117.9 6.12 117.79 6.26 117.74 6.44 117.74 6.66 117.74 6.89 117.8 7.07 117.91 7.22 118.03 7.36 118.17 7.43 118.34 7.43 118.5 7.43 118.64 7.36 118.75 7.22 118.86 7.07 118.92 6.89 118.92 6.67 118.92 6.44 118.86 6.26 118.74 6.12ZM 116.69 6.95C 116.77 7.1 116.88 7.36 117.02 7.73 117.02 7.73 116.54 7.73 116.54 7.73 116.41 7.35 116.31 7.11 116.25 7.02 116.18 6.92 116.07 6.88 115.92 6.88 115.86 6.88 115.8 6.88 115.74 6.88 115.74 7.16 115.74 7.45 115.75 7.73 115.75 7.73 115.3 7.73 115.3 7.73 115.31 7.4 115.32 7.03 115.32 6.61 115.32 6.22 115.31 5.88 115.3 5.59 115.3 5.59 115.58 5.59 115.58 5.59 115.61 5.59 115.68 5.59 115.79 5.59 115.89 5.59 115.99 5.58 116.08 5.58 116.58 5.58 116.83 5.76 116.83 6.1 116.83 6.37 116.68 6.56 116.4 6.67 116.4 6.67 116.4 6.7 116.4 6.7 116.51 6.73 116.6 6.81 116.69 6.95ZM 116.41 6.22C 116.41 6 116.27 5.89 115.99 5.89 115.89 5.89 115.8 5.9 115.72 5.92 115.73 6.09 115.74 6.31 115.74 6.58 115.8 6.58 115.85 6.58 115.89 6.58 116.24 6.58 116.41 6.46 116.41 6.22ZM 113.7 7.75C 113.54 7.75 113.32 7.75 113.04 7.73 113.05 7.4 113.06 7.03 113.06 6.61 113.06 6.22 113.05 5.88 113.04 5.59 113.04 5.59 113.32 5.59 113.32 5.59 113.37 5.59 113.44 5.59 113.53 5.59 113.62 5.59 113.68 5.58 113.71 5.58 114.11 5.58 114.39 5.68 114.57 5.88 114.75 6.08 114.84 6.31 114.84 6.59 114.84 6.9 114.74 7.17 114.54 7.4 114.34 7.64 114.06 7.75 113.7 7.75ZM 114.21 6.13C 114.08 5.99 113.9 5.91 113.65 5.91 113.6 5.91 113.53 5.92 113.45 5.93 113.46 6.15 113.47 6.38 113.47 6.61 113.47 6.88 113.47 7.14 113.49 7.39 113.56 7.41 113.63 7.41 113.7 7.41 113.93 7.41 114.11 7.34 114.22 7.2 114.33 7.05 114.39 6.87 114.39 6.66 114.39 6.45 114.33 6.27 114.21 6.13ZM 114.82 11.48C 114.82 11.48 114.16 12.15 114.16 12.15 113.66 11.54 112.96 11.24 112.08 11.24 111.29 11.24 110.6 11.52 110.02 12.09 109.43 12.65 109.14 13.38 109.14 14.28 109.14 15.18 109.43 15.91 110.02 16.47 110.6 17.04 111.29 17.32 112.08 17.32 112.93 17.32 113.63 17.03 114.2 16.47 114.56 16.1 114.78 15.59 114.83 14.93 114.83 14.93 112.08 14.93 112.08 14.93 112.08 14.93 112.08 14.01 112.08 14.01 112.08 14.01 115.75 14.01 115.75 14.01 115.79 14.21 115.81 14.4 115.81 14.59 115.81 15.65 115.49 16.5 114.86 17.13 114.15 17.88 113.22 18.25 112.08 18.25 110.99 18.25 110.06 17.87 109.3 17.11 108.53 16.35 108.15 15.41 108.15 14.28 108.15 13.15 108.53 12.21 109.3 11.45 110.06 10.69 110.99 10.31 112.08 10.31 112.63 10.31 113.14 10.41 113.64 10.63 114.13 10.84 114.53 11.12 114.82 11.48ZM 112.06 7.73C 112.06 7.69 111.91 7.45 111.61 7.02 111.29 6.57 111.12 6.26 111.07 6.09 111.07 6.09 111.05 6.09 111.05 6.09 111.07 6.33 111.09 6.55 111.09 6.74 111.09 7.01 111.09 7.34 111.11 7.73 111.11 7.73 110.71 7.73 110.71 7.73 110.72 7.39 110.73 7.02 110.73 6.61 110.73 6.21 110.72 5.87 110.71 5.59 110.71 5.59 111.19 5.59 111.19 5.59 111.19 5.65 111.33 5.88 111.6 6.29 111.88 6.72 112.05 7.01 112.09 7.16 112.09 7.16 112.12 7.16 112.12 7.16 112.09 6.92 112.08 6.7 112.08 6.51 112.08 6.21 112.07 5.91 112.05 5.59 112.05 5.59 112.46 5.59 112.46 5.59 112.45 5.87 112.44 6.21 112.44 6.61 112.44 7.03 112.45 7.4 112.46 7.73 112.46 7.73 112.06 7.73 112.06 7.73ZM 109.68 7.12C 109.68 7.12 108.92 7.12 108.92 7.12 108.82 7.45 108.77 7.66 108.77 7.73 108.77 7.73 108.28 7.73 108.28 7.73 108.28 7.69 108.41 7.34 108.66 6.68 108.91 6.02 109.04 5.66 109.04 5.59 109.04 5.59 109.66 5.59 109.66 5.59 109.66 5.66 109.78 6.01 110.01 6.67 110.24 7.32 110.35 7.67 110.35 7.73 110.35 7.73 109.83 7.73 109.83 7.73 109.83 7.66 109.78 7.46 109.68 7.12ZM 109.32 5.89C 109.32 5.89 109.29 5.89 109.29 5.89 109.29 5.93 109.19 6.24 109 6.81 109 6.81 109.6 6.81 109.6 6.81 109.41 6.24 109.32 5.93 109.32 5.89ZM 104.61 15.11C 103.68 15.63 102.74 16.14 101.81 16.66 101.69 16.73 101.61 16.73 101.51 16.62 100.85 15.93 100.18 15.25 99.5 14.57 99.41 14.48 99.4 14.42 99.5 14.32 100.29 13.55 101.07 12.77 101.84 11.99 101.93 11.89 102 11.88 102.11 11.95 103.04 12.47 103.96 12.99 104.89 13.51 105.17 13.67 105.39 13.88 105.41 14.22 105.4 14.49 105.27 14.68 105.07 14.83 104.93 14.93 104.77 15.02 104.61 15.11ZM 99.16 13.97C 99.08 14.05 99.03 14.1 98.93 13.99 96.29 11.29 93.65 8.59 91.01 5.9 90.99 5.88 90.97 5.85 90.93 5.79 91.13 5.79 91.27 5.85 91.4 5.92 94.71 7.79 98.03 9.65 101.34 11.51 101.49 11.6 101.49 11.65 101.37 11.76 100.63 12.49 99.9 13.23 99.16 13.97ZM 98.57 14.29C 98.67 14.39 98.68 14.44 98.57 14.55 95.98 17.14 93.39 19.73 90.8 22.33 90.64 22.49 90.53 22.47 90.38 22.36 90.1 22.14 90 21.86 90 21.52 90 20.08 90 18.64 90 17.2 90 16.18 90 15.17 90 14.15 90 14.15 90 14.15 90 14.15 90 11.72 90 9.29 90 6.87 90 6.57 90.06 6.3 90.27 6.07 90.35 5.98 90.41 5.96 90.51 6.06 92.13 7.73 93.77 9.39 95.4 11.06 96.45 12.13 97.51 13.21 98.57 14.29ZM 99.23 14.96C 99.84 15.59 100.46 16.22 101.08 16.85 101.19 16.96 101.2 17 101.05 17.08 97.96 18.78 94.88 20.48 91.8 22.18 91.74 22.21 91.7 22.25 91.67 22.27 94.08 19.83 96.48 17.39 98.88 14.95 99.03 14.8 99.1 14.82 99.23 14.96ZM 124.53 12.71C 125.31 12.71 125.94 12.97 126.45 13.5 126.95 14.03 127.2 14.69 127.2 15.48 127.2 16.27 126.95 16.93 126.45 17.46 125.94 17.99 125.31 18.25 124.53 18.25 123.76 18.25 123.12 17.99 122.62 17.46 122.12 16.93 121.87 16.27 121.87 15.48 121.87 14.69 122.12 14.03 122.62 13.5 123.12 12.97 123.76 12.71 124.53 12.71ZM 123.34 16.84C 123.68 17.19 124.07 17.36 124.53 17.36 124.99 17.36 125.39 17.19 125.72 16.84 126.06 16.5 126.22 16.05 126.22 15.48 126.22 14.91 126.06 14.46 125.72 14.12 125.39 13.77 124.99 13.6 124.53 13.6 124.07 13.6 123.68 13.77 123.34 14.12 123.01 14.46 122.84 14.91 122.84 15.48 122.84 16.05 123.01 16.5 123.34 16.84ZM 134.62 18.08C 134.62 18.08 133.65 18.08 133.65 18.08 133.65 18.08 133.65 10.48 133.65 10.48 133.65 10.48 134.62 10.48 134.62 10.48 134.62 10.48 134.62 18.08 134.62 18.08ZM 70.77 27C 70.77 27 3.56 27 3.56 27 1.6 27-0 25.39-0 23.42-0 23.42-0 4.03-0 4.03-0 2.06 1.6 0.46 3.56 0.46 3.56 0.46 70.77 0.46 70.77 0.46 72.73 0.46 74.33 2.06 74.33 4.03 74.33 4.03 74.33 23.42 74.33 23.42 74.33 25.39 72.73 27 70.77 27ZM 73.41 4.03C 73.41 2.57 72.22 1.38 70.77 1.38 70.77 1.38 3.56 1.38 3.56 1.38 2.11 1.38 0.92 2.57 0.92 4.03 0.92 4.03 0.92 23.42 0.92 23.42 0.92 24.88 2.11 26.07 3.56 26.07 3.56 26.07 70.77 26.07 70.77 26.07 72.22 26.07 73.41 24.88 73.41 23.42 73.41 23.42 73.41 4.03 73.41 4.03ZM 63.76 17.99C 63.77 18.6 63.97 19.06 64.35 19.38 64.7 19.67 65.14 19.82 65.69 19.82 66.3 19.82 66.85 19.72 67.34 19.52 67.34 19.52 67.56 20.47 67.56 20.47 66.98 20.73 66.29 20.85 65.5 20.85 64.55 20.85 63.8 20.57 63.26 20.01 62.72 19.45 62.44 18.7 62.44 17.75 62.44 16.82 62.7 16.05 63.2 15.43 63.73 14.77 64.45 14.44 65.35 14.44 66.23 14.44 66.9 14.77 67.36 15.43 67.72 15.95 67.9 16.6 67.9 17.37 67.9 17.61 67.88 17.82 67.85 17.99 67.85 17.99 63.76 17.99 63.76 17.99ZM 66.33 15.96C 66.1 15.58 65.73 15.39 65.25 15.39 64.8 15.39 64.44 15.58 64.16 15.95 63.93 16.24 63.8 16.6 63.76 17.01 63.76 17.01 66.6 17.01 66.6 17.01 66.61 16.61 66.52 16.26 66.33 15.96ZM 65.73 8.88C 65.75 9.46 66.19 9.71 66.7 9.71 67.07 9.71 67.33 9.65 67.58 9.56 67.58 9.56 67.69 10.11 67.69 10.11 67.42 10.23 67.04 10.31 66.59 10.31 65.56 10.31 64.96 9.68 64.96 8.71 64.96 7.83 65.49 7 66.51 7 67.53 7 67.87 7.85 67.87 8.55 67.87 8.7 67.86 8.81 67.84 8.88 67.84 8.88 65.73 8.88 65.73 8.88ZM 66.46 7.55C 65.97 7.55 65.76 8 65.73 8.32 65.73 8.32 67.12 8.32 67.12 8.32 67.12 8.03 66.99 7.55 66.46 7.55ZM 63.49 8.46C 63.49 8.01 63.32 7.65 62.88 7.65 62.56 7.65 62.34 7.86 62.25 8.1 62.23 8.17 62.22 8.26 62.22 8.34 62.22 8.34 62.22 10.25 62.22 10.25 62.22 10.25 61.42 10.25 61.42 10.25 61.42 10.25 61.42 5.62 61.42 5.62 61.42 5.62 62.22 5.62 62.22 5.62 62.22 5.62 62.22 7.5 62.22 7.5 62.22 7.5 62.23 7.5 62.23 7.5 62.33 7.35 62.47 7.23 62.63 7.14 62.79 7.05 62.98 7 63.18 7 63.72 7 64.28 7.36 64.28 8.38 64.28 8.38 64.28 10.25 64.28 10.25 64.28 10.25 63.49 10.25 63.49 10.25 63.49 10.25 63.49 8.46 63.49 8.46ZM 62.01 14.48C 62.01 14.48 62.01 15.78 62.01 15.78 61.88 15.76 61.73 15.75 61.58 15.75 61.1 15.75 60.73 15.93 60.47 16.29 60.24 16.61 60.13 17.01 60.13 17.51 60.13 17.51 60.13 20.74 60.13 20.74 60.13 20.74 58.77 20.74 58.77 20.74 58.77 20.74 58.77 16.52 58.77 16.52 58.77 15.81 58.76 15.16 58.73 14.58 58.73 14.58 59.92 14.58 59.92 14.58 59.92 14.58 59.97 15.76 59.97 15.76 59.97 15.76 60.01 15.76 60.01 15.76 60.15 15.35 60.38 15.03 60.69 14.78 60.99 14.56 61.32 14.46 61.67 14.46 61.8 14.46 61.91 14.46 62.01 14.48ZM 59.75 9.07C 59.75 9.46 59.85 9.66 60.15 9.66 60.3 9.66 60.38 9.65 60.47 9.63 60.47 9.63 60.48 10.23 60.48 10.23 60.36 10.28 60.15 10.32 59.9 10.32 59.6 10.32 59.36 10.22 59.21 10.06 59.04 9.88 58.96 9.58 58.96 9.17 58.96 9.17 58.96 7.67 58.96 7.67 58.96 7.67 58.51 7.67 58.51 7.67 58.51 7.67 58.51 7.07 58.51 7.07 58.51 7.07 58.96 7.07 58.96 7.07 58.96 7.07 58.96 6.48 58.96 6.48 58.96 6.48 59.75 6.26 59.75 6.26 59.75 6.26 59.75 7.07 59.75 7.07 59.75 7.07 60.51 7.07 60.51 7.07 60.51 7.07 60.51 7.67 60.51 7.67 60.51 7.67 59.75 7.67 59.75 7.67 59.75 7.67 59.75 9.07 59.75 9.07ZM 54.86 20.88C 53.95 20.88 53.23 20.58 52.7 19.98 52.17 19.38 51.9 18.62 51.9 17.71 51.9 16.76 52.17 15.97 52.73 15.37 53.28 14.76 54.02 14.45 54.95 14.45 55.86 14.45 56.58 14.75 57.13 15.35 57.65 15.93 57.91 16.69 57.91 17.61 57.91 18.56 57.64 19.33 57.1 19.94 56.54 20.57 55.79 20.88 54.86 20.88ZM 56.13 16.19C 55.84 15.7 55.43 15.46 54.9 15.46 54.36 15.46 53.94 15.7 53.66 16.19 53.41 16.59 53.29 17.08 53.29 17.67 53.29 18.23 53.41 18.72 53.66 19.12 53.95 19.61 54.36 19.85 54.89 19.85 55.41 19.85 55.82 19.61 56.11 19.1 56.37 18.7 56.5 18.21 56.5 17.64 56.5 17.08 56.37 16.59 56.13 16.19ZM 55.23 8.45C 55.23 8 55.06 7.65 54.63 7.65 54.31 7.65 54.09 7.88 54.01 8.12 53.98 8.19 53.97 8.29 53.97 8.38 53.97 8.38 53.97 10.25 53.97 10.25 53.97 10.25 53.17 10.25 53.17 10.25 53.17 10.25 53.17 8.02 53.17 8.02 53.17 7.65 53.16 7.35 53.14 7.07 53.14 7.07 53.84 7.07 53.84 7.07 53.84 7.07 53.88 7.55 53.88 7.55 53.88 7.55 53.9 7.55 53.9 7.55 54.04 7.3 54.38 7 54.91 7 55.46 7 56.03 7.36 56.03 8.36 56.03 8.36 56.03 10.25 56.03 10.25 56.03 10.25 55.23 10.25 55.23 10.25 55.23 10.25 55.23 8.45 55.23 8.45ZM 50.74 10.32C 49.85 10.32 49.15 9.71 49.15 8.68 49.15 7.64 49.84 7 50.79 7 51.73 7 52.36 7.67 52.36 8.63 52.36 9.8 51.54 10.32 50.74 10.32ZM 50.77 7.58C 50.21 7.58 49.98 8.14 49.98 8.66 49.98 9.28 50.28 9.74 50.77 9.74 51.22 9.74 51.54 9.3 51.54 8.65 51.54 8.15 51.32 7.58 50.77 7.58ZM 50 13.05C 50 13.05 50 14.58 50 14.58 50 14.58 51.51 14.58 51.51 14.58 51.51 14.58 51.51 15.6 51.51 15.6 51.51 15.6 50 15.6 50 15.6 50 15.6 50 18.6 50 18.6 50 19.36 50.27 19.74 50.8 19.74 51.04 19.74 51.24 19.72 51.41 19.68 51.41 19.68 51.45 20.71 51.45 20.71 51.18 20.82 50.82 20.87 50.38 20.87 49.85 20.87 49.42 20.7 49.12 20.37 48.82 20.04 48.67 19.49 48.67 18.71 48.67 18.71 48.67 15.6 48.67 15.6 48.67 15.6 47.77 15.6 47.77 15.6 47.77 15.6 47.77 14.58 47.77 14.58 47.77 14.58 48.67 14.58 48.67 14.58 48.67 14.58 48.67 13.45 48.67 13.45 48.67 13.45 50 13.05 50 13.05ZM 45.32 15.82C 46.05 16.12 46.59 16.46 46.94 16.86 47.28 17.26 47.46 17.75 47.46 18.34 47.46 19.07 47.2 19.66 46.7 20.12 46.14 20.62 45.37 20.87 44.38 20.87 43.46 20.87 42.73 20.69 42.18 20.33 42.18 20.33 42.49 19.19 42.49 19.19 43.09 19.55 43.75 19.73 44.46 19.73 44.98 19.73 45.37 19.61 45.66 19.38 45.95 19.15 46.09 18.84 46.09 18.44 46.09 18.1 45.97 17.81 45.74 17.57 45.5 17.33 45.11 17.12 44.56 16.91 43.07 16.36 42.33 15.54 42.33 14.47 42.33 13.76 42.59 13.19 43.11 12.74 43.64 12.29 44.34 12.07 45.21 12.07 45.98 12.07 46.62 12.21 47.14 12.47 47.14 12.47 46.79 13.59 46.79 13.59 46.31 13.33 45.77 13.2 45.16 13.2 44.68 13.2 44.3 13.32 44.03 13.55 43.81 13.76 43.69 14.02 43.69 14.33 43.69 14.66 43.82 14.94 44.08 15.16 44.31 15.37 44.72 15.59 45.32 15.82ZM 44.67 8.88C 44.69 9.46 45.13 9.71 45.65 9.71 46.02 9.71 46.28 9.65 46.52 9.56 46.52 9.56 46.64 10.11 46.64 10.11 46.37 10.23 45.99 10.31 45.54 10.31 44.51 10.31 43.91 9.68 43.91 8.71 43.91 7.83 44.44 7 45.45 7 46.48 7 46.82 7.85 46.82 8.55 46.82 8.7 46.8 8.81 46.79 8.88 46.79 8.88 44.67 8.88 44.67 8.88ZM 45.41 7.55C 44.91 7.55 44.71 8 44.67 8.32 44.67 8.32 46.06 8.32 46.06 8.32 46.07 8.03 45.94 7.55 45.41 7.55ZM 42.18 5.62C 42.18 5.62 42.98 5.62 42.98 5.62 42.98 5.62 42.98 10.25 42.98 10.25 42.98 10.25 42.18 10.25 42.18 10.25 42.18 10.25 42.18 5.62 42.18 5.62ZM 39.84 10.32C 39.43 10.32 39.06 10.16 38.84 9.77 38.84 9.77 38.82 9.77 38.82 9.77 38.82 9.77 38.78 10.25 38.78 10.25 38.78 10.25 38.1 10.25 38.1 10.25 38.12 10.03 38.13 9.68 38.13 9.35 38.13 9.35 38.13 5.62 38.13 5.62 38.13 5.62 38.93 5.62 38.93 5.62 38.93 5.62 38.93 7.51 38.93 7.51 38.93 7.51 38.94 7.51 38.94 7.51 39.13 7.2 39.48 7 39.95 7 40.72 7 41.28 7.65 41.27 8.61 41.27 9.75 40.55 10.32 39.84 10.32ZM 39.66 7.63C 39.34 7.63 39.04 7.86 38.95 8.21 38.94 8.27 38.93 8.34 38.93 8.42 38.93 8.42 38.93 8.94 38.93 8.94 38.93 9 38.93 9.07 38.95 9.13 39.03 9.45 39.31 9.69 39.65 9.69 40.15 9.69 40.46 9.29 40.46 8.64 40.46 8.08 40.19 7.63 39.66 7.63ZM 39.75 17.58C 39.75 18.64 39.47 19.46 38.9 20.07 38.39 20.61 37.76 20.88 37.01 20.88 36.19 20.88 35.61 20.59 35.26 20 35.26 20 35.26 23.24 35.26 23.24 35.26 23.24 33.89 23.24 33.89 23.24 33.89 23.24 33.89 16.6 33.89 16.6 33.89 15.94 33.87 15.27 33.84 14.58 33.84 14.58 35.04 14.58 35.04 14.58 35.04 14.58 35.12 15.55 35.12 15.55 35.12 15.55 35.14 15.55 35.14 15.55 35.6 14.82 36.29 14.45 37.21 14.45 37.94 14.45 38.54 14.74 39.02 15.32 39.51 15.89 39.75 16.65 39.75 17.58ZM 37.96 16.15C 37.66 15.75 37.27 15.54 36.77 15.54 36.43 15.54 36.13 15.65 35.86 15.88 35.58 16.1 35.4 16.4 35.32 16.76 35.28 16.93 35.26 17.07 35.26 17.18 35.26 17.18 35.26 18.21 35.26 18.21 35.26 18.65 35.39 19.03 35.67 19.34 35.94 19.65 36.3 19.8 36.73 19.8 37.25 19.8 37.65 19.61 37.93 19.21 38.22 18.81 38.36 18.29 38.36 17.63 38.36 17.03 38.23 16.54 37.96 16.15ZM 36.56 9.9C 36.56 9.9 36.54 9.9 36.54 9.9 36.35 10.14 36.02 10.32 35.61 10.32 34.97 10.32 34.62 9.86 34.62 9.37 34.62 8.58 35.32 8.17 36.49 8.17 36.49 8.17 36.49 8.12 36.49 8.12 36.49 7.91 36.41 7.57 35.85 7.57 35.54 7.57 35.21 7.67 35 7.8 35 7.8 34.84 7.28 34.84 7.28 35.08 7.14 35.48 7 35.98 7 37 7 37.29 7.65 37.29 8.34 37.29 8.34 37.29 9.48 37.29 9.48 37.29 9.77 37.3 10.05 37.34 10.25 37.34 10.25 36.62 10.25 36.62 10.25 36.62 10.25 36.56 9.9 36.56 9.9ZM 36.51 8.7C 35.95 8.69 35.41 8.81 35.41 9.29 35.41 9.6 35.61 9.75 35.86 9.75 36.19 9.75 36.41 9.54 36.49 9.31 36.51 9.25 36.51 9.19 36.51 9.13 36.51 9.13 36.51 8.7 36.51 8.7ZM 32.78 5.62C 32.78 5.62 33.58 5.62 33.58 5.62 33.58 5.62 33.58 10.25 33.58 10.25 33.58 10.25 32.78 10.25 32.78 10.25 32.78 10.25 32.78 5.62 32.78 5.62ZM 32.16 20.07C 31.65 20.61 31.02 20.88 30.26 20.88 29.45 20.88 28.87 20.59 28.51 20 28.51 20 28.51 23.24 28.51 23.24 28.51 23.24 27.15 23.24 27.15 23.24 27.15 23.24 27.15 16.6 27.15 16.6 27.15 15.94 27.13 15.27 27.1 14.58 27.1 14.58 28.3 14.58 28.3 14.58 28.3 14.58 28.37 15.55 28.37 15.55 28.37 15.55 28.4 15.55 28.4 15.55 28.85 14.82 29.54 14.45 30.47 14.45 31.19 14.45 31.8 14.74 32.28 15.32 32.77 15.89 33.01 16.65 33.01 17.58 33.01 18.64 32.72 19.46 32.16 20.07ZM 31.21 16.15C 30.92 15.75 30.52 15.54 30.03 15.54 29.69 15.54 29.39 15.65 29.11 15.88 28.84 16.1 28.66 16.4 28.57 16.76 28.53 16.93 28.51 17.07 28.51 17.18 28.51 17.18 28.51 18.21 28.51 18.21 28.51 18.65 28.65 19.03 28.92 19.34 29.19 19.65 29.55 19.8 29.99 19.8 30.5 19.8 30.9 19.61 31.19 19.21 31.48 18.81 31.62 18.29 31.62 17.63 31.62 17.03 31.48 16.54 31.21 16.15ZM 31.52 10.25C 31.52 10.25 30.73 10.25 30.73 10.25 30.73 10.25 30.73 7.07 30.73 7.07 30.73 7.07 31.52 7.07 31.52 7.07 31.52 7.07 31.52 10.25 31.52 10.25ZM 30.68 6.19C 30.68 5.94 30.86 5.75 31.13 5.75 31.4 5.75 31.57 5.94 31.58 6.19 31.58 6.42 31.4 6.62 31.12 6.62 30.85 6.62 30.68 6.42 30.68 6.19ZM 28.76 9.9C 28.76 9.9 28.74 9.9 28.74 9.9 28.56 10.14 28.22 10.32 27.81 10.32 27.17 10.32 26.82 9.86 26.82 9.37 26.82 8.58 27.52 8.17 28.69 8.17 28.69 8.17 28.69 8.12 28.69 8.12 28.69 7.91 28.61 7.57 28.05 7.57 27.74 7.57 27.41 7.67 27.2 7.8 27.2 7.8 27.04 7.28 27.04 7.28 27.28 7.14 27.69 7 28.19 7 29.2 7 29.49 7.65 29.49 8.34 29.49 8.34 29.49 9.48 29.49 9.48 29.49 9.77 29.5 10.05 29.54 10.25 29.54 10.25 28.82 10.25 28.82 10.25 28.82 10.25 28.76 9.9 28.76 9.9ZM 28.71 8.7C 28.15 8.69 27.61 8.81 27.61 9.29 27.61 9.6 27.81 9.75 28.06 9.75 28.39 9.75 28.61 9.54 28.69 9.31 28.71 9.25 28.71 9.19 28.71 9.13 28.71 9.13 28.71 8.7 28.71 8.7ZM 24.39 10.25C 24.39 10.25 23.21 7.07 23.21 7.07 23.21 7.07 24.08 7.07 24.08 7.07 24.08 7.07 24.59 8.68 24.59 8.68 24.68 8.96 24.74 9.22 24.8 9.48 24.8 9.48 24.82 9.48 24.82 9.48 24.88 9.22 24.95 8.97 25.04 8.68 25.04 8.68 25.54 7.07 25.54 7.07 25.54 7.07 26.38 7.07 26.38 7.07 26.38 7.07 25.17 10.25 25.17 10.25 25.17 10.25 24.39 10.25 24.39 10.25ZM 21.72 9C 21.72 9 20.34 9 20.34 9 20.34 9 19.96 10.25 19.96 10.25 19.96 10.25 19.14 10.25 19.14 10.25 19.14 10.25 20.54 5.85 20.54 5.85 20.54 5.85 21.56 5.85 21.56 5.85 21.56 5.85 22.98 10.25 22.98 10.25 22.98 10.25 22.12 10.25 22.12 10.25 22.12 10.25 21.72 9 21.72 9ZM 21.25 7.31C 21.17 7.05 21.09 6.75 21.03 6.49 21.03 6.49 21.02 6.49 21.02 6.49 20.95 6.75 20.88 7.05 20.81 7.31 20.81 7.31 20.47 8.4 20.47 8.4 20.47 8.4 21.59 8.4 21.59 8.4 21.59 8.4 21.25 7.31 21.25 7.31ZM 23.56 12.2C 23.56 12.2 26.32 20.74 26.32 20.74 26.32 20.74 24.86 20.74 24.86 20.74 24.86 20.74 24.07 18.23 24.07 18.23 24.07 18.23 21.3 18.23 21.3 18.23 21.3 18.23 20.54 20.74 20.54 20.74 20.54 20.74 19.13 20.74 19.13 20.74 19.13 20.74 21.87 12.2 21.87 12.2 21.87 12.2 23.56 12.2 23.56 12.2ZM 23.83 17.18C 23.83 17.18 23.11 14.95 23.11 14.95 23.03 14.72 22.89 14.18 22.68 13.34 22.68 13.34 22.65 13.34 22.65 13.34 22.57 13.7 22.43 14.24 22.25 14.95 22.25 14.95 21.54 17.18 21.54 17.18 21.54 17.18 23.83 17.18 23.83 17.18ZM 13.83 21.82C 13.83 21.82 7.83 21.82 7.83 21.82 7.06 21.82 6.43 21.19 6.43 20.42 6.43 20.42 6.43 7.04 6.43 7.04 6.43 6.27 7.06 5.64 7.83 5.64 7.83 5.64 13.83 5.64 13.83 5.64 14.6 5.64 15.23 6.27 15.23 7.04 15.23 7.04 15.23 20.42 15.23 20.42 15.23 21.19 14.6 21.82 13.83 21.82ZM 10.83 21.07C 11.23 21.07 11.55 20.75 11.55 20.35 11.55 19.95 11.23 19.62 10.83 19.62 10.43 19.62 10.11 19.95 10.11 20.35 10.11 20.75 10.43 21.07 10.83 21.07ZM 11.52 7.06C 11.52 7.06 10.13 7.06 10.13 7.06 10.04 7.06 9.97 7.14 9.97 7.23 9.97 7.32 10.04 7.39 10.13 7.39 10.13 7.39 11.52 7.39 11.52 7.39 11.61 7.39 11.69 7.32 11.69 7.23 11.69 7.14 11.61 7.06 11.52 7.06ZM 14.38 8.47C 14.38 8.47 7.28 8.47 7.28 8.47 7.28 8.47 7.28 19 7.28 19 7.28 19 14.38 19 14.38 19 14.38 19 14.38 8.47 14.38 8.47Z" fill="rgb(255,255,255)"/></svg>