<?xml version="1.0" encoding="utf-8"?>
<svg xmlns="http://www.w3.org/2000/svg"
	xmlns:xlink="http://www.w3.org/1999/xlink"
	width="8px" height="6px" viewBox="0 0 8 6">
<path fillRule="evenodd" d="M 7.69 1.93C 7.69 1.93 4.71 4.97 4.71 4.97 4.51 5.17 4.26 5.26 4 5.26 3.74 5.26 3.48 5.17 3.28 4.97 3.28 4.97 0.3 1.93 0.3 1.93-0.09 1.54-0.09 0.91 0.3 0.52 0.69 0.13 1.33 0.13 1.72 0.52 1.72 0.52 4 2.84 4 2.84 4 2.84 6.28 0.52 6.28 0.52 6.67 0.13 7.3 0.13 7.69 0.52 8.08 0.91 8.08 1.54 7.69 1.93Z" fill="rgb(255,255,255)"/></svg>