<?xml version="1.0" encoding="utf-8"?>
<svg xmlns="http://www.w3.org/2000/svg"
	xmlns:xlink="http://www.w3.org/1999/xlink"
	width="9px" height="14px" viewBox="0 0 9 14">
<path fillRule="evenodd" d="M 6.37 14C 6.37 14 2.62 14 2.62 14 1.18 14-0 12.82-0 11.37-0 11.37-0 3.62-0 3.62-0 2.18 1.18 1 2.62 1 2.62 1 3 1 3 1 3 1 3-0 3-0 3-0 6-0 6-0 6-0 6 1 6 1 6 1 6.37 1 6.37 1 7.82 1 9 2.18 9 3.62 9 3.62 9 11.37 9 11.37 9 12.82 7.82 14 6.37 14ZM 8 3.62C 8 2.73 7.27 2 6.37 2 6.37 2 6 2 6 2 6 2 3 2 3 2 3 2 2.62 2 2.62 2 1.73 2 1 2.73 1 3.62 1 3.62 1 11.37 1 11.37 1 12.27 1.73 13 2.62 13 2.62 13 6.37 13 6.37 13 7.27 13 8 12.27 8 11.37 8 11.37 8 3.62 8 3.62ZM 5.46 12C 5.46 12 3.54 12 3.54 12 2.69 12 2 11.31 2 10.46 2 10.46 2 7.04 2 7.04 2 7.02 2.02 7 2.04 7 2.04 7 6.96 7 6.96 7 6.98 7 7 7.02 7 7.04 7 7.04 7 10.46 7 10.46 7 11.31 6.31 12 5.46 12Z" fill="rgb(241,123,33)"/></svg>