<?xml version="1.0" encoding="utf-8"?>
<svg xmlns="http://www.w3.org/2000/svg"
	xmlns:xlink="http://www.w3.org/1999/xlink"
	width="12px" height="10px" viewBox="0 0 12 10">
<path fillRule="evenodd" d="M 12.01 3.55C 11.81 4.02 11.44 4.34 11.07 4.66 10.93 4.79 10.77 4.74 10.63 4.57 10.43 4.32 10.25 4.06 10.05 3.82 9.1 2.73 7.92 2.11 6.51 1.97 5.05 1.83 3.74 2.26 2.6 3.2 2.18 3.55 1.82 3.95 1.51 4.41 1.46 4.49 1.4 4.57 1.33 4.64 1.2 4.76 1.03 4.76 0.9 4.64 0.64 4.37 0.39 4.1 0.14 3.82-0.04 3.61-0.03 3.34 0.15 3.09 0.53 2.56 0.97 2.09 1.45 1.67 2.76 0.54 4.29 0.05 6.39-0 7.65-0.01 9.13 0.5 10.43 1.58 10.95 2.01 11.42 2.5 11.83 3.04 11.91 3.15 11.97 3.29 12.02 3.42 12.04 3.46 12.03 3.51 12.01 3.55ZM 5.28 3.97C 5.52 3.93 5.78 3.92 5.93 3.91 7.45 3.92 8.6 4.52 9.51 5.62 9.66 5.8 9.75 6.02 9.57 6.23 9.29 6.55 9.01 6.88 8.72 7.17 8.58 7.31 8.41 7.25 8.26 7.08 8.07 6.88 7.89 6.65 7.68 6.47 6.76 5.7 5.18 5.56 4.11 6.7 3.99 6.82 3.88 6.96 3.76 7.1 3.59 7.28 3.42 7.3 3.24 7.12 2.99 6.87 2.75 6.61 2.51 6.35 2.33 6.14 2.33 5.85 2.51 5.63 3.24 4.75 4.14 4.14 5.28 3.97ZM 6.03 7.59C 6.64 7.6 7.15 8.15 7.15 8.8 7.14 9.49 6.54 10.03 6 10 5.39 10 4.88 9.46 4.88 8.8 4.88 8.13 5.4 7.59 6.03 7.59Z" fill="rgb(173,173,173)"/></svg>