<?xml version="1.0" encoding="utf-8"?>
<svg xmlns="http://www.w3.org/2000/svg"
	xmlns:xlink="http://www.w3.org/1999/xlink"
	width="16px" height="13px" viewBox="0 0 16 13">
<path fillRule="evenodd" d="M 15.86 6.87C 15.8 6.95 14.21 8.76 12.02 10.01 10.89 10.65 9.46 11.01 8 11.01 7.52 11.01 6.59 10.9 6.59 10.9 6.59 10.9 7.25 9.48 7.25 9.48 7.25 9.48 7.76 9.53 8.01 9.53 9.04 9.53 10.04 9.29 10.83 8.86 12.37 8.03 13.48 6.81 13.52 6.76 13.66 6.61 13.66 6.42 13.52 6.27 13.5 6.24 12.44 5.26 12.44 5.26 12.44 5.26 13.68 4.11 13.68 4.11 13.68 4.11 15.81 6.08 15.86 6.14 16.05 6.36 16.05 6.65 15.86 6.87ZM 1.32 11.27C 1.32 11.27 13.32 0.27 13.32 0.27 13.32 0.27 14.68 1.73 14.68 1.73 14.68 1.73 2.68 12.73 2.68 12.73 2.68 12.73 1.32 11.27 1.32 11.27ZM 8.01 3.5C 6.99 3.5 5.98 3.74 5.19 4.17 3.65 5 2.54 6.22 2.5 6.27 2.36 6.42 2.36 6.61 2.5 6.76 2.52 6.79 3.37 7.59 3.37 7.59 3.37 7.59 2.04 8.68 2.04 8.68 2.04 8.68 0.18 6.92 0.13 6.87-0.06 6.65-0.06 6.36 0.13 6.14 0.2 6.06 1.78 4.24 3.97 3 5.11 2.35 6.54 2 8 2 8.55 2 9.11 2.05 9.64 2.15 9.19 2.75 8.76 3.54 8.76 3.54 8.76 3.54 8.26 3.5 8.01 3.5Z" fill="rgb(255,255,225)"/></svg>