<?xml version="1.0" encoding="utf-8"?>
<svg xmlns="http://www.w3.org/2000/svg"
	xmlns:xlink="http://www.w3.org/1999/xlink"
	width="16px" height="9px" viewBox="0 0 16 9">
<path fillRule="evenodd" d="M 15.86 4.87C 15.8 4.95 14.21 6.76 12.02 8.01 10.89 8.65 9.46 9.01 8 9.01 6.54 9.01 5.11 8.65 3.97 8.01 1.78 6.77 0.2 4.95 0.13 4.87-0.06 4.65-0.06 4.36 0.13 4.14 0.2 4.06 1.78 2.24 3.97 1 5.11 0.35 6.54-0 8-0 9.46-0 10.89 0.35 12.02 1 14.21 2.24 15.8 4.06 15.86 4.14 16.05 4.36 16.05 4.65 15.86 4.87ZM 13.52 4.27C 13.48 4.22 12.37 3 10.83 2.17 10.04 1.74 9.04 1.5 8.01 1.5 6.99 1.5 5.98 1.74 5.19 2.17 3.65 3 2.54 4.22 2.5 4.27 2.36 4.42 2.36 4.61 2.5 4.76 2.54 4.81 3.65 6.03 5.19 6.86 5.98 7.29 6.99 7.53 8.01 7.53 9.04 7.53 10.04 7.29 10.83 6.86 12.37 6.03 13.48 4.81 13.52 4.76 13.66 4.61 13.66 4.42 13.52 4.27ZM 8.02 6.03C 7.13 6.03 6.41 5.35 6.41 4.52 6.41 3.68 7.13 3 8.02 3 8.9 3 9.62 3.68 9.62 4.52 9.62 5.35 8.9 6.03 8.02 6.03Z" fill="#ffffff"/></svg>