<?xml version="1.0" encoding="utf-8"?>
<svg xmlns="http://www.w3.org/2000/svg"
	xmlns:xlink="http://www.w3.org/1999/xlink"
	width="13px" height="13px" viewBox="0 0 13 13">
<path fillRule="evenodd" d="M 4.01 12.46C 4.01 12.46 4.01 7.84 4.01 7.84 4.01 7.84 0.09 0.84 0.09 0.84-0.1 0.62-0.02 0.02 0.54-0 0.54-0 12.46-0 12.46-0 12.78-0 13.19 0.38 12.9 0.84 12.9 0.84 8.98 7.84 8.98 7.84 8.98 7.84 8.98 10.71 8.98 10.71 8.98 10.88 8.9 11.04 8.77 11.14 8.77 11.14 4.91 12.89 4.91 12.89 4.78 13.04 4.08 13.14 4.01 12.46ZM 3 2.02C 3 2.02 5.88 7.37 5.88 7.37 5.94 7.46 5.97 7.56 5.97 7.67 5.97 7.67 5.97 10.62 5.97 10.62 5.97 10.62 6.97 9.69 6.97 9.69 6.97 9.69 6.97 7.67 6.97 7.67 6.97 7.56 7 7.46 7.06 7.37 7.06 7.37 10 2.02 10 2.02 10 2.02 3 2.02 3 2.02Z" fill="#4bdcf2"/></svg>