<?xml version="1.0" encoding="utf-8"?>
<svg xmlns="http://www.w3.org/2000/svg"
	xmlns:xlink="http://www.w3.org/1999/xlink"
	width="105px" height="83px" viewBox="0 0 105 83">
<linearGradient id="linear_PSgrad_0" x1="0%" y1="42.973%" x2="100%" y2="57.027%">
    <stop offset="0%" stop-color="rgb(53,195,145)" stop-opacity="1" />
    <stop offset="61.2305%" stop-color="rgb(251,215,55)" stop-opacity="1" />
    <stop offset="100%" stop-color="rgb(239,69,129)" stop-opacity="1" />
</linearGradient>

<path fillRule="evenodd" d="M 13.13 75.41C 14.1 77.08 13.54 79.23 11.86 80.2 10.19 81.17 8.05 80.6 7.08 78.93 2.58 71.18-0 62.18-0 52.57-0 23.54 23.55-0 52.61-0 65.75-0 77.78 4.82 87 12.79 98.15 22.43 115 48.75 97 81 96.06 82.69 93.93 83.29 92.24 82.35 90.55 81.41 89.95 79.28 90.89 77.59 110.31 42.78 83.57 19.08 82.42 18.09 74.15 10.94 63.56 7 52.61 7 27.46 7 7 27.44 7 52.57 7 60.61 9.12 68.51 13.13 75.41" fill="url(#linear_PSgrad_0)"/></svg>