<?xml version="1.0" encoding="utf-8"?>
<svg xmlns="http://www.w3.org/2000/svg"
	xmlns:xlink="http://www.w3.org/1999/xlink"
	width="10px" height="14px" viewBox="0 0 10 14">
<path fillRule="evenodd" d="M 4.94 3.95C 5.01 4.07 5.08 4.19 5.16 4.31 5.38 4.67 5.62 5.03 5.85 5.4 6.27 6.05 6.67 6.68 7.03 7.31 7.55 8.23 7.75 8.99 7.65 9.7 7.47 10.91 6.66 11.73 5.41 11.95 5.24 11.99 5.06 12 4.89 12 3.62 12 2.53 11.2 2.24 10.04 2.08 9.41 2.16 8.76 2.49 8 2.7 7.53 2.97 7.02 3.29 6.5 3.52 6.11 3.78 5.73 4.03 5.35 4.3 4.95 4.57 4.55 4.82 4.14 4.86 4.08 4.9 4.01 4.94 3.95M 4.91-0C 4.35 0.95 3.71 2.04 3.05 3.12 2.55 3.92 2 4.68 1.51 5.48 1.17 6.04 0.85 6.62 0.59 7.22 0.13 8.28-0.06 9.38 0.23 10.52 0.76 12.59 2.71 14 4.89 14 5.19 14 5.49 13.97 5.79 13.92 7.91 13.54 9.4 12.05 9.69 9.97 9.88 8.67 9.48 7.47 8.85 6.35 8.25 5.3 7.56 4.3 6.93 3.28 6.22 2.14 5.52 1 4.91-0 4.91-0 4.91-0 4.91-0Z" fill="rgb(173,173,173)"/></svg>