<?xml version="1.0" encoding="utf-8"?>
<svg xmlns="http://www.w3.org/2000/svg"
	xmlns:xlink="http://www.w3.org/1999/xlink"
	width="12px" height="12px" viewBox="0 0 12 12">
<path fillRule="evenodd" d="M 6 12C 2.69 12-0 9.31-0 6-0 2.69 2.69-0 6-0 9.31-0 12 2.69 12 6 12 9.31 9.31 12 6 12ZM 6 1.41C 3.47 1.41 1.41 3.47 1.41 6 1.41 8.53 3.47 10.59 6 10.59 8.53 10.59 10.59 8.53 10.59 6 10.59 3.47 8.53 1.41 6 1.41ZM 6 9C 5.59 9 5.25 8.66 5.25 8.25 5.25 8.25 5.25 6 5.25 6 5.25 5.59 5.59 5.25 6 5.25 6.41 5.25 6.75 5.59 6.75 6 6.75 6 6.75 8.25 6.75 8.25 6.75 8.66 6.41 9 6 9ZM 6 4.5C 5.59 4.5 5.25 4.16 5.25 3.75 5.25 3.34 5.59 3 6 3 6.41 3 6.75 3.34 6.75 3.75 6.75 4.16 6.41 4.5 6 4.5Z" fill="#ffffff"/></svg>