<?xml version="1.0" encoding="utf-8"?>
<svg xmlns="http://www.w3.org/2000/svg"
	xmlns:xlink="http://www.w3.org/1999/xlink"
	width="14px" height="14px" viewBox="0 0 14 14">
<path fillRule="evenodd" d="M 13 8C 13 8 11.33 8 11.33 8 10.78 8 10.33 7.55 10.33 7 10.33 6.45 10.78 6 11.33 6 11.33 6 13 6 13 6 13.55 6 14 6.45 14 7 14 7.55 13.55 8 13 8ZM 10.77 4.64C 10.58 4.84 10.32 4.94 10.06 4.94 9.81 4.94 9.55 4.84 9.36 4.64 8.97 4.25 8.97 3.62 9.36 3.23 9.36 3.23 10.54 2.05 10.54 2.05 10.93 1.66 11.56 1.66 11.95 2.05 12.34 2.44 12.34 3.08 11.95 3.46 11.95 3.46 10.77 4.64 10.77 4.64ZM 7 9C 5.9 9 5 8.1 5 7 5 5.9 5.9 5 7 5 8.1 5 9 5.9 9 7 9 8.1 8.1 9 7 9ZM 7 3.67C 6.45 3.67 6 3.22 6 2.67 6 2.67 6 1 6 1 6 0.45 6.45-0 7-0 7.55-0 8 0.45 8 1 8 1 8 2.67 8 2.67 8 3.22 7.55 3.67 7 3.67ZM 3.46 11.95C 3.27 12.14 3.01 12.24 2.76 12.24 2.5 12.24 2.24 12.14 2.05 11.95 1.66 11.56 1.66 10.92 2.05 10.54 2.05 10.54 3.23 9.36 3.23 9.36 3.62 8.97 4.25 8.97 4.64 9.36 5.03 9.75 5.03 10.38 4.64 10.77 4.64 10.77 3.46 11.95 3.46 11.95ZM 3.94 4.94C 3.68 4.94 3.42 4.84 3.23 4.64 3.23 4.64 2.05 3.46 2.05 3.46 1.66 3.08 1.66 2.44 2.05 2.05 2.44 1.66 3.07 1.66 3.46 2.05 3.46 2.05 4.64 3.23 4.64 3.23 5.03 3.62 5.03 4.25 4.64 4.64 4.45 4.84 4.19 4.94 3.94 4.94ZM 3.67 7C 3.67 7.55 3.22 8 2.67 8 2.67 8 1 8 1 8 0.45 8-0 7.55-0 7-0 6.45 0.45 6 1 6 1 6 2.67 6 2.67 6 3.22 6 3.67 6.45 3.67 7ZM 7 10.33C 7.55 10.33 8 10.78 8 11.33 8 11.33 8 13 8 13 8 13.55 7.55 14 7 14 6.45 14 6 13.55 6 13 6 13 6 11.33 6 11.33 6 10.78 6.45 10.33 7 10.33ZM 10.77 9.36C 10.77 9.36 11.95 10.54 11.95 10.54 12.34 10.92 12.34 11.56 11.95 11.95 11.75 12.14 11.5 12.24 11.24 12.24 10.99 12.24 10.73 12.14 10.54 11.95 10.54 11.95 9.36 10.77 9.36 10.77 8.97 10.38 8.97 9.75 9.36 9.36 9.75 8.97 10.38 8.97 10.77 9.36Z" fill="rgb(173,173,173)"/></svg>