<?xml version="1.0" encoding="utf-8"?>
<svg xmlns="http://www.w3.org/2000/svg"
	xmlns:xlink="http://www.w3.org/1999/xlink"
	width="9px" height="13px" viewBox="0 0 9 13">
<path fillRule="evenodd" d="M 4.5 13C 2.02 13-0 10.98-0 8.5-0 8.5-0 4-0 4-0 3.45 0.45 3 1 3 1.55 3 2 3.45 2 4 2 4 2 8.5 2 8.5 2 9.88 3.12 11 4.5 11 5.88 11 7 9.88 7 8.5 7 8.5 7 4 7 4 7 3.45 7.45 3 8 3 8.55 3 9 3.45 9 4 9 4 9 8.5 9 8.5 9 10.98 6.98 13 4.5 13ZM 7-0C 7-0 9-0 9-0 9-0 9 2 9 2 9 2 7 2 7 2 7 2 7-0 7-0ZM-0-0C-0-0 2-0 2-0 2-0 2 2 2 2 2 2-0 2-0 2-0 2-0-0-0-0Z" fill="rgb(173,173,173)"/></svg>