<?xml version="1.0" encoding="utf-8"?>
<svg xmlns="http://www.w3.org/2000/svg"
	xmlns:xlink="http://www.w3.org/1999/xlink"
	width="20px" height="14px" viewBox="0 0 20 14">
<path fillRule="evenodd" d="M 19.84 9.92C 19.77 10.98 19.51 12 19.16 13 19.08 13.23 18.97 13.31 18.73 13.3 18.39 13.28 18.05 13.28 17.71 13.3 17.45 13.31 17.37 13.2 17.38 12.96 17.39 12.56 17.38 12.16 17.38 11.74 16.94 11.74 16.51 11.74 16.05 11.74 16.05 11.86 16.09 14 16.09 14 16.09 14 12.02 13.97 11.16 13.99 10.88 14 10.71 13.9 10.55 13.69 10.15 13.2 9.8 13.04 9.41 12.54 9.27 12.36 8.88 12.33 8.88 12.33 8.88 12.33 5.85 12.36 5.85 12.36 5.85 12.36 4.73 12.5 4.73 11.9 4.73 11.64 4.74 10.89 4.74 10 4.74 10 2.97 10 2.97 10 2.97 10 2.97 13 2.97 13 2.97 13.55 2.52 14 1.96 14 1.4 14 0.95 13.55 0.95 13 0.95 13 0.95 5 0.95 5 0.95 4.45 1.4 4 1.96 4 2.52 4 2.97 4.45 2.97 5 2.97 5 2.97 8 2.97 8 2.97 8 4.74 8 4.74 8 4.74 6.97 4.74 6.06 4.73 5.78 4.72 5.49 4.81 5.39 5.11 5.4 5.66 5.41 6.21 5.4 6.81 5.4 6.81 5.05 6.83 4.73 6.81 4.41 6.79 4.11 6.89 3.99 7.2 4 7.38 4.01 8.12 4.01 9.03 4.01 9.03 4.01 9.03 4.01 9.03 4 9.03 4 9.03 2 9.03 2 9.03 2 6 2 6 2 5.44 2 4.99 1.55 4.99 1 4.99 0.45 5.44-0 6-0 6-0 11.29-0 11.29-0 11.28 0.02 11.27 0.03 11.27 0.05 11.14 0.59 11.01 1.13 10.87 1.67 10.87 1.67 10.77 2.08 10.77 2.08 10.77 2.08 10.36 3.75 10.36 3.75 10.36 3.75 10.1 4.8 10.1 4.8 10.1 4.8 10.03 5.09 10.03 5.09 10.03 5.09 9.96 5.37 9.96 5.37 9.79 6.07 10.14 6.72 10.81 6.92 10.94 6.96 11.09 6.98 11.24 6.98 11.37 6.98 11.5 6.96 11.63 6.93 11.96 6.85 12.3 6.77 12.63 6.69 12.63 6.69 12.13 8.71 12.13 8.71 12.13 8.71 12.01 9.21 12.01 9.21 12.01 9.21 11.73 10.36 11.73 10.36 11.57 10.99 11.85 11.39 12.03 11.57 12.16 11.71 12.29 11.78 12.36 11.82 12.53 11.93 12.72 11.99 12.92 11.99 12.92 11.99 13.08 11.99 13.08 11.99 13.21 11.99 13.34 11.96 13.47 11.91 13.97 11.7 14.17 11.27 14.24 11.13 14.24 11.13 15.1 9.3 15.1 9.3 15.1 9.3 15.17 9.15 15.17 9.15 15.17 9.15 15.84 7.72 15.84 7.72 15.84 7.72 16.01 7.37 16.01 7.37 16.01 7.37 16.08 7.23 16.08 7.23 16.08 7.23 16.09 7.2 16.09 7.2 16.52 7.2 16.93 7.2 17.38 7.2 17.38 6.84 17.39 6.47 17.38 6.11 17.37 5.92 17.51 5.77 17.71 5.77 18.04 5.78 18.37 5.79 18.7 5.77 18.9 5.76 19.09 5.86 19.17 6.03 19.76 7.27 19.93 8.58 19.84 9.92ZM 16.61 3.73C 16.39 4.19 16.18 4.65 15.96 5.11 15.67 5.72 15.38 6.33 15.1 6.94 14.82 7.54 14.53 8.13 14.25 8.73 13.94 9.39 13.63 10.05 13.32 10.71 13.27 10.83 13.2 10.93 13.08 10.99 13.02 10.99 12.97 10.99 12.92 10.99 12.86 10.95 12.8 10.93 12.76 10.88 12.68 10.8 12.68 10.7 12.71 10.6 12.85 10.05 12.98 9.5 13.12 8.95 13.31 8.15 13.51 7.36 13.7 6.56 13.8 6.18 13.89 5.8 13.98 5.42 13.99 5.39 14 5.36 14 5.32 13.85 5.35 13.72 5.39 13.58 5.42 12.85 5.6 12.12 5.78 11.39 5.96 11.34 5.97 11.29 5.98 11.24 5.98 11.19 5.98 11.14 5.97 11.1 5.96 10.95 5.91 10.9 5.78 10.94 5.61 10.99 5.42 11.03 5.23 11.08 5.04 11.3 4.13 11.53 3.22 11.75 2.32 11.92 1.64 12.09 0.96 12.25 0.28 12.28 0.14 12.36 0.05 12.49-0 13.27-0 14.05-0 14.83-0 14.86 0.02 14.9 0.04 14.93 0.06 15.04 0.13 15.07 0.24 15.03 0.37 14.8 0.98 14.57 1.59 14.34 2.21 14.19 2.6 14.05 2.99 13.9 3.38 13.9 3.4 13.89 3.42 13.89 3.45 14.02 3.42 14.13 3.39 14.25 3.36 14.98 3.18 15.71 3 16.44 2.82 16.5 2.81 16.55 2.8 16.61 2.8 16.66 2.8 16.71 2.81 16.76 2.85 16.88 2.93 16.92 3.04 16.87 3.17 16.79 3.36 16.7 3.55 16.61 3.73Z" fill="rgb(241,123,33)"/></svg>