<?xml version="1.0" encoding="utf-8"?>
<svg xmlns="http://www.w3.org/2000/svg"
	xmlns:xlink="http://www.w3.org/1999/xlink"
	width="14px" height="12px" viewBox="0 0 14 12">
<path fillRule="evenodd" d="M 14 4C 14 4 13 4 13 4 13 4 13 12 13 12 13 12 11 12 11 12 11 12 11 4 11 4 11 4 10 4 10 4 10 4 10 2 10 2 10 2 11 2 11 2 11 2 11-0 11-0 11-0 13-0 13-0 13-0 13 2 13 2 13 2 14 2 14 2 14 2 14 4 14 4ZM 8 12C 8 12 6 12 6 12 6 12 6 9 6 9 6 9 5 9 5 9 5 9 5 7 5 7 5 7 6 7 6 7 6 7 6-0 6-0 6-0 8-0 8-0 8-0 8 7 8 7 8 7 9 7 9 7 9 7 9 9 9 9 9 9 8 9 8 9 8 9 8 12 8 12ZM 3 12C 3 12 1 12 1 12 1 12 1 6 1 6 1 6-0 6-0 6-0 6-0 4-0 4-0 4 1 4 1 4 1 4 1-0 1-0 1-0 3-0 3-0 3-0 3 4 3 4 3 4 4 4 4 4 4 4 4 6 4 6 4 6 3 6 3 6 3 6 3 12 3 12Z" fill="#d4d4d4"/></svg>