<?xml version="1.0" encoding="utf-8"?>
<svg xmlns="http://www.w3.org/2000/svg"
	xmlns:xlink="http://www.w3.org/1999/xlink"
	width="19px" height="12px" viewBox="0 0 19 12">
<path fillRule="evenodd" d="M 16.4 6C 16.4 6 18.72 8.29 18.72 8.29 19.1 8.69 19.1 9.32 18.72 9.71 18.33 10.11 17.7 10.11 17.31 9.71 17.31 9.71 14.28 6.72 14.28 6.72 14.09 6.52 13.99 6.26 13.99 6 13.99 5.74 14.09 5.48 14.28 5.28 14.28 5.28 17.31 2.29 17.31 2.29 17.7 1.89 18.33 1.89 18.72 2.29 19.1 2.68 19.1 3.31 18.72 3.71 18.72 3.71 16.4 6 16.4 6ZM 11 12C 10.45 12 10 11.55 10 11 10 11 10 1 10 1 10 0.45 10.45-0 11-0 11.55-0 12 0.45 12 1 12 1 12 11 12 11 12 11.55 11.55 12 11 12ZM 8 12C 7.45 12 7 11.55 7 11 7 11 7 1 7 1 7 0.45 7.45-0 8-0 8.55-0 9 0.45 9 1 9 1 9 11 9 11 9 11.55 8.55 12 8 12ZM 4.72 6.72C 4.72 6.72 1.69 9.71 1.69 9.71 1.3 10.11 0.67 10.11 0.28 9.71-0.11 9.32-0.11 8.69 0.28 8.29 0.28 8.29 2.6 6 2.6 6 2.6 6 0.28 3.71 0.28 3.71-0.11 3.31-0.11 2.68 0.28 2.29 0.67 1.89 1.3 1.89 1.69 2.29 1.69 2.29 4.72 5.28 4.72 5.28 4.91 5.48 5.01 5.74 5.01 6 5.01 6.26 4.91 6.52 4.72 6.72Z" fill="#e6f6f9"/></svg>