<svg xmlns="http://www.w3.org/2000/svg"  	width="14px" height="12px" viewBox="0 0 14 12">
  <defs>
    <style>
      .cls-1 {
        fill: #f04f88;
      }
    </style>
  </defs>
  <path id="Shape_22" data-name="Shape 22" class="cls-1" d="M718.278,665.992,730,655.349l1.325,1.422L719.6,667.414Zm6.524.71a1.165,1.165,0,0,1,.028-2.327,1.153,1.153,0,0,1,1.092,1.169,1.169,1.169,0,0,1-1.078,1.159Zm2.206-2.822a6.455,6.455,0,0,0-.568-.595,2.526,2.526,0,0,0-.5-.311l1.438-1.305a4.949,4.949,0,0,1,.855.8.422.422,0,0,1,.053.59c-.268.31-.539.621-.83.91a.225.225,0,0,1-.162.073A.418.418,0,0,1,727.008,663.88Zm2.318-2.43c-.193-.24-.369-.5-.573-.73-.05-.058-.11-.1-.162-.155l1.356-1.232c.191.205.376.415.548.639a1.767,1.767,0,0,1,.189.365.176.176,0,0,1-.009.126,3.193,3.193,0,0,1-.919,1.074.255.255,0,0,1-.169.07A.355.355,0,0,1,729.327,661.451Zm-9.5.063c-.254-.256-.506-.516-.743-.787a.535.535,0,0,1,.013-.714,7.906,7.906,0,0,1,1.269-1.372,7.154,7.154,0,0,1,4.82-1.614,5.209,5.209,0,0,1,1.317.188l-1.894,1.72a5.134,5.134,0,0,0-3.123,1.189,5.309,5.309,0,0,0-1.06,1.166,1.312,1.312,0,0,1-.183.226.31.31,0,0,1-.209.089A.288.288,0,0,1,719.824,661.513Z" transform="translate(-718.278 -655.349)"/>
</svg>
