<?xml version="1.0" encoding="utf-8"?>
<svg xmlns="http://www.w3.org/2000/svg"
	xmlns:xlink="http://www.w3.org/1999/xlink"
	width="14px" height="14px" viewBox="0 0 14 14">
<path fillRule="evenodd" d="M 1.95 13.88C 1.95 13.88 0.63 12.44 0.63 12.44 0.63 12.44 12.35 1.61 12.35 1.61 12.35 1.61 13.68 3.05 13.68 3.05 13.68 3.05 1.95 13.88 1.95 13.88ZM 9.59 0.85C 9.59 0.85 11.55 0.85 11.55 0.85 11.55 0.85 11.55 1.01 11.55 1.01 11.55 1.01 9.59 2.82 9.59 2.82 9.59 2.82 9.59 0.85 9.59 0.85ZM 2.76 4.79C 2.76 4.25 3.19 3.81 3.73 3.81 4.27 3.81 4.71 4.25 4.71 4.79 4.71 4.79 4.71 7.33 4.71 7.33 4.71 7.33 2.76 9.14 2.76 9.14 2.76 9.14 2.76 4.79 2.76 4.79ZM 2.76 0.85C 2.76 0.85 4.71 0.85 4.71 0.85 4.71 0.85 4.71 2.82 4.71 2.82 4.71 2.82 2.76 2.82 2.76 2.82 2.76 2.82 2.76 0.85 2.76 0.85ZM 7.15 11.68C 8.5 11.68 9.59 10.58 9.59 9.22 9.59 9.22 9.59 8.16 9.59 8.16 9.59 8.16 11.55 6.35 11.55 6.35 11.55 6.35 11.55 9.22 11.55 9.22 11.55 11.66 9.58 13.65 7.15 13.65 6.19 13.65 5.3 13.33 4.58 12.8 4.58 12.8 6.07 11.42 6.07 11.42 6.4 11.58 6.76 11.68 7.15 11.68Z" fill="rgb(173,173,173)"/></svg>