<?xml version="1.0" encoding="utf-8"?>
<svg xmlns="http://www.w3.org/2000/svg"
	xmlns:xlink="http://www.w3.org/1999/xlink"
	width="20px" height="14px" viewBox="0 0 20 14">
<path fillRule="evenodd" d="M 19.18 6.03C 19.1 5.86 18.91 5.76 18.71 5.77 18.38 5.79 18.05 5.78 17.71 5.77 17.52 5.77 17.38 5.92 17.39 6.11 17.4 6.47 17.39 6.84 17.39 7.2 16.92 7.2 16.5 7.2 16.05 7.2 16.05 6.78 16.06 6.38 16.05 5.99 16.05 5.38 16.14 5.39 15.44 5.4 14.84 5.4 14.24 5.4 13.61 5.4 13.61 5.03 13.6 4.7 13.62 4.38 13.64 4.08 13.51 3.99 13.23 4 12.99 4.01 12.09 4.01 11.05 4.01 11.05 4.01 11.05 4 11.05 4 11.05 4 11.05 2 11.05 2 11.05 2 14.08 2 14.08 2 14.64 2 15.09 1.55 15.09 1 15.09 0.45 14.64-0 14.08-0 14.08-0 6-0 6-0 5.45-0 4.99 0.45 4.99 1 4.99 1.55 5.45 2 6 2 6 2 9.03 2 9.03 2 9.03 2 9.03 4 9.03 4 9.03 4 9.04 4.01 9.04 4.01 8.13 4.01 7.39 4.01 7.21 4 6.9 3.99 6.8 4.11 6.81 4.41 6.83 4.73 6.82 5.05 6.82 5.4 6.22 5.4 5.67 5.41 5.12 5.4 4.82 5.39 4.73 5.49 4.74 5.78 4.74 6.06 4.75 6.97 4.75 8 4.75 8 2.98 8 2.98 8 2.98 8 2.98 5 2.98 5 2.98 4.45 2.52 4 1.97 4 1.41 4 0.96 4.45 0.96 5 0.96 5 0.96 13 0.96 13 0.96 13.55 1.41 14 1.97 14 2.52 14 2.98 13.55 2.98 13 2.98 13 2.98 10 2.98 10 2.98 10 4.74 10 4.74 10 4.74 10.89 4.74 11.64 4.74 11.9 4.74 12.5 5.86 12.36 5.86 12.36 5.86 12.36 8.89 12.33 8.89 12.33 8.89 12.33 9.27 12.36 9.42 12.54 9.81 13.04 10.16 13.2 10.55 13.69 10.72 13.9 10.89 14 11.17 13.99 12.03 13.97 16.1 14 16.1 14 16.1 14 16.05 11.86 16.05 11.74 16.52 11.74 16.95 11.74 17.39 11.74 17.39 12.16 17.4 12.56 17.39 12.96 17.38 13.2 17.46 13.31 17.71 13.3 18.05 13.28 18.4 13.28 18.74 13.3 18.98 13.31 19.09 13.23 19.17 13 19.51 12 19.78 10.98 19.85 9.92 19.94 8.58 19.76 7.27 19.18 6.03Z" fill="rgb(53,195,145)"/></svg>