<svg id="Add_New_Massege" xmlns="http://www.w3.org/2000/svg" width="25" height="14" viewBox="0 0 25 14">
  <metadata><?xpacket begin="﻿" id="W5M0MpCehiHzreSzNTczkc9d"?>
<x:xmpmeta xmlns:x="adobe:ns:meta/" x:xmptk="Adobe XMP Core 5.6-c142 79.160924, 2017/07/13-01:06:39        ">
   <rdf:RDF xmlns:rdf="http://www.w3.org/1999/02/22-rdf-syntax-ns#">
      <rdf:Description rdf:about=""/>
   </rdf:RDF>
</x:xmpmeta>
                                                                                                    
                                                                                                    
                                                                                                    
                                                                                                    
                                                                                                    
                                                                                                    
                                                                                                    
                                                                                                    
                                                                                                    
                                                                                                    
                                                                                                    
                                                                                                    
                                                                                                    
                                                                                                    
                                                                                                    
                                                                                                    
                                                                                                    
                                                                                                    
                                                                                                    
                                                                                                    
                           
<?xpacket end="w"?></metadata>
<defs>
    <style>
      .cls-1 {
        fill: none;
        stroke: #d4d4d4;
        stroke-width: 2px;
      }

      .cls-1, .cls-2 {
        fill-rule: evenodd;
      }

      .cls-2 {
        fill: #d4d4d4;
      }
    </style>
  </defs>
  <path id="Shape_3_copy" data-name="Shape 3 copy" class="cls-1" d="M514,448h14v9h-6l-6,3v-3h-2v-9Zm-5,7h-2v-2h-2v-2h2v-2h2v2h2v2h-2v2Z" transform="translate(-504 -447)"/>
  <path class="cls-1" d="M514,448.545a0.565,0.565,0,0,1,.583-0.545h12.834a0.565,0.565,0,0,1,.583.545v8.182a0.566,0.566,0,0,1-.583.546h-6.25a0.585,0.585,0,0,0-.309.083l-3.632,2.122a0.6,0.6,0,0,1-.592.015,0.528,0.528,0,0,1-.3-0.477v-1.2a0.565,0.565,0,0,0-.583-0.545h-1.167a0.566,0.566,0,0,1-.583-0.546v-8.182Z" transform="translate(-504 -447)"/>
  <path class="cls-2" d="M518,451h6v1h-6v-1Zm0,2h6v1h-6v-1Z" transform="translate(-504 -447)"/>
</svg>
