<?xml version="1.0" encoding="utf-8"?>
<svg xmlns="http://www.w3.org/2000/svg"
	xmlns:xlink="http://www.w3.org/1999/xlink"
	width="14px" height="13px" viewBox="0 0 14 13">
<path fillRule="evenodd" d="M 13.6 8.32C 13.6 8.32 9.82 12.1 9.82 12.1 9.82 12.1 9.54 11.82 9.54 11.82 9.38 11.92 9.2 12 9 12 8.45 12 8 11.55 8 11 8 11 8 2 8 2 8 1.45 8.45 1 9 1 9.55 1 10 1.45 10 2 10 2 10 9.09 10 9.09 10 9.09 12.18 6.9 12.18 6.9 12.18 6.9 13.6 8.32 13.6 8.32ZM 5 12C 4.45 12 4 11.55 4 11 4 11 4 3.91 4 3.91 4 3.91 1.82 6.1 1.82 6.1 1.82 6.1 0.4 4.68 0.4 4.68 0.4 4.68 4.18 0.9 4.18 0.9 4.18 0.9 4.46 1.18 4.46 1.18 4.62 1.08 4.8 1 5 1 5.55 1 6 1.45 6 2 6 2 6 11 6 11 6 11.55 5.55 12 5 12Z" fill="#4bdcf2"/></svg>