<?xml version="1.0" encoding="utf-8"?>
<svg xmlns="http://www.w3.org/2000/svg"
	xmlns:xlink="http://www.w3.org/1999/xlink"
	width="7px" height="14px" viewBox="0 0 7 14">
<path fillRule="evenodd" d="M 3.5 2C 3.78 2 4 2.22 4 2.5 4 2.5 4 8.06 4 8.06 4 8.06 4 8.87 4 8.87 4 8.87 4.57 9.45 4.57 9.45 4.85 9.74 5 10.11 5 10.5 5 11.33 4.33 12 3.5 12 2.67 12 2 11.33 2 10.5 2 10.11 2.15 9.74 2.43 9.45 2.43 9.45 3 8.87 3 8.87 3 8.87 3 8.06 3 8.06 3 8.06 3 2.5 3 2.5 3 2.22 3.22 2 3.5 2M 3.5-0C 2.12-0 1 1.12 1 2.5 1 2.5 1 8.06 1 8.06 0.38 8.69-0 9.55-0 10.5-0 12.43 1.57 14 3.5 14 5.43 14 7 12.43 7 10.5 7 9.55 6.62 8.69 6 8.06 6 8.06 6 2.5 6 2.5 6 1.12 4.88-0 3.5-0 3.5-0 3.5-0 3.5-0Z" fill="rgb(173,173,173)"/></svg>