<?xml version="1.0" encoding="utf-8"?>
<svg xmlns="http://www.w3.org/2000/svg"
	xmlns:xlink="http://www.w3.org/1999/xlink"
	width="13px" height="14px" viewBox="0 0 13 14">
<path fillRule="evenodd" d="M 12.69 4.05C 12.69 4.05 11.9 6.58 11.9 6.58 11.81 6.86 11.62 7.09 11.36 7.21 11.22 7.27 11.08 7.3 10.94 7.3 10.8 7.3 10.67 7.28 10.54 7.22 10.54 7.22 8.06 6.13 8.06 6.13 7.54 5.91 7.3 5.3 7.52 4.77 7.75 4.25 8.34 4.01 8.85 4.23 8.85 4.23 9.23 4.4 9.23 4.4 8.97 3.97 8.63 3.61 8.21 3.34 7.47 2.87 6.61 2.73 5.77 2.93 4.78 3.16 3.97 3.85 3.56 4.8 3.33 5.32 2.73 5.56 2.22 5.32 1.71 5.09 1.48 4.48 1.71 3.96 2.38 2.41 3.7 1.3 5.31 0.91 6.67 0.59 8.08 0.82 9.27 1.58 9.93 2 10.47 2.56 10.88 3.21 11.12 2.81 11.58 2.6 12.03 2.75 12.57 2.92 12.86 3.51 12.69 4.05ZM 2.3 5.96C 2.58 5.92 2.87 6 3.09 6.18 3.09 6.18 5.2 7.91 5.2 7.91 5.63 8.27 5.7 8.92 5.35 9.36 5.04 9.77 4.5 9.84 4.07 9.6 4.33 10.15 4.74 10.62 5.26 10.95 5.99 11.42 6.86 11.56 7.7 11.36 8.98 11.06 9.94 10 10.15 8.68 10.24 8.12 10.75 7.73 11.31 7.82 11.86 7.92 12.23 8.45 12.15 9.01 11.8 11.16 10.24 12.88 8.16 13.38 7.76 13.47 7.35 13.52 6.95 13.52 5.99 13.52 5.04 13.25 4.2 12.71 3.09 12.01 2.31 10.93 1.95 9.66 1.95 9.66 1.88 9.78 1.88 9.78 1.68 10.08 1.36 10.24 1.03 10.24 0.84 10.24 0.65 10.19 0.48 10.07 0.01 9.76-0.12 9.12 0.19 8.64 0.19 8.64 1.62 6.42 1.62 6.42 1.77 6.18 2.02 6.01 2.3 5.96Z" fill="rgb(173,173,173)"/></svg>