<?xml version="1.0" encoding="utf-8"?>
<svg xmlns="http://www.w3.org/2000/svg"
	xmlns:xlink="http://www.w3.org/1999/xlink"
	width="20px" height="12px" viewBox="0 0 20 12">
<path fillRule="evenodd" d="M 19.8 6.48C 19.71 6.58 17.74 9 15.01 10.65 13.59 11.51 11.81 11.98 9.98 11.98 8.16 11.98 6.37 11.51 4.95 10.65 2.23 9 0.25 6.58 0.17 6.48-0.07 6.18-0.07 5.79 0.17 5.5 0.25 5.4 2.23 2.98 4.95 1.33 6.37 0.47 8.16-0 9.98-0 11.81-0 13.59 0.47 15.01 1.33 17.74 2.98 19.71 5.4 19.8 5.5 20.04 5.79 20.04 6.18 19.8 6.48ZM 16.88 5.68C 16.82 5.61 15.43 3.99 13.52 2.89 12.53 2.31 11.28 2 10 2 8.72 2 7.47 2.31 6.47 2.89 4.56 3.99 3.18 5.61 3.12 5.68 2.95 5.87 2.95 6.13 3.12 6.33 3.18 6.4 4.56 8.01 6.47 9.12 7.47 9.69 8.72 10.01 10 10.01 11.28 10.01 12.53 9.69 13.52 9.12 15.43 8.01 16.82 6.4 16.88 6.33 17.05 6.13 17.05 5.87 16.88 5.68ZM 10 8C 8.9 8 8 7.1 8 6 8 4.9 8.9 4 10 4 11.1 4 12 4.9 12 6 12 7.1 11.1 8 10 8Z" fill="rgb(19,45,73)"/></svg>