<svg xmlns="http://www.w3.org/2000/svg" width="16" height="16" viewBox="0 0 16 16">
  <metadata><?xpacket begin="﻿" id="W5M0MpCehiHzreSzNTczkc9d"?>
<x:xmpmeta xmlns:x="adobe:ns:meta/" x:xmptk="Adobe XMP Core 5.6-c142 79.160924, 2017/07/13-01:06:39        ">
   <rdf:RDF xmlns:rdf="http://www.w3.org/1999/02/22-rdf-syntax-ns#">
      <rdf:Description rdf:about=""/>
   </rdf:RDF>
</x:xmpmeta>
                                                                                                    
                                                                                                    
                                                                                                    
                                                                                                    
                                                                                                    
                                                                                                    
                                                                                                    
                                                                                                    
                                                                                                    
                                                                                                    
                                                                                                    
                                                                                                    
                                                                                                    
                                                                                                    
                                                                                                    
                                                                                                    
                                                                                                    
                                                                                                    
                                                                                                    
                                                                                                    
                           
<?xpacket end="w"?></metadata>
<defs>
    <style>
      .cls-1 {
        fill: #193c66;
        fill-rule: evenodd;
      }
    </style>
  </defs>
  <path id="calender" class="cls-1" d="M522,607v-9a3,3,0,0,1,3-3h1v-0.5a0.5,0.5,0,0,1,.5-0.5h1a0.5,0.5,0,0,1,.5.5V595h2v-0.5a0.5,0.5,0,0,1,.5-0.5h1a0.5,0.5,0,0,1,.5.5V595h1a3,3,0,0,1,3,3v9H522Zm12-8c0-1.657-.344-2-2-2v0.5a0.5,0.5,0,0,1-.5.5h-1a0.5,0.5,0,0,1-.5-0.5V597h-2v0.5a0.5,0.5,0,0,1-.5.5h-1a0.5,0.5,0,0,1-.5-0.5V597a3,3,0,0,0-1,0c-1.163.413-1,.7-1,2v6h10v-6Zm-7,3v2h-2v-2h2Zm3-1h-2v-2h2v2Zm0,3h-2v-2h2v2Zm3-3h-2v-2h2v2Zm0,3h-2v-2h2v2Zm-8-3v-2h2v2h-2Z" transform="translate(-521 -592.5)"/>
</svg>
