<svg xmlns="http://www.w3.org/2000/svg"
	xmlns:xlink="http://www.w3.org/1999/xlink"
	width="26px" height="12px" viewBox="0 0 26 12">
<path fillRule="evenodd" d="M 24.29 4.79C 23.84 4.64 20.71 3.95 20.71 3.95 20.71 3.95 14.9 0.66 14.2 0.66 13.51 0.66 8.73 0.66 8.73 0.66 7.56 0.66 6.58 1.55 5.45 2.58 4.92 3.06 4.33 3.59 3.68 4.07 3.68 4.07 1.27 4.39 1.27 4.39 0.92 4.5 0.67 4.83 0.67 5.21 0.67 5.21 0.67 7.97 0.67 7.97 0.67 8.45 1.05 8.84 1.53 8.84 1.53 8.84 3.19 8.84 3.19 8.84 3.31 10.22 4.48 11.32 5.9 11.32 7.32 11.32 8.49 10.22 8.61 8.84 8.61 8.84 16.53 8.84 16.53 8.84 16.65 10.22 17.82 11.32 19.24 11.32 20.66 11.32 21.83 10.22 21.95 8.84 21.95 8.84 23.31 8.84 23.31 8.84 24.39 8.84 24.92 8.37 25.05 7.93 25.39 6.83 25.15 5.07 24.29 4.79ZM 5.9 10.01C 5.12 10.01 4.49 9.38 4.49 8.6 4.49 7.83 5.12 7.19 5.9 7.19 6.68 7.19 7.31 7.83 7.31 8.6 7.31 9.38 6.68 10.01 5.9 10.01ZM 11.13 3.95C 11.13 3.95 6.4 3.95 6.4 3.95 6.75 3.68 7.06 3.4 7.35 3.13 8.12 2.44 8.78 1.84 9.57 1.84 9.57 1.84 10.29 1.84 11.13 1.83 11.13 1.83 11.13 3.95 11.13 3.95 11.13 3.95 11.13 3.95 11.13 3.95ZM 12.28 1.83C 12.87 1.83 13.39 1.83 13.65 1.83 14.3 1.83 16.94 3.37 17.93 3.95 17.93 3.95 12.28 3.95 12.28 3.95 12.28 3.95 12.28 1.83 12.28 1.83 12.28 1.83 12.28 1.83 12.28 1.83ZM 19.24 10.01C 18.46 10.01 17.83 9.38 17.83 8.6 17.83 7.83 18.46 7.19 19.24 7.19 20.02 7.19 20.65 7.83 20.65 8.6 20.65 9.38 20.02 10.01 19.24 10.01Z" fill="rgb(255,255,255)"/></svg>