<?xml version="1.0" encoding="utf-8"?>
<svg xmlns="http://www.w3.org/2000/svg"
	xmlns:xlink="http://www.w3.org/1999/xlink"
	width="10px" height="9px" viewBox="0 0 10 9">
<path fillRule="evenodd" d="M 6.41 4.5C 6.41 4.5 8.89 6.97 8.89 6.97 9.28 7.37 9.28 8 8.89 8.39 8.5 8.78 7.87 8.78 7.47 8.39 7.47 8.39 5 5.91 5 5.91 5 5.91 2.52 8.39 2.52 8.39 2.13 8.78 1.5 8.78 1.11 8.39 0.72 8 0.72 7.37 1.11 6.97 1.11 6.97 3.59 4.5 3.59 4.5 3.59 4.5 1.11 2.02 1.11 2.02 0.72 1.63 0.72 1 1.11 0.61 1.5 0.22 2.13 0.22 2.53 0.61 2.53 0.61 5 3.09 5 3.09 5 3.09 7.47 0.61 7.47 0.61 7.87 0.22 8.5 0.22 8.89 0.61 9.28 1 9.28 1.63 8.89 2.02 8.89 2.02 6.41 4.5 6.41 4.5Z" fill="rgb(255,255,255)"/></svg>