<?xml version="1.0" encoding="utf-8"?>
<svg xmlns="http://www.w3.org/2000/svg"
	xmlns:xlink="http://www.w3.org/1999/xlink"
	width="20px" height="20px" viewBox="0 0 20 20">
<g>
<path fillRule="evenodd" d="M 10 17C 10 17 17 10 17 10 17 10 10 3 10 3 10 3 3 10 3 10 3 10 10 17 10 17M 10 19.83C 10 19.83 8.59 18.41 8.59 18.41 8.59 18.41 1.59 11.41 1.59 11.41 1.59 11.41 0.17 10 0.17 10 0.17 10 1.59 8.59 1.59 8.59 1.59 8.59 8.59 1.59 8.59 1.59 8.59 1.59 10 0.17 10 0.17 10 0.17 11.41 1.59 11.41 1.59 11.41 1.59 18.41 8.59 18.41 8.59 18.41 8.59 19.83 10 19.83 10 19.83 10 18.41 11.41 18.41 11.41 18.41 11.41 11.41 18.41 11.41 18.41 11.41 18.41 10 19.83 10 19.83 10 19.83 10 19.83 10 19.83Z" fill="rgb(19,43,71)"/>
</g>
<g transform="translate(8,6)">
<path fillRule="evenodd" d="M-0 5.82C-0 5.82 1.2 5.82 1.2 5.82 1.2 5.82 1.2 3.96 1.2 3.96 1.2 3.96 3.6 3.96 3.6 3.96 3.6 3.96 3.6 5.82 3.6 5.82 3.6 5.82 6 3.35 6 3.35 6 3.35 3.6 0.88 3.6 0.88 3.6 0.88 3.6 2.73 3.6 2.73 3.6 2.73-0 2.73-0 2.73-0 2.73-0 5.82-0 5.82Z" fill="rgb(17,39,69)"/>
</g>
</svg>