<?xml version="1.0" encoding="utf-8"?>
<svg xmlns="http://www.w3.org/2000/svg"
	xmlns:xlink="http://www.w3.org/1999/xlink"
	width="12px" height="13px" viewBox="0 0 12 13">
<path fillRule="evenodd" d="M-0 13C-0 13-0 7-0 7-0 7-0 7-0 7-0 7-0 5-0 5-0 5-0 5-0 5-0 5-0 4-0 4-0 4 1.99 1.99 1.99 1.99 1.99 1.99 3.97-0 3.97-0 3.97-0 4-0 4-0 4-0 6-0 6-0 6-0 12-0 12-0 12-0 12 13 12 13 12 13-0 13-0 13ZM 3.41 3.4C 3.41 3.4 2 4.82 2 4.82 2 4.82 2 5 2 5 2 5 4 5 4 5 4 5 4 2.81 4 2.81 4 2.81 3.41 3.4 3.41 3.4ZM 10 2C 10 2 6 2 6 2 6 2 6 5 6 5 6 5 6 7 6 7 6 7 4 7 4 7 4 7 2 7 2 7 2 7 2 11 2 11 2 11 10 11 10 11 10 11 10 2 10 2Z" fill="rgb(19,43,71)"/></svg>