<?xml version="1.0" encoding="utf-8"?>
<svg xmlns="http://www.w3.org/2000/svg"
	xmlns:xlink="http://www.w3.org/1999/xlink"
	width="13px" height="12px" viewBox="0 0 13 12">
<g><path fillRule="evenodd" d="M 9.75 0C 9.75 0 3.25 0 3.25 0 3.25 0 0 5.5 0 5.5 0 5.5 3.25 12 3.25 12 3.25 12 9.75 12 9.75 12 9.75 12 13 5.5 13 5.5 13 5.5 9.75 0 9.75 0ZM 7.02 9.02C 7.02 9.02 6.01 9.02 6.01 9.02 6.01 9.02 6.01 8.01 6.01 8.01 6.01 8.01 7.02 8.01 7.02 8.01 7.02 8.01 7.02 9.02 7.02 9.02ZM 7.02 7.02C 7.02 7.02 6.01 7.02 6.01 7.02 6.01 7.02 6.01 3.01 6.01 3.01 6.01 3.01 7.02 3.01 7.02 3.01 7.02 3.01 7.02 7.02 7.02 7.02Z" fill="rgb(251,215,55)"/></g></svg>