<?xml version="1.0" encoding="utf-8"?>
<svg xmlns="http://www.w3.org/2000/svg"
	xmlns:xlink="http://www.w3.org/1999/xlink"
	width="13px" height="13px" viewBox="0 0 13 13">
<g><path fillRule="evenodd" d="M 6.35 0C 6.35 0 0 12.99 0 12.99 0 12.99 13 12.99 13 12.99 13 12.99 6.35 0 6.35 0ZM 7 11.01C 7 11.01 6 11.01 6 11.01 6 11.01 6 10 6 10 6 10 7 10 7 10 7 10 7 11.01 7 11.01ZM 6 9.01C 6 9.01 6 4.99 6 4.99 6 4.99 7 4.99 7 4.99 7 4.99 7 9.01 7 9.01 7 9.01 6 9.01 6 9.01Z" fill="rgb(241,123,33)"/></g></svg>