<svg xmlns="http://www.w3.org/2000/svg" width="20" height="20" viewBox="0 0 20 20">
  <metadata><?xpacket begin="﻿" id="W5M0MpCehiHzreSzNTczkc9d"?>
<x:xmpmeta xmlns:x="adobe:ns:meta/" x:xmptk="Adobe XMP Core 5.6-c142 79.160924, 2017/07/13-01:06:39        ">
   <rdf:RDF xmlns:rdf="http://www.w3.org/1999/02/22-rdf-syntax-ns#">
      <rdf:Description rdf:about=""/>
   </rdf:RDF>
</x:xmpmeta>
                                                                                                    
                                                                                                    
                                                                                                    
                                                                                                    
                                                                                                    
                                                                                                    
                                                                                                    
                                                                                                    
                                                                                                    
                                                                                                    
                                                                                                    
                                                                                                    
                                                                                                    
                                                                                                    
                                                                                                    
                                                                                                    
                                                                                                    
                                                                                                    
                                                                                                    
                                                                                                    
                           
<?xpacket end="w"?></metadata>
<defs>
    <style>
      .cls-1 {
        fill: #fff;
        fill-rule: evenodd;
      }
    </style>
  </defs>
  <path id="Move_previous_trip_" data-name="Move_previous_trip " class="cls-1" d="M639.809,795.976v-6.313a0.608,0.608,0,0,0-.312-0.582,0.615,0.615,0,0,0-.684.067q-1.058.72-2.118,1.439l-7.023,4.785c-0.056.038-.113,0.075-0.168,0.115a0.578,0.578,0,0,0,0,1.025c0.716,0.5,1.44.989,2.162,1.48q3.549,2.414,7.1,4.828a0.671,0.671,0,0,0,.705.125,0.655,0.655,0,0,0,.342-0.657v-6.312Zm-8.439.036c2.622-1.78,4.3-2.828,6.9-4.595v9.19C635.663,798.831,633.984,797.789,631.37,796.012ZM626,789.119h1.525v13.8H626v-13.8Z" transform="translate(-622.907 -786)"/>
</svg>
