<svg xmlns="http://www.w3.org/2000/svg" width="20" height="20" viewBox="0 0 20 20">
  <metadata><?xpacket begin="﻿" id="W5M0MpCehiHzreSzNTczkc9d"?>
<x:xmpmeta xmlns:x="adobe:ns:meta/" x:xmptk="Adobe XMP Core 5.6-c142 79.160924, 2017/07/13-01:06:39        ">
   <rdf:RDF xmlns:rdf="http://www.w3.org/1999/02/22-rdf-syntax-ns#">
      <rdf:Description rdf:about=""/>
   </rdf:RDF>
</x:xmpmeta>
                                                                                                    
                                                                                                    
                                                                                                    
                                                                                                    
                                                                                                    
                                                                                                    
                                                                                                    
                                                                                                    
                                                                                                    
                                                                                                    
                                                                                                    
                                                                                                    
                                                                                                    
                                                                                                    
                                                                                                    
                                                                                                    
                                                                                                    
                                                                                                    
                                                                                                    
                                                                                                    
                           
<?xpacket end="w"?></metadata>
<defs>
    <style>
      .cls-1 {
        fill: #fff;
        fill-rule: evenodd;
      }
    </style>
  </defs>
  <path id="Move_next_point_" data-name="Move_next_point  " class="cls-1" d="M935.21,795.508c-0.054-.039-0.109-0.076-0.164-0.114L928.2,790.68q-1.032-.711-2.065-1.418a0.593,0.593,0,0,0-.667-0.067,0.6,0.6,0,0,0-.3.575c0,0.086,0,.172,0,0.258v2l-1.95-1.343q-1.032-.711-2.066-1.418a0.591,0.591,0,0,0-.666-0.067,0.6,0.6,0,0,0-.3.575c0,0.086,0,.172,0,0.258V802.21a0.6,0.6,0,0,0,1.022.524q1.981-1.365,3.965-2.726v1.972c0,0.077,0,.153,0,0.23a0.6,0.6,0,0,0,1.021.524q3.459-2.382,6.923-4.758c0.7-.484,1.409-0.966,2.107-1.458A0.573,0.573,0,0,0,935.21,795.508Zm-8.876,5.727v-3.426l-1.174.806c-1.268.871-2.173,1.114-3.451,1.992v-9.19c1.275,0.875,2.181,1.124,3.451,2l1.174,0.8V790.8l7.6,5.216Z" transform="translate(-917.86 -786.015)"/>
</svg>
