<svg xmlns="http://www.w3.org/2000/svg" width="20" height="20" viewBox="0 0 20 20">
  <metadata><?xpacket begin="﻿" id="W5M0MpCehiHzreSzNTczkc9d"?>
<x:xmpmeta xmlns:x="adobe:ns:meta/" x:xmptk="Adobe XMP Core 5.6-c142 79.160924, 2017/07/13-01:06:39        ">
   <rdf:RDF xmlns:rdf="http://www.w3.org/1999/02/22-rdf-syntax-ns#">
      <rdf:Description rdf:about=""/>
   </rdf:RDF>
</x:xmpmeta>
                                                                                                    
                                                                                                    
                                                                                                    
                                                                                                    
                                                                                                    
                                                                                                    
                                                                                                    
                                                                                                    
                                                                                                    
                                                                                                    
                                                                                                    
                                                                                                    
                                                                                                    
                                                                                                    
                                                                                                    
                                                                                                    
                                                                                                    
                                                                                                    
                                                                                                    
                                                                                                    
                           
<?xpacket end="w"?></metadata>
<defs>
  </defs>
  <path fillRule="evenodd" fill="rgb(173,173,173)" id="Move_next_trip_" data-name="Move_next_trip  " d="M990.19,795.976v-6.051c0-.087,0-0.174,0-0.262a0.606,0.606,0,0,1,.312-0.582,0.613,0.613,0,0,1,.683.067l2.119,1.439,7.025,4.785c0.05,0.038.11,0.075,0.17,0.115a0.581,0.581,0,0,1,0,1.025c-0.718.5-1.441,0.989-2.163,1.48q-3.549,2.414-7.1,4.828a0.671,0.671,0,0,1-.705.125,0.653,0.653,0,0,1-.342-0.657c0-.077,0-0.155,0-0.233v-6.079Zm8.439,0.036c-2.622-1.78-4.3-2.828-6.9-4.595v9.19C994.337,798.831,996.016,797.789,998.629,796.012Zm3.841-6.893H1004v13.8h-1.53v-13.8Z" transform="translate(-987.094 -786)"/>
</svg>
