<svg xmlns="http://www.w3.org/2000/svg" width="20" height="20" viewBox="0 0 20 20">
  <metadata><?xpacket begin="﻿" id="W5M0MpCehiHzreSzNTczkc9d"?>
<x:xmpmeta xmlns:x="adobe:ns:meta/" x:xmptk="Adobe XMP Core 5.6-c142 79.160924, 2017/07/13-01:06:39        ">
   <rdf:RDF xmlns:rdf="http://www.w3.org/1999/02/22-rdf-syntax-ns#">
      <rdf:Description rdf:about=""/>
   </rdf:RDF>
</x:xmpmeta>
                                                                                                    
                                                                                                    
                                                                                                    
                                                                                                    
                                                                                                    
                                                                                                    
                                                                                                    
                                                                                                    
                                                                                                    
                                                                                                    
                                                                                                    
                                                                                                    
                                                                                                    
                                                                                                    
                                                                                                    
                                                                                                    
                                                                                                    
                                                                                                    
                                                                                                    
                                                                                                    
                           
<?xpacket end="w"?></metadata>
<defs>
  </defs>
  <path fillRule="evenodd" fill="rgb(173,173,173)" id="Move_previous_point" d="M716.79,795.508c0.054-.039.109-0.076,0.164-0.114l6.849-4.714q1.032-.711,2.065-1.418a0.591,0.591,0,0,1,.666-0.067,0.6,0.6,0,0,1,.305.575v2.253l1.951-1.343q1.032-.711,2.065-1.418a0.593,0.593,0,0,1,.667-0.067,0.6,0.6,0,0,1,.3.575v12.44a0.6,0.6,0,0,1-1.021.524q-1.981-1.365-3.966-2.726v2.2a0.6,0.6,0,0,1-1.021.524q-3.461-2.382-6.923-4.758c-0.7-.484-1.409-0.966-2.108-1.458A0.573,0.573,0,0,1,716.79,795.508Zm8.875,5.727v-3.426l1.174,0.806c1.268,0.871,2.174,1.114,3.452,1.992v-9.19c-1.276.875-2.182,1.124-3.452,2-0.389.267-.783,0.538-1.174,0.8V790.8l-7.6,5.216Z" transform="translate(-714.157 -786.015)"/>
</svg>
