<?xml version="1.0" encoding="utf-8"?>
<svg xmlns="http://www.w3.org/2000/svg"
	xmlns:xlink="http://www.w3.org/1999/xlink"
	width="7px" height="11px" viewBox="0 0 7 11">
<path fillRule="evenodd" d="M 6.09 11.2C 5.54 11.2 5.09 10.75 5.09 10.2 5.09 10.2 5.09 1.2 5.09 1.2 5.09 0.64 5.54 0.2 6.09 0.2 6.64 0.2 7.09 0.64 7.09 1.2 7.09 1.2 7.09 10.2 7.09 10.2 7.09 10.75 6.64 11.2 6.09 11.2ZM 1.3 11.22C 0.75 11.22 0.3 10.77 0.3 10.22 0.3 10.22 0.3 1.22 0.3 1.22 0.3 0.67 0.75 0.22 1.3 0.22 1.86 0.22 2.3 0.67 2.3 1.22 2.3 1.22 2.3 10.22 2.3 10.22 2.3 10.77 1.86 11.22 1.3 11.22Z" fill="rgb(25,59,101)"/></svg>