<svg xmlns="http://www.w3.org/2000/svg" width="20" height="20" viewBox="0 0 20 20">
  <metadata><?xpacket begin="﻿" id="W5M0MpCehiHzreSzNTczkc9d"?>
<x:xmpmeta xmlns:x="adobe:ns:meta/" x:xmptk="Adobe XMP Core 5.6-c142 79.160924, 2017/07/13-01:06:39        ">
   <rdf:RDF xmlns:rdf="http://www.w3.org/1999/02/22-rdf-syntax-ns#">
      <rdf:Description rdf:about=""/>
   </rdf:RDF>
</x:xmpmeta>
                                                                                                    
                                                                                                    
                                                                                                    
                                                                                                    
                                                                                                    
                                                                                                    
                                                                                                    
                                                                                                    
                                                                                                    
                                                                                                    
                                                                                                    
                                                                                                    
                                                                                                    
                                                                                                    
                                                                                                    
                                                                                                    
                                                                                                    
                                                                                                    
                                                                                                    
                                                                                                    
                           
<?xpacket end="w"?></metadata>
<defs>
    <style>
      .cls-1 {
        fill: #193c66;
        fill-rule: evenodd;
      }
    </style>
  </defs>
  <path id="play" class="cls-1" d="M861.19,795.976v-6.051c0-.087,0-0.174,0-0.262a0.615,0.615,0,0,1,.294-0.582,0.55,0.55,0,0,1,.643.067l1.993,1.439,6.611,4.785c0.052,0.038.106,0.075,0.158,0.115a0.6,0.6,0,0,1,0,1.025c-0.674.5-1.355,0.989-2.034,1.48q-3.341,2.414-6.682,4.828a0.6,0.6,0,0,1-.664.125,0.667,0.667,0,0,1-.322-0.657v-6.312Zm7.943,0.036c-2.468-1.78-4.049-2.828-6.5-4.595v9.19C865.093,798.831,866.673,797.789,869.133,796.012Z" transform="translate(-856.188 -786)"/>
</svg>
