<?xml version="1.0" encoding="utf-8"?>
<svg xmlns="http://www.w3.org/2000/svg"
	xmlns:xlink="http://www.w3.org/1999/xlink"
	width="16px" height="16px" viewBox="0 0 16 16">
<path fillRule="evenodd" d="M 15.72 15.72C 15.33 16.12 14.7 16.12 14.31 15.72 14.31 15.72 11.09 12.73 11.09 12.73 9.94 13.55 8.55 14.05 7.02 14.05 3.14 14.05-0 10.9-0 7.02-0 3.14 3.14-0 7.02-0 10.9-0 14.05 3.14 14.05 7.02 14.05 8.66 13.47 10.14 12.53 11.33 12.53 11.33 15.72 14.31 15.72 14.31 16.12 14.7 16.12 15.33 15.72 15.72ZM 7.02 1.97C 4.23 1.97 1.97 4.23 1.97 7.02 1.97 9.81 4.23 12.07 7.02 12.07 9.81 12.07 12.07 9.81 12.07 7.02 12.07 4.23 9.81 1.97 7.02 1.97Z" fill="rgb(75,220,242)"/></svg>