<?xml version="1.0" encoding="utf-8"?>
<svg xmlns="http://www.w3.org/2000/svg"
	xmlns:xlink="http://www.w3.org/1999/xlink"
	width="14px" height="14px" viewBox="0 0 14 14">
<path fillRule="evenodd" d="M 13.18 8.42C 13.18 8.42 12.29 8.48 12.29 8.48 12.18 8.94 12.02 9.37 11.8 9.78 11.8 9.78 12.28 10.34 12.28 10.34 12.53 10.65 12.49 11.17 12.21 11.46 12.21 11.46 11.39 12.28 11.39 12.28 11.23 12.43 11 12.52 10.78 12.52 10.59 12.52 10.41 12.47 10.27 12.35 10.27 12.35 9.75 11.92 9.75 11.92 9.35 12.15 8.92 12.36 8.47 12.48 8.47 12.48 8.41 13.18 8.41 13.18 8.38 13.57 7.98 14 7.58 14 7.58 14 6.42 14 6.42 14 6.02 14 5.62 13.57 5.58 13.18 5.58 13.18 5.53 12.44 5.53 12.44 5.08 12.32 4.65 12.13 4.25 11.9 4.25 11.9 3.73 12.34 3.73 12.34 3.59 12.46 3.41 12.51 3.22 12.51 3 12.51 2.77 12.43 2.61 12.28 2.61 12.28 1.78 11.45 1.78 11.45 1.5 11.17 1.46 10.65 1.71 10.34 1.71 10.34 2.18 9.78 2.18 9.78 1.96 9.37 1.78 8.94 1.66 8.48 1.66 8.48 0.82 8.42 0.82 8.42 0.43 8.38-0 7.98-0 7.58-0 7.58-0 6.42-0 6.42-0 6.02 0.43 5.62 0.82 5.58 0.82 5.58 1.75 5.51 1.75 5.51 1.76 5.51 1.76 5.51 1.76 5.51 1.78 5.51 1.8 5.52 1.82 5.52 1.94 5.14 2.1 4.79 2.29 4.46 2.26 4.43 2.23 4.4 2.2 4.37 2.2 4.37 1.66 3.73 1.66 3.73 1.4 3.42 1.44 2.9 1.72 2.61 1.72 2.61 2.55 1.79 2.55 1.79 2.7 1.63 2.93 1.55 3.15 1.55 3.34 1.55 3.52 1.61 3.66 1.72 3.66 1.72 4.31 2.27 4.31 2.27 4.35 2.31 4.39 2.34 4.42 2.39 4.77 2.2 5.14 2.04 5.53 1.93 5.52 1.87 5.51 1.78 5.51 1.71 5.51 1.71 5.58 0.82 5.58 0.82 5.62 0.43 6.02-0 6.42-0 6.42-0 7.58-0 7.58-0 7.98-0 8.38 0.43 8.41 0.82 8.41 0.82 8.49 1.75 8.49 1.75 8.49 1.82 8.48 1.89 8.47 1.95 8.86 2.06 9.23 2.21 9.58 2.4 9.61 2.35 9.65 2.31 9.69 2.27 9.69 2.27 10.34 1.72 10.34 1.72 10.48 1.61 10.66 1.55 10.85 1.55 11.07 1.55 11.3 1.64 11.45 1.79 11.45 1.79 12.28 2.61 12.28 2.61 12.56 2.9 12.6 3.42 12.34 3.73 12.34 3.73 11.8 4.37 11.8 4.37 11.77 4.4 11.74 4.43 11.71 4.46 11.91 4.79 12.07 5.14 12.19 5.52 12.21 5.52 12.24 5.51 12.26 5.51 12.26 5.51 12.29 5.51 12.29 5.51 12.29 5.51 13.18 5.58 13.18 5.58 13.57 5.62 14 6.02 14 6.42 14 6.42 14 7.58 14 7.58 14 7.98 13.57 8.38 13.18 8.42ZM 13 6.57C 13 6.57 12.31 6.51 12.31 6.51 12.3 6.51 12.21 6.5 12.2 6.5 12.2 6.5 12.19 6.5 12.18 6.5 11.75 6.5 11.36 6.23 11.23 5.82 11.13 5.52 11 5.23 10.84 4.96 10.6 4.54 10.69 4 11.07 3.69 11.07 3.69 11.46 3.21 11.46 3.21 11.46 3.21 10.85 2.6 10.85 2.6 10.85 2.6 10.38 3 10.38 3 10.18 3.26 9.88 3.39 9.58 3.39 9.42 3.39 9.26 3.34 9.11 3.26 8.82 3.11 8.52 2.96 8.2 2.87 7.7 2.73 7.39 2.19 7.48 1.69 7.48 1.69 7.43 1 7.43 1 7.43 1 6.57 1 6.57 1 6.57 1 6.52 1.69 6.52 1.69 6.61 2.19 6.3 2.78 5.8 2.92 5.48 3 5.18 3.13 4.89 3.28 4.74 3.36 4.58 3.4 4.42 3.4 4.12 3.4 3.82 3.26 3.62 3 3.62 3 3.15 2.6 3.15 2.6 3.15 2.6 2.53 3.21 2.53 3.21 2.53 3.21 2.94 3.69 2.94 3.69 3.3 4 3.4 4.54 3.16 4.96 3 5.23 2.87 5.52 2.77 5.82 2.64 6.23 2.25 6.5 1.82 6.5 1.81 6.5 1.8 6.5 1.8 6.5 1.79 6.5 1.7 6.51 1.69 6.51 1.69 6.51 1 6.57 1 6.57 1 6.57 1 7.43 1 7.43 1 7.43 1.71 7.49 1.71 7.49 2.14 7.52 2.58 7.83 2.68 8.25 2.77 8.62 2.9 8.97 3.08 9.3 3.28 9.67 3.23 10.11 2.97 10.42 2.97 10.42 2.6 10.85 2.6 10.85 2.6 10.85 3.22 11.47 3.22 11.47 3.22 11.47 3.6 11.14 3.6 11.14 3.79 10.98 4.02 10.91 4.25 10.91 4.42 10.91 4.6 10.97 4.76 11.06 5.08 11.25 5.43 11.42 5.8 11.52 6.2 11.63 6.49 12.03 6.53 12.44 6.53 12.44 6.57 13 6.57 13 6.57 13 7.43 13 7.43 13 7.43 13 7.47 12.44 7.47 12.44 7.51 12.03 7.8 11.59 8.2 11.48 8.57 11.38 8.92 11.23 9.24 11.04 9.4 10.94 9.58 10.9 9.75 10.9 9.98 10.9 10.21 10.98 10.4 11.14 10.4 11.14 10.79 11.46 10.79 11.46 10.79 11.46 11.4 10.85 11.4 10.85 11.4 10.85 11.04 10.42 11.04 10.42 10.78 10.11 10.74 9.67 10.94 9.3 11.12 8.97 11.27 8.62 11.36 8.25 11.46 7.83 11.86 7.52 12.29 7.49 12.29 7.49 13 7.43 13 7.43 13 7.43 13 6.57 13 6.57ZM 7.05 9.6C 5.67 9.6 4.55 8.48 4.55 7.1 4.55 5.72 5.67 4.6 7.05 4.6 8.43 4.6 9.55 5.72 9.55 7.1 9.55 8.48 8.43 9.6 7.05 9.6ZM 7.05 5.6C 6.22 5.6 5.55 6.27 5.55 7.1 5.55 7.92 6.22 8.6 7.05 8.6 7.88 8.6 8.55 7.92 8.55 7.1 8.55 6.27 7.88 5.6 7.05 5.6Z" fill="rgb(255,255,255)" opacity="0.90"/></svg>