<?xml version="1.0" encoding="utf-8"?>
<svg xmlns="http://www.w3.org/2000/svg"
	xmlns:xlink="http://www.w3.org/1999/xlink"
	width="9px" height="7px" viewBox="0 0 9 7">
<path fillRule="evenodd" d="M 8.77 1.48C 8.77 1.48 3.86 6.75 3.86 6.75 3.69 6.92 3.48 7.01 3.27 7 3.06 7.01 2.84 6.92 2.68 6.75 2.68 6.75 0.23 4.1 0.23 4.1-0.09 3.75-0.09 3.2 0.23 2.86 0.55 2.52 1.07 2.52 1.39 2.86 1.39 2.86 3.27 4.9 3.27 4.9 3.27 4.9 7.61 0.25 7.61 0.25 7.93-0.09 8.45-0.09 8.77 0.25 9.09 0.59 9.09 1.14 8.77 1.48Z" fill="rgb(255,255,255)"/></svg>