<?xml version="1.0" encoding="utf-8"?>
<svg xmlns="http://www.w3.org/2000/svg"
	xmlns:xlink="http://www.w3.org/1999/xlink"
	width="10px" height="10px" viewBox="0 0 10 10">
<path fillRule="evenodd" d="M 9.24 7.83C 9.24 7.83 7.83 9.24 7.83 9.24 7.83 9.24 5 6.41 5 6.41 5 6.41 2.17 9.24 2.17 9.24 2.17 9.24 0.76 7.83 0.76 7.83 0.76 7.83 3.59 5 3.59 5 3.59 5 0.76 2.17 0.76 2.17 0.76 2.17 2.17 0.76 2.17 0.76 2.17 0.76 5 3.59 5 3.59 5 3.59 7.83 0.76 7.83 0.76 7.83 0.76 9.24 2.17 9.24 2.17 9.24 2.17 6.41 5 6.41 5 6.41 5 9.24 7.83 9.24 7.83Z" fill="rgb(255,255,255)"/></svg>