<?xml version="1.0" encoding="utf-8"?>
<svg xmlns="http://www.w3.org/2000/svg"
	xmlns:xlink="http://www.w3.org/1999/xlink"
	width="24px" height="22px" viewBox="0 0 24 22">
<path fillRule="evenodd" d="M 22.7 22.03C 21.59 22.03 2.14 22.03 1.38 22.03 0.39 22.03-0.35 20.96 0.23 19.91 0.7 19.06 10.07 2.15 10.87 0.7 11.4-0.25 12.65-0.23 13.18 0.7 13.77 1.74 23.19 18.72 23.84 19.95 24.32 20.85 23.79 22.03 22.7 22.03ZM 20.86 18.39C 20.37 17.44 13.3 4.32 12.86 3.52 12.47 2.8 11.52 2.79 11.13 3.52 10.53 4.63 3.5 17.7 3.15 18.36 2.72 19.17 3.27 20 4.01 20 4.59 20 19.17 20 20 20 20.82 20 21.22 19.09 20.86 18.39ZM 12 18C 11.45 18 11 17.55 11 17 11 16.45 11.45 16 12 16 12.55 16 13 16.45 13 17 13 17.55 12.55 18 12 18ZM 12 14C 11.45 14 11 13.55 11 13 11 13 11 8.87 11 8.87 11 8.32 11.45 7.87 12 7.87 12.55 7.87 13 8.32 13 8.87 13 8.87 13 13 13 13 13 13.55 12.55 14 12 14Z" fill="rgb(255,255,255)"/></svg>