<?xml version="1.0" encoding="utf-8"?>
<svg xmlns="http://www.w3.org/2000/svg"
	xmlns:xlink="http://www.w3.org/1999/xlink"
	width="24px" height="22px" viewBox="0 0 24 22">
<path fillRule="evenodd" d="M 21.61 20.03C 19.84 16.82 13.94 6.18 12.03 2.74 10.06 6.29 4.17 16.91 2.45 20.03 2.45 20.03 21.61 20.03 21.61 20.03M 22.7 22.03C 21.59 22.03 2.14 22.03 1.38 22.03 0.39 22.03-0.35 20.96 0.23 19.91 0.7 19.06 10.07 2.15 10.87 0.7 11.13 0.23 11.58-0 12.02-0 12.47-0 12.92 0.23 13.18 0.7 13.77 1.74 23.19 18.72 23.84 19.95 24.32 20.85 23.79 22.03 22.7 22.03 22.7 22.03 22.7 22.03 22.7 22.03Z" fill="rgb(75,219,241)"/><path fillRule="evenodd" d="M 12 14C 11.45 14 11 13.55 11 13 11 13 11 8.87 11 8.87 11 8.32 11.45 7.87 12 7.87 12.55 7.87 13 8.32 13 8.87 13 8.87 13 13 13 13 13 13.55 12.55 14 12 14ZM 12 16C 12.55 16 13 16.45 13 17 13 17.55 12.55 18 12 18 11.45 18 11 17.55 11 17 11 16.45 11.45 16 12 16Z" fill="rgb(75,219,241)"/></svg>