<?xml version="1.0" encoding="utf-8"?>
<svg xmlns="http://www.w3.org/2000/svg"
	xmlns:xlink="http://www.w3.org/1999/xlink"
	width="14px" height="14px" viewBox="0 0 14 14">
<path fillRule="evenodd" d="M 8.41 6.98C 8.41 6.98 12.67 11.23 12.67 11.23 13.33 11.89 14.04 12.66 13.39 13.32 12.73 13.97 11.92 13.29 11.26 12.64 11.26 12.64 7 8.39 7 8.39 7 8.39 2.69 12.7 2.69 12.7 2.03 13.36 1.3 14 0.65 13.35-0.01 12.7 0.67 11.91 1.33 11.25 1.33 11.25 5.59 6.98 5.59 6.98 5.59 6.98 1.28 2.67 1.28 2.67 0.62 2.02-0.02 1.29 0.63 0.63 1.29-0.03 2.08 0.66 2.74 1.31 2.74 1.31 7 5.57 7 5.57 7 5.57 11.25 1.32 11.25 1.32 11.9 0.66 12.67-0.06 13.33 0.6 13.99 1.25 13.31 2.07 12.65 2.73 12.65 2.73 8.41 6.98 8.41 6.98Z" fill="rgb(211,211,211)"/></svg>