<?xml version="1.0" encoding="utf-8"?>
<svg xmlns="http://www.w3.org/2000/svg"
	xmlns:xlink="http://www.w3.org/1999/xlink"
	width="24px" height="22px" viewBox="0 0 24 22">
<path fillRule="evenodd" d="M 23 17C 23 17 12.29 17 12.29 17 12.09 17 11.92 17.05 11.76 17.15 11.76 17.15 5.53 21.04 5.53 21.04 5.21 21.24 4.84 21.25 4.52 21.07 4.19 20.89 4 20.57 4 20.2 4 20.2 4 18 4 18 4 17.45 3.55 17 3 17 3 17 1 17 1 17 0.45 17-0 16.55-0 16-0 16-0 1-0 1-0 0.45 0.45-0 1-0 1-0 23-0 23-0 23.55-0 24 0.45 24 1 24 1 24 16 24 16 24 16.55 23.55 17 23 17ZM 22 2C 22 2 2 2 2 2 2 2 2 15 2 15 2 15 6 15 6 15 6 15 6 18 6 18 6 18 11 15 11 15 11 15 22 15 22 15 22 15 22 2 22 2ZM 4 9C 4 9 20 9 20 9 20 9 20 11 20 11 20 11 4 11 4 11 4 11 4 9 4 9ZM 4 5C 4 5 20 5 20 5 20 5 20 7 20 7 20 7 4 7 4 7 4 7 4 5 4 5Z" fill="rgb(255,255,255)"/></svg>