<?xml version="1.0" encoding="utf-8"?>
<svg xmlns="http://www.w3.org/2000/svg"
	xmlns:xlink="http://www.w3.org/1999/xlink"
	width="11px" height="13px" viewBox="0 0 11 13">
<path fillRule="evenodd" d="M-0 13C-0 13-0-0-0-0-0-0 11-0 11-0 11-0 11 13 11 13 11 13-0 13-0 13ZM 9 2C 9 2 2 2 2 2 2 2 2 11 2 11 2 11 9 11 9 11 9 11 9 2 9 2ZM 8 5C 8 5 3 5 3 5 3 5 3 4 3 4 3 4 8 4 8 4 8 4 8 5 8 5ZM 8 7C 8 7 3 7 3 7 3 7 3 6 3 6 3 6 8 6 8 6 8 6 8 7 8 7ZM 8 9C 8 9 3 9 3 9 3 9 3 8 3 8 3 8 8 8 8 8 8 8 8 9 8 9Z" fill="rgb(19,43,71)"/></svg>