<?xml version="1.0" encoding="utf-8"?>
<svg xmlns="http://www.w3.org/2000/svg"
	xmlns:xlink="http://www.w3.org/1999/xlink"
	width="27px" height="11px" viewBox="0 0 27 11">
<path fillRule="evenodd" d="M 26 8C 26 8 26 8.38 26 8.38 26 9.82 24.82 11 23.37 11 23.37 11 2.62 11 2.62 11 1.18 11-0 9.82-0 8.38-0 8.38-0 2.62-0 2.62-0 1.18 1.18-0 2.62-0 2.62-0 23.37-0 23.37-0 24.82-0 26 1.18 26 2.62 26 2.62 26 3 26 3 26 3 27 3 27 3 27 3 27 8 27 8 27 8 26 8 26 8ZM 25 8C 25 8 25 3 25 3 25 3 25 2.62 25 2.62 25 1.73 24.27 1 23.37 1 23.37 1 2.62 1 2.62 1 1.73 1 1 1.73 1 2.62 1 2.62 1 8.38 1 8.38 1 9.27 1.73 10 2.62 10 2.62 10 23.37 10 23.37 10 24.27 10 25 9.27 25 8.38 25 8.38 25 8 25 8ZM 3.54 9C 2.69 9 2 8.31 2 7.46 2 7.46 2 3.54 2 3.54 2 2.69 2.69 2 3.54 2 3.54 2 18.96 2 18.96 2 18.98 2 19 2.02 19 2.04 19 2.04 19 8.96 19 8.96 19 8.98 18.98 9 18.96 9 18.96 9 3.54 9 3.54 9Z" fill="rgb(173,173,173)"/></svg>