<?xml version="1.0" encoding="utf-8"?>
<svg xmlns="http://www.w3.org/2000/svg"
	xmlns:xlink="http://www.w3.org/1999/xlink"
	width="23px" height="10px" viewBox="0 0 23 10">
<path fillRule="evenodd" d="M 21.36 3.8C 20.97 3.67 18.23 3.07 18.23 3.07 18.23 3.07 13.15 0.18 12.54 0.18 11.93 0.18 7.75 0.19 7.75 0.19 6.72 0.19 5.87 0.96 4.88 1.86 4.41 2.29 3.9 2.75 3.33 3.17 3.33 3.17 1.22 3.45 1.22 3.45 0.91 3.55 0.69 3.83 0.69 4.17 0.69 4.17 0.69 6.59 0.69 6.59 0.69 7 1.03 7.34 1.45 7.34 1.45 7.34 2.9 7.34 2.9 7.34 3.01 8.56 4.03 9.51 5.27 9.51 6.51 9.51 7.54 8.56 7.64 7.34 7.64 7.34 14.58 7.34 14.58 7.34 14.68 8.56 15.7 9.51 16.95 9.51 18.19 9.51 19.21 8.56 19.32 7.34 19.32 7.34 20.51 7.34 20.51 7.34 21.45 7.34 21.92 6.93 22.03 6.55 22.33 5.58 22.11 4.05 21.36 3.8ZM 5.27 8.37C 4.59 8.37 4.04 7.81 4.04 7.14 4.04 6.46 4.59 5.9 5.27 5.9 5.95 5.9 6.5 6.46 6.5 7.14 6.5 7.81 5.95 8.37 5.27 8.37ZM 9.85 3.07C 9.85 3.07 5.71 3.07 5.71 3.07 6.01 2.83 6.29 2.58 6.54 2.35 7.21 1.74 7.79 1.22 8.48 1.22 8.48 1.22 9.11 1.22 9.85 1.21 9.85 1.21 9.85 3.07 9.85 3.07 9.85 3.07 9.85 3.07 9.85 3.07ZM 10.85 1.21C 11.37 1.21 11.82 1.21 12.05 1.21 12.62 1.21 14.93 2.55 15.8 3.07 15.8 3.07 10.85 3.07 10.85 3.07 10.85 3.07 10.85 1.21 10.85 1.21 10.85 1.21 10.85 1.21 10.85 1.21ZM 16.95 8.37C 16.27 8.37 15.71 7.81 15.71 7.14 15.71 6.46 16.27 5.9 16.95 5.9 17.63 5.9 18.18 6.46 18.18 7.14 18.18 7.81 17.63 8.37 16.95 8.37Z" fill="rgb(255,255,255)"/></svg>