<?xml version="1.0" encoding="utf-8"?>
<svg xmlns="http://www.w3.org/2000/svg"
	xmlns:xlink="http://www.w3.org/1999/xlink"
	width="11px" height="14px" viewBox="0 0 11 14">
<path fillRule="evenodd" d="M 11 12.16C 11 11.94 11 12.13 11 12.16ZM 5.5 14C 0.81 14 0 12.42 0 12.42 0 12.24-0 12.13-0 12.07 0 12.1 0 12.09 0.01 11.83 0.07 8.62 0.54 7.7 3.9 7.11 3.9 7.11 4.38 7.7 5.5 7.7 6.61 7.7 7.09 7.11 7.09 7.11 10.49 7.7 10.94 8.64 10.99 11.94 11 12.15 11 12.18 11 12.16 11 12.22 11 12.3 11 12.42 11 12.42 10.19 14 5.5 14ZM 5.5 6.85C 3.89 6.85 2.59 5.31 2.59 3.42 2.59 1.53 3.02-0 5.5-0 7.98-0 8.41 1.53 8.41 3.42 8.41 5.31 7.11 6.85 5.5 6.85Z" fill="rgb(173,173,173)"/></svg>