<?xml version="1.0" encoding="utf-8"?>
<svg xmlns="http://www.w3.org/2000/svg"
	xmlns:xlink="http://www.w3.org/1999/xlink"
	width="22px" height="13px" viewBox="0 0 22 13">
<path fillRule="evenodd" d="M 19.37 13C 19.37 13 2.62 13 2.62 13 1.18 13-0 11.82-0 10.38-0 10.38-0 2.62-0 2.62-0 1.39 0.85 0.36 2 0.08 2 0.08 2 5 2 5 2 5 5 5 5 5 5 5 5-0 5-0 5-0 6-0 6-0 6-0 6 5 6 5 6 5 9 5 9 5 9 5 9-0 9-0 9-0 10-0 10-0 10-0 10 5 10 5 10 5 11 5 11 5 11 5 11-0 11-0 11-0 12-0 12-0 12-0 12 5 12 5 12 5 13 5 13 5 13 5 13-0 13-0 13-0 15-0 15-0 15-0 15 5 15 5 15 5 17 5 17 5 17 5 17-0 17-0 17-0 18-0 18-0 18-0 18 5 18 5 18 5 19 5 19 5 19 5 19-0 19-0 19-0 19.37-0 19.37-0 20.82-0 22 1.18 22 2.62 22 2.62 22 10.38 22 10.38 22 11.82 20.82 13 19.37 13ZM 4.17 7.15C 4.17 7.15 3.28 7.15 3.28 7.15 3.28 7.15 2.08 7.71 2.08 7.71 2.08 7.71 2.25 8.51 2.25 8.51 2.25 8.51 3.12 8.09 3.12 8.09 3.12 8.09 3.14 8.09 3.14 8.09 3.14 8.09 3.14 11.7 3.14 11.7 3.14 11.7 4.17 11.7 4.17 11.7 4.17 11.7 4.17 7.15 4.17 7.15ZM 9.05 10.82C 9.05 10.82 7.33 10.82 7.33 10.82 7.33 10.82 7.33 10.81 7.33 10.81 7.33 10.81 7.75 10.46 7.75 10.46 8.41 9.87 8.96 9.26 8.96 8.5 8.96 7.67 8.4 7.07 7.37 7.07 6.75 7.07 6.22 7.28 5.88 7.54 5.88 7.54 6.18 8.3 6.18 8.3 6.42 8.12 6.76 7.92 7.15 7.92 7.68 7.92 7.9 8.22 7.9 8.59 7.89 9.12 7.4 9.63 6.41 10.52 6.41 10.52 5.82 11.05 5.82 11.05 5.82 11.05 5.82 11.7 5.82 11.7 5.82 11.7 9.05 11.7 9.05 11.7 9.05 11.7 9.05 10.82 9.05 10.82ZM 13.82 8.2C 13.82 7.58 13.28 7.07 12.31 7.07 11.72 7.07 11.17 7.24 10.9 7.41 10.9 7.41 11.12 8.18 11.12 8.18 11.31 8.07 11.7 7.91 12.07 7.91 12.52 7.91 12.74 8.11 12.74 8.39 12.74 8.77 12.29 8.91 11.93 8.91 11.93 8.91 11.52 8.91 11.52 8.91 11.52 8.91 11.52 9.68 11.52 9.68 11.52 9.68 11.95 9.68 11.95 9.68 12.42 9.68 12.87 9.88 12.87 10.33 12.87 10.67 12.59 10.94 12.04 10.94 11.6 10.94 11.17 10.75 10.98 10.66 10.98 10.66 10.76 11.45 10.76 11.45 11.03 11.62 11.52 11.78 12.11 11.78 13.27 11.78 13.98 11.19 13.98 10.38 13.98 9.79 13.53 9.37 12.99 9.28 12.99 9.28 12.99 9.26 12.99 9.26 13.55 9.07 13.82 8.69 13.82 8.2ZM 19.18 9.82C 19.18 9.82 18.63 9.82 18.63 9.82 18.63 9.82 18.63 7.15 18.63 7.15 18.63 7.15 17.33 7.15 17.33 7.15 17.33 7.15 15.6 9.92 15.6 9.92 15.6 9.92 15.6 10.61 15.6 10.61 15.6 10.61 17.62 10.61 17.62 10.61 17.62 10.61 17.62 11.7 17.62 11.7 17.62 11.7 18.63 11.7 18.63 11.7 18.63 11.7 18.63 10.61 18.63 10.61 18.63 10.61 19.18 10.61 19.18 10.61 19.18 10.61 19.18 9.82 19.18 9.82ZM 17.62 9.82C 17.62 9.82 16.6 9.82 16.6 9.82 16.6 9.82 16.6 9.8 16.6 9.8 16.6 9.8 17.21 8.81 17.21 8.81 17.36 8.52 17.48 8.25 17.63 7.96 17.63 7.96 17.66 7.96 17.66 7.96 17.64 8.25 17.62 8.53 17.62 8.81 17.62 8.81 17.62 9.82 17.62 9.82Z" fill="rgb(171,171,171)"/></svg>