<?xml version="1.0" encoding="utf-8"?>
<svg xmlns="http://www.w3.org/2000/svg"
	xmlns:xlink="http://www.w3.org/1999/xlink"
	width="10px" height="13px" viewBox="0 0 10 13">
<path fillRule="evenodd" d="M 10 2C 10 2 8 2 8 2 8 2 8 1.04 8 1.04 8 0.47 7.53-0 6.96-0 6.96-0 1.04-0 1.04-0 0.47-0-0 0.47-0 1.04-0 1.04-0 11.96-0 11.96-0 12.53 0.47 13 1.04 13 1.04 13 6.96 13 6.96 13 7.53 13 8 12.53 8 11.96 8 11.96 8 10.61 8 10.61 8 10.61 10 9.03 10 9.03 10 9.03 10 2 10 2ZM 7 6C 7 6 1 6 1 6 1 6 1 2 1 2 1 2 7 2 7 2 7 2 7 6 7 6ZM 9 8.7C 9 8.7 8 9.66 8 9.66 8 9.66 8 5 8 5 8 5 9 5 9 5 9 5 9 8.7 9 8.7Z" fill="rgb(173,173,173)"/></svg>