<?xml version="1.0" encoding="utf-8"?>
<svg xmlns="http://www.w3.org/2000/svg"
	xmlns:xlink="http://www.w3.org/1999/xlink"
	width="27px" height="12px" viewBox="0 0 27 12">
<path fillRule="evenodd" d="M-0 12C-0 12-0-0-0-0-0-0 27-0 27-0 27-0 27 12 27 12 27 12-0 12-0 12ZM 3.84 2.75C 2.33 2.75 1.61 4.09 1.61 5.78 1.61 7.44 2.28 8.8 3.79 8.8 5.29 8.8 6.02 7.56 6.02 5.75 6.02 4.14 5.41 2.75 3.84 2.75ZM 9.28 2.75C 7.77 2.75 7.05 4.09 7.05 5.78 7.06 7.44 7.73 8.8 9.24 8.8 10.73 8.8 11.46 7.56 11.46 5.75 11.46 4.14 10.85 2.75 9.28 2.75ZM 13.72 4.24C 13.24 4.24 12.91 4.58 12.91 5.07 12.91 5.54 13.24 5.89 13.71 5.89 14.2 5.89 14.52 5.54 14.52 5.07 14.51 4.58 14.2 4.24 13.72 4.24ZM 13.72 7.15C 13.24 7.15 12.91 7.49 12.91 7.98 12.91 8.45 13.24 8.8 13.71 8.8 14.2 8.8 14.52 8.45 14.52 7.98 14.51 7.48 14.2 7.15 13.72 7.15ZM 17.68 3.97C 17.68 3.97 19.95 3.97 19.95 3.97 19.95 3.97 19.95 2.85 19.95 2.85 19.95 2.85 16.73 2.85 16.73 2.85 16.73 2.85 16.34 5.92 16.34 5.92 16.58 5.88 16.81 5.86 17.13 5.86 18.3 5.86 18.78 6.23 18.78 6.84 18.78 7.46 18.18 7.73 17.61 7.73 17.08 7.73 16.55 7.57 16.28 7.44 16.28 7.44 16.04 8.47 16.04 8.47 16.37 8.64 16.96 8.8 17.67 8.8 19.25 8.8 20.18 7.83 20.18 6.75 20.18 6.06 19.91 5.58 19.47 5.28 19.06 4.98 18.49 4.86 17.93 4.86 17.79 4.86 17.68 4.86 17.55 4.87 17.55 4.87 17.68 3.97 17.68 3.97ZM 23.58 2.75C 22.3 2.75 21.38 3.71 21.38 4.86 21.38 5.99 22.22 6.68 23.2 6.68 23.74 6.68 24.12 6.53 24.38 6.26 24.38 6.26 24.4 6.27 24.4 6.27 24.3 6.71 24.04 7.09 23.67 7.35 23.35 7.57 22.93 7.68 22.51 7.71 22.24 7.73 22.09 7.73 21.92 7.71 21.92 7.71 21.92 8.78 21.92 8.78 22.07 8.79 22.31 8.8 22.54 8.78 23.45 8.74 24.21 8.47 24.77 7.96 25.41 7.38 25.8 6.48 25.8 5.27 25.8 3.9 25.09 2.75 23.58 2.75ZM 23.58 5.71C 23.02 5.71 22.75 5.28 22.75 4.77 22.74 4.16 23.08 3.75 23.55 3.75 24.17 3.75 24.4 4.36 24.4 4.98 24.4 5.15 24.38 5.24 24.33 5.32 24.21 5.53 23.94 5.71 23.58 5.71ZM 9.27 7.76C 8.74 7.76 8.42 7.12 8.43 5.78 8.42 4.42 8.76 3.78 9.27 3.78 9.81 3.78 10.09 4.47 10.09 5.76 10.09 7.1 9.81 7.76 9.27 7.76ZM 3.83 7.76C 3.3 7.76 2.97 7.12 2.98 5.78 2.97 4.42 3.32 3.78 3.82 3.78 4.37 3.78 4.65 4.47 4.65 5.76 4.65 7.1 4.36 7.76 3.83 7.76Z" fill="rgb(173,173,173)"/></svg>