<?xml version="1.0" encoding="utf-8"?>
<svg xmlns="http://www.w3.org/2000/svg"
	xmlns:xlink="http://www.w3.org/1999/xlink"
	width="26px" height="26px" viewBox="0 0 26 26">
<filter filterUnits="objectBoundingBox" x="-27.78" y="-27.78" width="155.56" height="166.67" id="filter0">
<feGaussianBlur in="SourceAlpha" stdDeviation="2.50" result="dsBlurOut1"/>
<feFlood flood-color="rgb(0,0,0)" flood-opacity="0.26" result="dsFloodOut1"/>
<feComposite in="dsFloodOut1" in2="dsBlurOut1" operator="in" result="dsShadow1"/>
<feOffset in="dsShadow1" dx="-0.00" dy="3.00" result="dsOffset1"/>
<feComposite in="dsOffset1" in2="SourceAlpha" operator="out" result="dropShadow1"/>
<feBlend in="dropShadow1" in2="SourceGraphic" mode="normal" result="sourceGraphic"/>
</filter>
<circle cx="13.00" cy="10.00" r="9.00" fill="rgb(255,255,255)" filter="url(#filter0)"/><path fillRule="evenodd" d="M 17.7 9.16C 17.7 9.16 17.55 8.98 17.55 8.98 17.83 9.6 17.99 10.28 17.99 11 17.99 13.76 15.75 16 12.99 16 10.24 16 8 13.76 8 11 8 8.95 9.24 7.19 11 6.42 11 6.42 11 5 11 5 11 5 10 5 10 5 10 5 10 4 10 4 10 4 16 4 16 4 16 4 16 5 16 5 16 5 15 5 15 5 15 5 15 6.43 15 6.43 15.43 6.62 15.83 6.87 16.19 7.17 16.19 7.17 17.44 6.17 17.44 6.17 17.44 6.17 19 8.13 19 8.13 19 8.13 17.7 9.16 17.7 9.16ZM 12.99 7.67C 11.16 7.67 9.66 9.16 9.66 11 9.66 12.84 11.16 14.33 12.99 14.33 14.83 14.33 16.32 12.84 16.32 11 16.32 9.16 14.83 7.67 12.99 7.67ZM 12.81 11.45C 12.8 11.45 12.8 11.45 12.79 11.45 12.68 11.45 12.58 11.43 12.48 11.39 12.48 11.39 12.66 9.93 12.66 9.93 12.7 9.92 12.75 9.92 12.79 9.92 12.85 9.92 12.91 9.95 12.97 9.96 13.01 9.97 13.05 9.97 13.09 9.99 13.21 10.03 13.32 10.1 13.4 10.21 13.48 10.31 13.53 10.43 13.55 10.55 13.57 10.66 13.57 10.79 13.53 10.9 13.53 10.9 14.65 13.07 14.65 13.07 14.65 13.07 12.81 11.45 12.81 11.45Z" fill="rgb(13,37,63)"/></svg>