<?xml version="1.0" encoding="utf-8"?>
<svg xmlns="http://www.w3.org/2000/svg"
	xmlns:xlink="http://www.w3.org/1999/xlink"
	width="12px" height="12px" viewBox="0 0 12 12">
<path fillRule="evenodd" d="M 8.22-0C 6.13-0 4.44 1.69 4.44 3.78 4.44 4.22 4.53 4.67 4.67 5.11 4.67 5.11-0 9.78-0 9.78-0 9.78-0 12-0 12-0 12 2.22 12 2.22 12 2.22 12 2.22 10.67 2.22 10.67 2.22 10.67 3.56 10.67 3.56 10.67 3.56 10.67 3.56 9.33 3.56 9.33 3.56 9.33 4.89 9.33 4.89 9.33 4.89 9.33 6.89 7.33 6.89 7.33 7.29 7.47 7.73 7.56 8.22 7.56 10.31 7.56 12 5.87 12 3.78 12 1.69 10.31-0 8.22-0ZM 9.33 4C 8.58 4 8 3.42 8 2.67 8 1.91 8.58 1.33 9.33 1.33 10.09 1.33 10.67 1.91 10.67 2.67 10.67 3.42 10.09 4 9.33 4Z" fill="rgb(173,173,173)"/></svg>