<?xml version="1.0" encoding="utf-8"?>
<svg xmlns="http://www.w3.org/2000/svg"
	xmlns:xlink="http://www.w3.org/1999/xlink"
	width="21px" height="15px" viewBox="0 0 21 15">
<path fillRule="evenodd" d="M 18.37 11C 18.37 11 9 11 9 11 9 11 7 15 7 15 7 15 5 11 5 11 5 11 2.62 11 2.62 11 1.18 11-0 9.82-0 8.37-0 8.37-0 2.62-0 2.62-0 1.18 1.18-0 2.62-0 2.62-0 18.37-0 18.37-0 19.82-0 21 1.18 21 2.62 21 2.62 21 8.37 21 8.37 21 9.82 19.82 11 18.37 11ZM 7.98 5.22C 7.98 5.22 5.72 5.22 5.72 5.22 5.72 5.22 5.72 6.3 5.72 6.3 5.72 6.3 6.66 6.3 6.66 6.3 6.66 6.3 6.66 7.57 6.66 7.57 6.55 7.62 6.3 7.66 5.98 7.66 4.86 7.66 4.07 6.92 4.07 5.67 4.07 4.35 4.94 3.7 6.08 3.7 6.75 3.7 7.16 3.82 7.49 3.96 7.49 3.96 7.78 2.87 7.78 2.87 7.49 2.72 6.88 2.57 6.1 2.57 4.11 2.57 2.64 3.72 2.63 5.74 2.62 6.63 2.93 7.42 3.49 7.94 4.05 8.48 4.85 8.76 5.95 8.76 6.76 8.76 7.56 8.56 7.98 8.42 7.98 8.42 7.98 5.22 7.98 5.22ZM 12.85 3.07C 12.44 2.75 11.84 2.59 10.99 2.59 10.18 2.59 9.56 2.64 9.14 2.71 9.14 2.71 9.14 8.7 9.14 8.7 9.14 8.7 10.5 8.7 10.5 8.7 10.5 8.7 10.5 6.54 10.5 6.54 10.63 6.55 10.79 6.57 10.98 6.57 11.78 6.57 12.47 6.36 12.94 5.92 13.3 5.58 13.5 5.08 13.5 4.48 13.5 3.88 13.24 3.38 12.85 3.07ZM 16.82 5.1C 16.03 4.8 15.69 4.63 15.69 4.24 15.69 3.93 15.98 3.66 16.57 3.66 17.17 3.66 17.6 3.83 17.84 3.95 17.84 3.95 18.15 2.84 18.15 2.84 17.79 2.68 17.29 2.54 16.6 2.54 15.17 2.54 14.31 3.33 14.31 4.36 14.31 5.24 14.96 5.8 15.97 6.15 16.7 6.41 16.99 6.63 16.99 7.01 16.99 7.4 16.66 7.66 16.03 7.66 15.44 7.66 14.87 7.47 14.5 7.29 14.5 7.29 14.22 8.42 14.22 8.42 14.57 8.61 15.25 8.8 15.94 8.8 17.61 8.8 18.39 7.92 18.39 6.91 18.39 6.05 17.89 5.49 16.82 5.1ZM 10.96 5.5C 10.76 5.5 10.6 5.49 10.5 5.48 10.5 5.48 10.5 3.67 10.5 3.67 10.6 3.65 10.78 3.62 11.05 3.62 11.76 3.62 12.14 3.96 12.14 4.52 12.14 5.13 11.69 5.5 10.96 5.5Z" fill="rgb(173,173,173)"/></svg>