<?xml version="1.0" encoding="utf-8"?>
<svg xmlns="http://www.w3.org/2000/svg"
	xmlns:xlink="http://www.w3.org/1999/xlink"
	width="22px" height="15px" viewBox="0 0 22 15">
<path fillRule="evenodd" d="M 19.38-0C 19.38-0 2.62-0 2.62-0 1.18-0-0 1.18-0 2.62-0 2.62-0 8.38-0 8.38-0 9.82 1.18 11 2.62 11 2.62 11 6 11 6 11 6 11 8 15 8 15 8 15 10 11 10 11 10 11 19.38 11 19.38 11 20.82 11 22 9.82 22 8.38 22 8.38 22 2.62 22 2.62 22 1.18 20.82-0 19.38-0ZM 7.69 7.43C 8.06 7.72 8.06 8.3 7.69 8.65 7.32 8.99 6.71 8.99 6.34 8.65 4.55 6.96 4.56 4.22 6.34 2.53 6.71 2.18 7.32 2.18 7.69 2.53 8.06 2.88 8.06 3.45 7.69 3.8 6.61 4.82 6.64 6.44 7.69 7.43ZM 11 6.52C 10.46 6.52 10.02 6.1 10.02 5.59 10.02 5.07 10.46 4.65 11 4.65 11.54 4.65 11.98 5.07 11.98 5.59 11.98 6.1 11.54 6.52 11 6.52ZM 15.35 8.65C 14.98 8.99 14.37 8.99 14.01 8.65 13.64 8.3 13.64 7.72 14.01 7.43 15.05 6.44 15.08 4.82 14 3.8 13.64 3.45 13.64 2.88 14 2.53 14.37 2.18 14.98 2.18 15.35 2.53 17.14 4.22 17.14 6.96 15.35 8.65Z" fill="rgb(173,173,173)"/></svg>