<?xml version="1.0" encoding="utf-8"?>
<svg xmlns="http://www.w3.org/2000/svg"
	xmlns:xlink="http://www.w3.org/1999/xlink"
	width="14px" height="12px" viewBox="0 0 14 12">
<path fillRule="evenodd" d="M 4 8.76C 4 8.76 7.11 7.21 7.11 7.21 7.11 7.21 7.53 7 7.53 7 7.53 7 8 7 8 7 8 7 12 7 12 7 12 7 12 2 12 2 12 2 2 2 2 2 2 2 2 7 2 7 2 7 4 7 4 7 4 7 4 8.76 4 8.76M 2 12C 2 12 2 9 2 9 2 9-0 9-0 9-0 9-0-0-0-0-0-0 14-0 14-0 14-0 14 9 14 9 14 9 8 9 8 9 8 9 2 12 2 12 2 12 2 12 2 12Z" fill="rgb(173,173,173)"/></svg>