<?xml version="1.0" encoding="utf-8"?>
<svg xmlns="http://www.w3.org/2000/svg"
	xmlns:xlink="http://www.w3.org/1999/xlink"
	width="15px" height="13px" viewBox="0 0 15 13">
<g><path fillRule="evenodd" d="M 4 9.76C 4 9.76 7.11 8.21 7.11 8.21 7.11 8.21 7.53 8 7.53 8 7.53 8 8 8 8 8 8 8 12 8 12 8 12 8 12 3 12 3 12 3 2 3 2 3 2 3 2 8 2 8 2 8 4 8 4 8 4 8 4 9.76 4 9.76M 2 13C 2 13 2 10 2 10 2 10-0 10-0 10-0 10-0 1-0 1-0 1 14 1 14 1 14 1 14 10 14 10 14 10 8 10 8 10 8 10 2 13 2 13 2 13 2 13 2 13Z" fill="rgb(173,173,173)"/><path fillRule="evenodd" d="M 4 7C 4 7 4 6 4 6 4 6 10 6 10 6 10 6 10 7 10 7 10 7 4 7 4 7ZM 4 4C 4 4 10 4 10 4 10 4 10 5 10 5 10 5 4 5 4 5 4 5 4 4 4 4Z" fill="rgb(173,173,173)"/><circle cx="12.00" cy="3.00" r="3.00" fill="rgb(31,193,253)"/></g></svg>