<?xml version="1.0" encoding="utf-8"?>
<svg xmlns="http://www.w3.org/2000/svg"
	xmlns:xlink="http://www.w3.org/1999/xlink"
	width="27px" height="12px" viewBox="0 0 27 12">
<path fillRule="evenodd" d="M 24.38 12C 24.38 12 24.37 12 24.37 12 24.37 12 20 12 20 12 20 12 2.62 12 2.62 12 1.18 12-0 10.82-0 9.38-0 9.38-0 2.62-0 2.62-0 1.18 1.18-0 2.62-0 2.62-0 20-0 20-0 20-0 22.96-0 22.96-0 22.96-0 24.19-0 24.19-0 24.19-0 24.38-0 24.38-0 24.38-0 24.4-0 24.4-0 25.83-0 27 1.18 27 2.62 27 2.62 27 9.37 27 9.37 27 9.37 27 9.38 27 9.38 27 10.82 25.82 12 24.38 12ZM 21.53 5.47C 21.53 5.47 21.42 5.58 21.42 5.58 21.42 5.58 21.81 6.66 21.81 6.66 21.81 6.66 22.09 6.38 22.09 6.38 22.28 6.18 22.58 5.95 22.91 5.95 23.37 5.95 23.6 6.25 23.6 6.85 23.59 7.66 23.05 8.39 21.9 9.76 21.9 9.76 21.34 10.42 21.34 10.42 21.34 10.42 21.34 11 21.34 11 21.34 11 24.38 11 24.38 11 24.54 11 24.69 10.97 24.84 10.92 24.84 10.92 24.84 10.1 24.84 10.1 24.84 10.1 23.01 10.1 23.01 10.1 23.01 10.1 23.05 10.05 23.05 10.05 24.03 8.87 24.73 7.94 24.73 6.75 24.73 5.78 24.21 4.8 23.04 4.8 22.48 4.8 21.94 5.04 21.53 5.47ZM 2.62 1C 1.73 1 1 1.73 1 2.62 1 2.62 1 9.37 1 9.37 1 10.27 1.73 11 2.62 11 2.62 11 20 11 20 11 20 11 20 1 20 1 20 1 2.62 1 2.62 1ZM 24 1C 24 1 22.96 1 22.96 1 22.96 1 22.96 4.1 22.96 4.1 22.96 4.1 24.19 4.1 24.19 4.1 24.19 4.1 24.19 1 24.19 1 24.19 1 24 1 24 1ZM 17.34 9.05C 16.3 9.05 15.67 7.83 15.65 5.79 15.65 3.76 16.33 2.5 17.41 2.5 18.48 2.5 19.09 3.67 19.09 5.71 19.09 8.62 17.99 9.05 17.34 9.05ZM 17.38 3.62C 17.12 3.62 16.74 4.2 16.74 5.8 16.74 7.27 17.07 7.94 17.37 7.94 17.76 7.94 18.01 7.08 18.01 5.75 18.01 4.44 17.76 3.62 17.38 3.62ZM 13.37 9.05C 12.35 9.05 11.73 7.83 11.72 5.79 11.72 3.76 12.38 2.5 13.44 2.5 14.49 2.5 15.09 3.67 15.09 5.71 15.09 8.62 14.01 9.05 13.37 9.05ZM 13.41 3.62C 13.16 3.62 12.79 4.2 12.79 5.8 12.79 7.37 13.16 7.94 13.4 7.94 13.69 7.94 14.02 7.36 14.02 5.75 14.02 4.18 13.7 3.62 13.41 3.62ZM 9.23 8.96C 8.19 8.96 7.56 7.74 7.55 5.7 7.55 3.67 8.22 2.41 9.3 2.41 10.37 2.41 10.98 3.58 10.98 5.62 10.98 8.52 9.88 8.96 9.23 8.96ZM 9.27 3.53C 9.01 3.53 8.63 4.11 8.63 5.71 8.63 7.18 8.96 7.85 9.26 7.85 9.65 7.85 9.9 6.99 9.9 5.66 9.9 4.34 9.66 3.53 9.27 3.53ZM 5.17 8.96C 4.15 8.96 3.53 7.74 3.52 5.7 3.52 3.67 4.18 2.41 5.24 2.41 6.29 2.41 6.89 3.58 6.89 5.62 6.89 8.52 5.81 8.96 5.17 8.96ZM 5.21 3.53C 4.96 3.53 4.59 4.11 4.59 5.71 4.59 7.28 4.96 7.85 5.2 7.85 5.49 7.85 5.82 7.27 5.82 5.66 5.82 4.09 5.5 3.53 5.21 3.53Z" fill="rgb(173,173,173)"/></svg>