<?xml version="1.0" encoding="utf-8"?>
<svg xmlns="http://www.w3.org/2000/svg"
	xmlns:xlink="http://www.w3.org/1999/xlink"
	width="24px" height="12px" viewBox="0 0 24 12">
<path fillRule="evenodd" d="M 22.34 11.09C 22.34 11.05 22.34 11.02 22.33 10.96 22.33 10.91 22.33 10.86 22.32 10.78 22.31 10.71 22.3 10.63 22.29 10.54 22.28 10.45 22.27 10.35 22.26 10.25 22.24 10.16 22.23 10.06 22.21 9.95 22.13 9.52 22.01 9 21.81 8.43 21.61 7.86 21.33 7.24 20.94 6.6 20.56 5.97 20.06 5.33 19.46 4.72 19.15 4.42 18.83 4.13 18.47 3.86 18.3 3.72 18.11 3.59 17.92 3.46 17.83 3.4 17.73 3.34 17.63 3.28 17.53 3.21 17.43 3.16 17.33 3.1 16.53 2.63 15.63 2.27 14.68 2.03 14.21 1.91 13.72 1.83 13.23 1.77 12.99 1.75 12.74 1.73 12.5 1.73 12.37 1.72 12.25 1.72 12.13 1.72 12.13 1.72 11.74 1.72 11.74 1.72 11.51 1.74 11.29 1.75 11.03 1.78 10.78 1.8 10.54 1.84 10.3 1.88 9.83 1.97 9.36 2.08 8.9 2.23 8 2.53 7.16 2.95 6.43 3.45 6.33 3.51 6.24 3.58 6.16 3.64 6.07 3.71 5.98 3.77 5.9 3.84 5.73 3.98 5.56 4.11 5.4 4.25 5.09 4.53 4.8 4.83 4.54 5.13 4.02 5.74 3.61 6.37 3.31 6.98 3 7.59 2.79 8.17 2.65 8.7 2.5 9.23 2.44 9.7 2.4 10.09 2.39 10.19 2.38 10.28 2.37 10.36 2.37 10.45 2.37 10.53 2.36 10.61 2.36 10.76 2.35 10.89 2.36 10.99 2.36 11.03 2.36 11.06 2.36 11.09 2.36 11.09-0.03 11.09-0.03 11.09 0.09 4.95 5.32-0 11.76-0 18.2-0 23.42 4.95 23.54 11.09 23.54 11.09 22.34 11.09 22.34 11.09ZM 13.33 11.02C 13.33 11.02 16.11 7.13 16.11 7.13 16.11 7.13 12.03 9.77 12.03 9.77 11.56 9.7 11.06 9.83 10.69 10.18 10.42 10.44 10.29 10.76 10.26 11.09 10.26 11.09 2.38 11.09 2.38 11.09 2.38 11.06 2.38 11.03 2.38 10.99 2.39 10.89 2.4 10.76 2.42 10.61 2.43 10.54 2.44 10.46 2.45 10.37 2.47 10.29 2.48 10.2 2.5 10.1 2.57 9.72 2.68 9.27 2.86 8.76 3.04 8.26 3.29 7.71 3.64 7.15 3.98 6.58 4.42 6.02 4.96 5.49 5.23 5.22 5.51 4.97 5.83 4.73 5.99 4.61 6.16 4.5 6.32 4.38 6.4 4.32 6.49 4.27 6.58 4.22 6.66 4.16 6.75 4.11 6.84 4.06 7.56 3.65 8.35 3.34 9.19 3.13 9.6 3.03 10.03 2.96 10.46 2.91 10.68 2.89 10.89 2.87 11.1 2.87 11.3 2.86 11.55 2.87 11.77 2.87 11.75 2.87 11.77 2.87 11.77 2.87 11.77 2.87 11.78 2.88 11.78 2.88 11.78 2.88 11.8 2.88 11.8 2.88 11.8 2.88 11.84 2.88 11.84 2.88 11.84 2.88 11.92 2.88 11.92 2.88 11.92 2.88 12.08 2.9 12.08 2.9 12.19 2.9 12.3 2.91 12.4 2.93 12.62 2.95 12.83 2.98 13.04 3.02 13.46 3.1 13.87 3.2 14.27 3.34 15.06 3.6 15.79 3.97 16.44 4.42 16.52 4.47 16.6 4.53 16.67 4.58 16.75 4.64 16.83 4.7 16.9 4.76 17.05 4.88 17.2 5 17.33 5.12 17.61 5.37 17.85 5.63 18.08 5.9 18.53 6.43 18.89 6.98 19.16 7.52 19.42 8.05 19.6 8.57 19.72 9.03 19.84 9.49 19.9 9.9 19.93 10.24 19.94 10.33 19.95 10.41 19.95 10.48 19.95 10.55 19.96 10.62 19.96 10.68 19.96 10.74 19.96 10.8 19.96 10.85 19.97 10.9 19.96 10.97 19.96 11.02 19.96 11.05 19.96 11.06 19.96 11.09 19.96 11.09 13.33 11.09 13.33 11.09 13.33 11.07 13.33 11.04 13.33 11.02Z" fill="rgb(173,173,173)"/></svg>