<?xml version="1.0" encoding="utf-8"?>
<svg xmlns="http://www.w3.org/2000/svg"
	xmlns:xlink="http://www.w3.org/1999/xlink"
	width="12px" height="12px" viewBox="0 0 12 12">
<path fillRule="evenodd" d="M 6-0.01C 2.68-0.01-0.01 2.68-0.01 6-0.01 9.32 2.68 12.01 6 12.01 9.32 12.01 12.01 9.32 12.01 6 12.01 2.68 9.32-0.01 6-0.01ZM 1.98 6C 1.98 3.78 3.78 1.98 6 1.98 7 1.98 7.49 2.11 8.19 2.72 8.19 2.72 2.81 8.09 2.81 8.09 2.2 7.39 1.98 7 1.98 6ZM 6 10.02C 5.11 10.02 4.74 9.8 4.07 9.3 4.07 9.3 9.5 4 9.5 4 9.99 4.67 10.02 5.11 10.02 6 10.02 8.22 8.22 10.02 6 10.02Z" fill="rgb(19,45,73)"/></svg>