<?xml version="1.0" encoding="utf-8"?>
<svg xmlns="http://www.w3.org/2000/svg"
	xmlns:xlink="http://www.w3.org/1999/xlink"
	width="18px" height="12px" viewBox="0 0 18 12">
<path fillRule="evenodd" d="M 17.63 10.44C 17.63 10.44 16.51 10.44 16.51 10.44 16.51 9.24 15.4 8.25 14.03 8.25 12.66 8.25 11.55 9.24 11.55 10.44 11.55 10.44 6.57 10.44 6.57 10.44 6.57 9.24 5.45 8.25 4.08 8.25 2.72 8.25 1.6 9.24 1.6 10.44 1.6 10.44 0.36 10.44 0.36 10.44 0.16 10.44 0 10.3 0 10.12 0 10.12 0 9 0 9 0 8.83 0.16 8.69 0.36 8.69 0.36 8.69 0.55 8.69 0.55 8.69 0.55 8.69 0.55 1.28 0.55 1.28 0.55 0.57 1.2-0 2-0 2-0 11.07-0 11.07-0 11.27-0 11.44 0.14 11.44 0.32 11.44 0.32 11.44 1.65 11.44 1.65 11.44 1.65 14.71 1.65 14.71 1.65 14.91 1.65 15.17 1.77 15.29 1.91 15.29 1.91 17.3 4.24 17.3 4.24 17.42 4.38 17.52 4.64 17.52 4.81 17.52 4.81 17.52 8.69 17.52 8.69 17.52 8.69 17.64 8.69 17.64 8.69 17.84 8.69 18 8.83 18 9 18 9 18 10.12 18 10.12 18 10.3 17.83 10.44 17.63 10.44ZM 14.42 3.11C 14.31 2.97 14.06 2.86 13.87 2.86 13.87 2.86 12.36 2.86 12.36 2.86 12.36 2.86 12.36 4.73 12.36 4.73 12.36 4.73 15.77 4.73 15.77 4.73 15.77 4.73 14.42 3.11 14.42 3.11ZM 4.09 8.88C 5.06 8.88 5.86 9.58 5.86 10.44 5.86 11.3 5.06 12 4.09 12 3.11 12 2.31 11.3 2.31 10.44 2.31 9.58 3.11 8.88 4.09 8.88ZM 4.09 10.96C 4.41 10.96 4.67 10.73 4.67 10.44 4.67 10.16 4.41 9.92 4.09 9.92 3.76 9.92 3.5 10.16 3.5 10.44 3.5 10.73 3.76 10.96 4.09 10.96ZM 14.03 8.88C 15.01 8.88 15.8 9.58 15.8 10.44 15.8 11.3 15.01 12 14.03 12 13.05 12 12.26 11.3 12.26 10.44 12.26 9.58 13.05 8.88 14.03 8.88ZM 14.03 10.96C 14.36 10.96 14.62 10.73 14.62 10.44 14.62 10.16 14.36 9.92 14.03 9.92 13.71 9.92 13.44 10.16 13.44 10.44 13.44 10.73 13.71 10.96 14.03 10.96Z" fill="rgb(255,255,255)"/></svg>