<?xml version="1.0" encoding="utf-8"?>
<svg xmlns="http://www.w3.org/2000/svg"
	xmlns:xlink="http://www.w3.org/1999/xlink"
	width="20px" height="9px" viewBox="0 0 20 9">
<path fillRule="evenodd" d="M 19.27 3.49C 18.9 3.36 16.35 2.78 16.35 2.78 16.35 2.78 11.61 0 11.05 0 10.48 0 6.58 0 6.58 0 5.63 0 4.83 0.75 3.91 1.62 3.48 2.03 3 2.48 2.47 2.88 2.47 2.88 0.5 3.15 0.5 3.15 0.21 3.25 0.01 3.52 0.01 3.85 0.01 3.85 0.01 6.18 0.01 6.18 0.01 6.58 0.32 6.91 0.71 6.91 0.71 6.91 2.07 6.91 2.07 6.91 2.17 8.08 3.12 9 4.28 9 5.43 9 6.39 8.08 6.48 6.91 6.48 6.91 12.94 6.91 12.94 6.91 13.04 8.08 13.99 9 15.15 9 16.31 9 17.26 8.08 17.36 6.91 17.36 6.91 18.47 6.91 18.47 6.91 19.35 6.91 19.78 6.52 19.89 6.15 20.16 5.21 19.97 3.73 19.27 3.49ZM 4.28 7.9C 3.64 7.9 3.13 7.36 3.13 6.71 3.13 6.05 3.64 5.52 4.28 5.52 4.91 5.52 5.42 6.05 5.42 6.71 5.42 7.36 4.91 7.9 4.28 7.9ZM 8.54 2.79C 8.54 2.79 4.69 2.79 4.69 2.79 4.97 2.56 5.22 2.32 5.46 2.09 6.08 1.5 6.62 1 7.27 1 7.27 1 7.85 1 8.54 1 8.54 1 8.54 2.79 8.54 2.79 8.54 2.79 8.54 2.79 8.54 2.79ZM 9.48 0.99C 9.95 0.99 10.38 0.99 10.59 0.99 11.12 0.99 13.28 2.29 14.08 2.79 14.08 2.79 9.48 2.79 9.48 2.79 9.48 2.79 9.48 0.99 9.48 0.99 9.48 0.99 9.48 0.99 9.48 0.99ZM 15.15 7.9C 14.52 7.9 14 7.36 14 6.71 14 6.05 14.52 5.52 15.15 5.52 15.79 5.52 16.3 6.05 16.3 6.71 16.3 7.36 15.79 7.9 15.15 7.9Z" fill="rgb(19,43,71)"/></svg>