<?xml version="1.0" encoding="utf-8"?>
<svg xmlns="http://www.w3.org/2000/svg"
	xmlns:xlink="http://www.w3.org/1999/xlink"
	width="14px" height="14px" viewBox="0 0 14 14">
<path fillRule="evenodd" d="M 12 14C 12 14 2 14 2 14 2 14-0 14-0 14-0 14-0 12.11-0 12.11-0 12.11-0 3.08-0 3.08-0 3.08 2 3.08 2 3.08 2 3.08 2 12.11 2 12.11 2 12.11 12 12.11 12 12.11 12 12.11 12 7.08 12 7.08 12 7.08 14 7.08 14 7.08 14 7.08 14 12.11 14 12.11 14 12.11 14 14 14 14 14 14 12 14 12 14ZM 11.44 3.23C 11.44 3.23 7.78 6.92 7.78 6.92 7.78 6.92 6.37 5.49 6.37 5.49 6.37 5.49 10.2 1.63 10.2 1.63 10.2 1.63 8.03 1.64 8.03 1.64 8.03 1.64 8-0 8-0 8-0 13-0 13-0 13-0 13 5 13 5 13 5 11.44 5.12 11.44 5.12 11.44 5.12 11.44 3.23 11.44 3.23ZM-0 1C-0 1 5 1 5 1 5 1 5 3 5 3 5 3-0 3-0 3-0 3-0 1-0 1Z" fill="rgb(173,173,173)"/></svg>