<?xml version="1.0" encoding="utf-8"?>
<svg xmlns="http://www.w3.org/2000/svg"
	xmlns:xlink="http://www.w3.org/1999/xlink"
	width="18px" height="18px" viewBox="0 0 18 18">
<path fillRule="evenodd" d="M 18 13.27C 18 13.27 18 15.27 18 15.27 18 15.59 17.86 15.86 17.63 16.05 17.85 16.39 17.84 16.84 17.58 17.18 17.48 17.32 17.35 17.45 17.21 17.56 17.21 17.56 17.21 17.56 17.21 17.56 17.21 17.56 17.21 17.56 17.21 17.56 17.2 17.56 17.2 17.57 17.2 17.57 17.2 17.57 17.2 17.57 17.2 17.57 17.2 17.57 17.2 17.57 17.19 17.57 17.19 17.57 17.19 17.57 17.19 17.57 17.19 17.57 17.19 17.57 17.19 17.57 17.19 17.57 17.19 17.57 17.19 17.57 17.19 17.58 17.19 17.58 17.18 17.58 17.18 17.58 17.18 17.58 17.18 17.58 17.18 17.58 17.18 17.58 17.18 17.58 17.18 17.58 17.18 17.58 17.18 17.58 17.18 17.58 17.18 17.58 17.18 17.58 17.18 17.58 17.18 17.58 17.18 17.58 17.18 17.58 17.18 17.59 17.17 17.59 17.17 17.59 17.17 17.59 17.17 17.59 17.17 17.59 17.17 17.59 17.17 17.59 17.17 17.59 17.16 17.59 17.16 17.59 17.16 17.59 17.16 17.59 17.16 17.59 17.16 17.59 17.16 17.6 17.16 17.6 17.16 17.6 17.16 17.6 17.16 17.6 17.16 17.6 17.16 17.6 17.16 17.6 17.16 17.6 17.16 17.6 17.16 17.6 17.16 17.6 17.16 17.6 17.16 17.6 17.15 17.6 17.15 17.6 17.15 17.6 17.15 17.6 17.15 17.6 17.15 17.6 17.15 17.6 17.15 17.61 17.15 17.61 17.15 17.61 17.15 17.61 17.15 17.61 17.15 17.61 17.15 17.61 17.15 17.61 17.14 17.61 17.14 17.61 17.14 17.61 17.14 17.61 17.14 17.61 17.14 17.61 17.14 17.61 17.14 17.61 17.14 17.61 17.14 17.61 17.14 17.61 17.14 17.61 17.14 17.61 17.14 17.61 17.14 17.61 17.14 17.61 17.14 17.61 17.14 17.61 17.14 17.61 17.13 17.61 17.13 17.62 17.13 17.62 17.13 17.62 17.13 17.62 17.13 17.62 17.13 17.62 17.13 17.62 17.13 17.62 17.13 17.62 17.13 17.62 17.13 17.62 17.13 17.62 17.13 17.62 17.13 17.62 17.13 17.62 17.13 17.62 17.13 17.62 17.13 17.62 17.13 17.62 17.13 17.62 17.13 17.62 17.12 17.62 17.12 17.62 17.12 17.62 17.12 17.62 17.12 17.62 17.12 17.62 17.12 17.62 17.12 17.62 17.12 17.63 17.12 17.63 17.12 17.63 17.12 17.63 17.12 17.63 17.12 17.63 17.12 17.63 17.12 17.63 17.12 17.63 17.12 17.63 17.12 17.63 17.11 17.63 17.11 17.63 17.11 17.63 17.11 17.63 17.11 17.63 17.11 17.63 17.11 17.63 17.11 17.63 17.11 17.63 17.11 17.63 17.11 17.63 17.11 17.63 17.11 17.63 17.11 17.63 17.11 17.63 17.11 17.63 17.11 17.63 17.11 17.63 17.11 17.64 17.11 17.64 17.1 17.64 17.1 17.64 17.1 17.64 17.1 17.64 17.1 17.64 17.1 17.64 17.1 17.64 17.1 17.64 17.1 17.64 17.1 17.64 17.1 17.64 17.1 17.64 17.1 17.64 17.1 17.64 17.1 17.64 17.1 17.64 17.1 17.64 17.1 17.64 17.1 17.64 17.1 17.64 17.09 17.64 17.09 17.64 17.09 17.64 17.09 17.64 17.09 17.64 17.09 17.64 17.09 17.64 17.09 17.64 17.09 17.65 17.09 17.65 17.09 17.65 17.09 17.65 17.09 17.65 17.09 17.65 17.09 17.65 17.09 17.65 17.08 17.65 17.08 17.65 17.08 17.65 17.08 17.65 17.08 17.65 17.08 17.65 17.08 17.65 17.08 17.65 17.08 17.65 17.08 17.65 17.08 17.65 17.08 17.65 17.08 17.65 17.08 17.65 17.08 17.65 17.08 17.66 17.08 17.66 17.08 17.66 17.07 17.66 17.07 17.66 17.07 17.66 17.07 17.66 17.07 17.66 17.07 17.66 17.07 17.66 17.07 17.66 17.07 17.66 17.07 17.66 17.07 17.66 17.07 17.66 17.07 17.66 17.07 17.66 17.07 17.66 17.07 17.66 17.07 17.66 17.07 17.66 17.07 17.66 17.06 17.66 17.06 17.66 17.06 17.66 17.06 17.66 17.06 17.66 17.06 17.66 17.06 17.66 17.06 17.67 17.06 17.67 17.06 17.67 17.06 17.67 17.06 17.67 17.06 17.67 17.06 17.67 17.06 17.67 17.06 17.67 17.06 17.67 17.06 17.67 17.06 17.67 17.06 17.67 17.06 17.67 17.05 17.67 17.05 17.67 17.05 17.67 17.05 17.67 17.05 17.67 17.05 17.67 17.05 17.67 17.05 17.67 17.05 17.67 17.05 17.67 17.05 17.68 17.05 17.68 17.05 17.68 17.04 17.68 17.04 17.68 17.04 17.68 17.04 17.68 17.04 17.68 17.04 17.68 17.04 17.68 17.04 17.68 17.04 17.68 17.04 17.68 17.04 17.68 17.04 17.68 17.03 17.68 17.03 17.68 17.03 17.68 17.03 17.68 17.03 17.68 17.03 17.69 17.03 17.69 17.03 17.69 17.03 17.69 17.03 17.69 17.03 17.69 17.03 17.69 17.03 17.69 17.02 17.69 17.02 17.69 17.02 17.69 17.02 17.69 17.02 17.69 17.02 17.69 17.02 17.69 17.02 17.69 17.02 17.69 17.02 17.69 17.02 17.69 17.02 17.69 17.01 17.7 17.01 17.7 17.01 17.7 17.01 17.7 17.01 17.7 17.01 17.7 17.01 17.7 17.01 17.7 17.01 17.7 17.01 17.7 17.01 17.7 17.01 17.7 17.01 17.7 17 17.7 17 17.71 16.99 17.71 16.99 17.71 16.99 17.71 16.99 17.71 16.99 17.71 16.99 17.71 16.99 17.71 16.99 17.71 16.99 17.71 16.99 17.71 16.98 17.71 16.98 17.72 16.97 17.72 16.97 17.72 16.97 17.72 16.97 17.72 16.97 17.72 16.97 17.72 16.97 17.72 16.97 17.72 16.97 17.72 16.97 17.72 16.81 17.82 16.63 17.89 16.44 17.94 16.44 17.94 16.44 17.94 16.44 17.94 16.43 17.94 16.42 17.94 16.42 17.94 16.42 17.94 16.42 17.94 16.41 17.94 16.41 17.94 16.41 17.94 16.41 17.94 16.41 17.95 16.4 17.95 16.39 17.95 16.39 17.95 16.39 17.95 16.39 17.95 16.38 17.95 16.37 17.95 16.35 17.96 16.35 17.96 16.35 17.96 16.35 17.96 16.35 17.96 16.34 17.96 16.33 17.96 16.33 17.96 16.33 17.96 16.33 17.96 16.33 17.96 16.33 17.96 16.33 17.96 16.33 17.96 16.33 17.96 16.33 17.96 16.32 17.96 16.32 17.96 16.31 17.96 16.31 17.96 16.31 17.96 16.31 17.97 16.31 17.97 16.31 17.97 16.31 17.97 16.31 17.97 16.31 17.97 16.31 17.97 16.31 17.97 16.31 17.97 16.31 17.97 16.31 17.97 16.31 17.97 16.31 17.97 16.3 17.97 16.3 17.97 16.3 17.97 16.3 17.97 16.3 17.97 16.3 17.97 16.29 17.97 16.29 17.97 16.29 17.97 16.29 17.97 16.29 17.97 16.29 17.97 16.29 17.97 16.29 17.97 16.29 17.97 16.29 17.97 16.29 17.97 16.29 17.97 16.29 17.97 16.29 17.97 16.28 17.97 16.28 17.97 16.28 17.97 16.28 17.97 16.28 17.97 16.28 17.97 16.27 17.97 16.27 17.97 16.27 17.97 16.27 17.97 16.27 17.97 16.27 17.97 16.27 17.97 16.27 17.97 16.27 17.97 16.27 17.97 16.27 17.97 16.27 17.97 16.27 17.97 16.27 17.97 16.27 17.97 16.26 17.97 16.26 17.97 16.26 17.98 16.25 17.98 16.25 17.98 16.25 17.98 16.25 17.98 16.25 17.98 16.25 17.98 16.25 17.98 16.25 17.98 16.25 17.98 16.25 17.98 16.24 17.98 16.24 17.98 16.24 17.98 16.24 17.98 16.24 17.98 16.24 17.98 16.24 17.98 16.23 17.98 16.23 17.98 16.23 17.98 16.23 17.98 16.23 17.98 16.23 17.98 16.23 17.98 16.23 17.98 16.23 17.98 16.23 17.98 16.23 17.98 16.23 17.98 16.22 17.98 16.22 17.98 16.22 17.98 16.22 17.98 16.22 17.98 16.22 17.98 16.22 17.98 16.22 17.98 16.22 17.98 16.22 17.98 16.22 17.98 16.22 17.98 16.21 17.98 16.21 17.98 16.21 17.98 16.21 17.98 16.21 17.98 16.21 17.98 16.21 17.98 16.21 17.98 16.21 17.98 16.21 17.98 16.21 17.98 16.21 17.98 16.21 17.98 16.2 17.98 16.2 17.98 16.2 17.98 16.2 17.98 16.2 17.98 16.2 17.98 16.2 17.98 16.2 17.98 16.2 17.98 16.2 17.98 16.2 17.98 16.2 17.98 16.2 17.98 16.19 17.98 16.19 17.98 16.19 17.98 16.19 17.98 16.19 17.98 16.19 17.98 16.19 17.98 16.19 17.98 16.19 17.98 16.19 17.98 16.19 17.98 16.18 17.98 16.18 17.98 16.18 17.99 16.18 17.99 16.18 17.99 16.18 17.99 16.18 17.99 16.18 17.99 16.18 17.99 16.18 17.99 16.18 17.99 16.18 17.99 16.18 17.99 16.18 17.99 16.17 17.99 16.17 17.99 16.17 17.99 16.17 17.99 16.17 17.99 16.17 17.99 16.17 17.99 16.17 17.99 16.17 17.99 16.17 17.99 16.17 17.99 16.16 17.99 16.16 17.99 16.16 17.99 16.16 17.99 16.16 17.99 16.16 17.99 16.16 17.99 16.16 17.99 16.16 17.99 16.16 17.99 16.16 17.99 16.16 17.99 16.16 17.99 16.16 17.99 16.16 17.99 16.16 17.99 16.15 17.99 16.15 17.99 16.15 17.99 16.15 17.99 16.15 17.99 16.15 17.99 16.15 17.99 16.15 17.99 16.15 17.99 16.14 17.99 16.14 17.99 16.14 17.99 16.14 17.99 16.14 17.99 16.14 17.99 16.14 17.99 16.14 17.99 16.14 17.99 16.14 17.99 16.14 17.99 16.14 17.99 16.14 17.99 16.14 17.99 16.14 17.99 16.14 17.99 16.14 17.99 16.13 17.99 16.13 17.99 16.13 17.99 16.13 17.99 16.13 17.99 16.13 17.99 16.13 17.99 16.13 17.99 16.13 17.99 16.13 17.99 16.13 17.99 16.13 17.99 16.13 17.99 16.13 17.99 16.12 17.99 16.12 17.99 16.12 17.99 16.12 17.99 16.12 17.99 16.12 17.99 16.12 17.99 16.12 17.99 16.12 17.99 16.12 17.99 16.12 17.99 16.12 17.99 16.12 17.99 16.12 17.99 16.12 17.99 16.12 17.99 16.12 17.99 16.11 17.99 16.11 17.99 16.11 17.99 16.11 17.99 16.11 17.99 16.11 17.99 16.11 17.99 16.11 17.99 16.1 17.99 16.1 17.99 16.1 17.99 16.1 17.99 16.1 17.99 16.1 17.99 16.1 17.99 16.1 17.99 16.1 17.99 16.1 17.99 16.1 17.99 16.1 17.99 16.1 17.99 16.1 17.99 16.1 17.99 16.1 17.99 16.09 17.99 16.09 17.99 16.09 17.99 16.09 17.99 16.09 17.99 16.09 17.99 16.09 17.99 16.09 17.99 16.09 17.99 16.09 17.99 16.09 17.99 16.09 17.99 16.08 17.99 16.08 17.99 16.08 17.99 16.08 17.99 16.08 17.99 16.08 17.99 16.08 17.99 16.08 17.99 16.08 17.99 16.08 17.99 16.08 18 16.08 18 16.08 18 16.07 18 16.07 18 16.07 18 16.07 18 16.07 18 16.07 18 16.07 18 16.07 18 16.07 18 16.07 18 16.07 18 16.07 18 16.07 18 16.07 18 16.07 18 16.07 18 16.06 18 16.06 18 16.06 18 16.06 18 16.06 18 16.06 18 16.06 18 16.06 18 16.06 18 16.06 18 16.06 18 16.06 18 16.06 18 16.06 18 16.06 18 16.05 18 16.05 18 16.05 18 16.05 18 16.05 18 16.05 18 16.05 18 16.05 18 16.05 18 16.05 18 16.05 18 16.05 18 16.05 18 16.05 18 16.05 18 16.04 18 16.04 18 16.04 18 16.04 18 16.04 18 16.04 18 16.04 18 16.04 18 16.04 18 16.04 18 16.03 18 16.03 18 16.03 18 16.03 18 16.03 18 16.03 18 16.03 18 16.03 18 16.03 18 16.03 18 16.03 18 16.03 18 16.03 18 16.03 18 16.03 18 16.03 18 16.02 18 16.02 18 16.02 18 16.02 18 16.02 18 16.02 18 16.02 18 16.02 18 16.02 18 16.02 18 16.02 18 16.02 18 16.02 18 16.02 18 16.02 18 16.01 18 16.01 18 16.01 18 16.01 18 16.01 18 16.01 18 16.01 18 16.01 18 16.01 18 16.01 18 16.01 18 16.01 18 16.01 18 16.01 18 16.01 18 16 18 16 18 16 18 16 18 16 18 16 18 16 18 16 18 16 18 16 18 16 18 16 18 16 18 16 18 16 18 15.99 18 15.99 18 15.99 18 15.99 18 15.99 18 15.99 18 15.99 18 15.99 18 15.99 18 15.99 18 15.99 18 15.99 18 15.99 18 15.99 18 15.99 18 15.99 18 15.98 18 15.98 18 15.98 18 15.98 18 15.98 18 15.98 18 15.98 18 15.98 18 15.98 18 15.98 18 15.98 18 15.98 18 15.98 18 15.98 18 15.98 18 15.97 18 15.97 18 15.97 18 15.97 18 15.97 18 15.97 18 15.97 18 15.97 18 15.97 18 15.97 18 15.97 18 15.97 18 15.97 18 15.97 18 15.97 18 15.97 18 15.96 18 15.96 18 15.96 18 15.96 18 15.96 18 15.96 18 15.96 18 15.96 18 15.96 18 15.96 18 15.96 18 15.96 18 15.96 18 15.96 18 15.96 18 15.95 18 15.95 18 15.95 18 15.95 18 15.95 18 15.95 18 15.95 18 15.95 18 15.95 18 15.95 18 15.95 18 15.95 18 15.95 18 15.95 18 15.95 18 15.94 18 15.94 18 15.94 18 15.94 18 15.94 18 15.94 18 15.94 18 15.94 18 15.94 18 15.94 18 15.94 18 15.94 18 15.94 18 15.94 18 15.94 18 15.93 18 15.93 18 15.93 18 15.84 18 15.84 18 15.29 18 14.84 17.55 14.84 17 14.84 16.45 15.29 16 15.84 16 15.84 16 15.93 16 15.93 16 15.94 16 15.97 16 15.99 15.97 16.04 15.91 16.09 15.85 16.15 15.8 16.06 15.65 16 15.47 16 15.27 16 15.27 16 13.27 16 13.27 16 12.72 16.45 12.27 17 12.27 17.55 12.27 18 12.72 18 13.27ZM 12.82 14.9C 12.63 15.09 12.37 15.19 12.12 15.19 11.86 15.19 11.6 15.09 11.41 14.9 11.02 14.51 11.02 13.88 11.41 13.48 11.41 13.48 13.49 11.41 13.49 11.41 13.88 11.02 14.51 11.02 14.9 11.41 15.29 11.8 15.29 12.43 14.9 12.82 14.9 12.82 12.82 14.9 12.82 14.9ZM 7.28 14.9C 7.09 15.09 6.83 15.19 6.58 15.19 6.32 15.19 6.07 15.09 5.87 14.9 5.48 14.51 5.48 13.88 5.87 13.48 5.87 13.48 13.49 5.87 13.49 5.87 13.88 5.48 14.51 5.48 14.9 5.87 15.29 6.26 15.29 6.89 14.9 7.28 14.9 7.28 7.28 14.9 7.28 14.9ZM 4.51 12.13C 4.32 12.33 4.06 12.42 3.81 12.42 3.55 12.42 3.3 12.33 3.1 12.13 2.71 11.74 2.71 11.11 3.1 10.72 3.1 10.72 10.72 3.1 10.72 3.1 11.11 2.71 11.74 2.71 12.13 3.1 12.52 3.49 12.52 4.12 12.13 4.51 12.13 4.51 4.51 12.13 4.51 12.13ZM 4.51 6.59C 4.32 6.79 4.06 6.88 3.81 6.88 3.55 6.88 3.3 6.79 3.1 6.59 2.71 6.2 2.71 5.57 3.1 5.18 3.1 5.18 5.18 3.1 5.18 3.1 5.57 2.71 6.2 2.71 6.59 3.1 6.98 3.49 6.98 4.12 6.59 4.51 6.59 4.51 4.51 6.59 4.51 6.59ZM 16 11.27C 16 11.27 16 9.27 16 9.27 16 8.72 16.45 8.27 17 8.27 17.55 8.27 18 8.72 18 9.27 18 9.27 18 11.27 18 11.27 18 11.83 17.55 12.27 17 12.27 16.45 12.27 16 11.83 16 11.27ZM 16 7.27C 16 7.27 16 5.27 16 5.27 16 4.72 16.45 4.27 17 4.27 17.55 4.27 18 4.72 18 5.27 18 5.27 18 7.27 18 7.27 18 7.83 17.55 8.27 17 8.27 16.45 8.27 16 7.83 16 7.27ZM 16 3.27C 16 3.27 16 2.07 16 2.07 16 2.05 16 2.03 16 2.01 15.98 2.01 15.97 2.01 15.95 2 15.94 2 15.94 2 15.93 2 15.93 2 13.93 2 13.93 2 13.38 2 12.93 1.55 12.93 1 12.93 0.45 13.38-0 13.93-0 13.93-0 15.93-0 15.93-0 15.93-0 15.93-0 15.93-0 15.93-0 15.93-0 15.93-0 15.94-0 15.94-0 15.94-0 15.94-0 15.94-0 15.94-0 15.94-0 15.94-0 15.94-0 15.94-0 15.94-0 15.94-0 15.94-0 15.94-0 15.94-0 15.94-0 15.94-0 15.95-0 15.95-0 15.95-0 15.95 0 15.95 0 15.95 0 15.95 0 15.95 0 15.95 0 15.95 0 15.95 0 15.95 0 15.95 0 15.95 0 15.95 0 15.95 0 15.95 0 15.96 0 15.96 0 15.96 0 15.96 0 15.96 0 15.96 0 15.96 0 15.96 0 15.96 0 15.96 0 15.96 0 15.96 0 15.96 0 15.96 0 15.96 0 15.96 0 15.96 0 15.97 0 15.97 0 15.97 0 15.97 0 15.97 0 15.97 0 15.97 0 15.97 0 15.97 0 15.97 0 15.97 0 15.97 0 15.97 0 15.97 0 15.97 0 15.97 0 15.97 0 15.98 0 15.98 0 15.98 0 15.98 0 15.98 0 15.98 0 15.98 0 15.98 0 15.98 0 15.98 0 15.98 0 15.98 0 15.98 0 15.98 0 15.98 0 15.99 0 15.99 0 15.99 0 15.99 0 15.99 0 15.99 0 15.99 0 15.99 0 15.99 0 15.99 0 15.99 0 15.99 0 15.99 0 15.99 0 15.99 0 15.99 0 15.99 0 16 0 16 0 16 0 16 0 16 0 16 0 16 0 16 0 16 0 16 0 16 0 16 0 16 0 16 0 16 0 16 0 16 0 16 0 16.01 0 16.01 0 16.01 0 16.01 0 16.01 0 16.01 0 16.01 0 16.01 0 16.01 0 16.01 0 16.01 0 16.01 0 16.01 0 16.01 0 16.01 0 16.01 0 16.01 0 16.02 0 16.02 0 16.03 0 16.03 0 16.03 0 16.03 0 16.03 0 16.03 0 16.03 0 16.03 0 16.03 0 16.03 0 16.03 0 16.03 0 16.03 0 16.03 0 16.03 0 16.03 0 16.03 0 16.03 0 16.04 0 16.04 0 16.04 0 16.04 0 16.04 0 16.04 0 16.04 0 16.04 0 16.04 0 16.04 0 16.04 0 16.04 0 16.04 0 16.04 0 16.04 0 16.04 0 16.04 0 16.05 0 16.05 0 16.05 0 16.05 0 16.05 0 16.16 0.01 16.28 0.03 16.39 0.05 16.87 0.16 17.19 0.6 17.17 1.08 17.64 1.16 18 1.57 18 2.06 18 2.07 18 2.07 18 2.07 18 2.07 18 3.27 18 3.27 18 3.83 17.55 4.27 17 4.27 16.45 4.27 16 3.83 16 3.27ZM 11.93 2C 11.93 2 9.93 2 9.93 2 9.38 2 8.93 1.55 8.93 1 8.93 0.45 9.38-0 9.93-0 9.93-0 11.93-0 11.93-0 12.49-0 12.93 0.45 12.93 1 12.93 1.55 12.49 2 11.93 2ZM 7.93 2C 7.93 2 5.93 2 5.93 2 5.38 2 4.93 1.55 4.93 1 4.93 0.45 5.38-0 5.93-0 5.93-0 7.93-0 7.93-0 8.49-0 8.93 0.45 8.93 1 8.93 1.55 8.49 2 7.93 2ZM 3.93 2C 3.93 2 2.07 2 2.07 2 2.05 2 2.04 2 2.03 2 2.02 2.01 2.02 2.02 2.01 2.03 2 2.04 2 2.05 2 2.07 2 2.07 2 2.95 2 2.95 2 3.51 1.55 3.95 1 3.95 0.45 3.95-0 3.51-0 2.95-0 2.95-0 2.07-0 2.07-0 2.07-0 2.06-0 2.06-0 2.06-0 2.06-0 2.06-0 2.06-0 2.06-0 2.06-0 2.06-0 2.06-0 2.06-0 2.06-0 2.05-0 2.05-0 2.05-0 2.05-0 2.05-0 2.05-0 2.05-0 2.05-0 2.05-0 2.05-0 2.05-0 2.05-0 2.05-0 2.04-0 2.04-0 2.04-0 2.04-0 2.04-0 2.04 0 2.04 0 2.04 0 2.04 0 2.04 0 2.04 0 2.04 0 2.04 0 2.04 0 2.03 0 2.03 0 2.03 0 2.03 0 2.03 0 2.03 0 2.03 0 2.03 0 2.03 0 2.03 0 2.03 0 2.03 0 2.03 0 2.03 0 2.02 0 2.02 0 2.02 0 2.02 0 2.02 0 2.02 0 2.02 0 2.02 0 2.02 0 2.02 0 2.02 0 2.02 0 2.02 0 2.01 0 2.01 0 2.01 0 2.01 0 2.01 0 2.01 0 2.01 0 2.01 0 2.01 0 2.01 0 2.01 0 2.01 0 2 0 2 0 2 0 2 0 2 0 2 0 2 0 2 0 2 0 2 0 2 0 2 0 2 0 2 0 1.99 0 1.99 0 1.99 0 1.99 0 1.99 0 1.99 0 1.99 0 1.99 0 1.99 0 1.99 0 1.99 0 1.99 0 1.99 0 1.98 0 1.98 0 1.98 0 1.98 0 1.98 0 1.98 0 1.98 0 1.98 0 1.98 0 1.98 0 1.98 0 1.98 0 1.98 0 1.98 0 1.97 0 1.97 0 1.97 0 1.97 0 1.97 0 1.97 0 1.97 0 1.97 0 1.97 0 1.97 0 1.97 0 1.97 0 1.97 0 1.96 0 1.96 0 1.96 0 1.96 0 1.96 0 1.96 0 1.96 0 1.96 0 1.96 0 1.96 0 1.96 0 1.96 0 1.96 0 1.95 0 1.95 0 1.95 0 1.95 0 1.95 0 1.95 0 1.95 0 1.95 0 1.95 0 1.95 0 1.95 0 1.95 0 1.95 0 1.95 0 1.94 0 1.94 0 1.94 0 1.94 0 1.94 0 1.94 0 1.94 0 1.94 0 1.94 0 1.94 0 1.94 0 1.94 0 1.94 0 1.94 0 1.93 0 1.93 0 1.93 0 1.93 0 1.93 0 1.93 0 1.93 0 1.93 0 1.93 0 1.93 0 1.93 0 1.93 0 1.93 0 1.92 0 1.92 0 1.92 0 1.92 0 1.92 0.01 1.92 0.01 1.92 0.01 1.92 0.01 1.92 0.01 1.92 0.01 1.92 0.01 1.92 0.01 1.92 0.01 1.91 0.01 1.91 0.01 1.91 0.01 1.91 0.01 1.91 0.01 1.91 0.01 1.91 0.01 1.91 0.01 1.91 0.01 1.91 0.01 1.91 0.01 1.91 0.01 1.91 0.01 1.9 0.01 1.9 0.01 1.9 0.01 1.9 0.01 1.9 0.01 1.9 0.01 1.9 0.01 1.9 0.01 1.9 0.01 1.9 0.01 1.9 0.01 1.9 0.01 1.9 0.01 1.9 0.01 1.9 0.01 1.89 0.01 1.89 0.01 1.89 0.01 1.89 0.01 1.89 0.01 1.89 0.01 1.89 0.01 1.88 0.01 1.88 0.01 1.88 0.01 1.88 0.01 1.88 0.01 1.88 0.01 1.88 0.01 1.87 0.01 1.87 0.01 1.87 0.01 1.87 0.01 1.87 0.01 1.87 0.01 1.87 0.01 1.87 0.01 1.87 0.01 1.87 0.01 1.87 0.01 1.87 0.01 1.86 0.01 1.86 0.01 1.86 0.01 1.86 0.01 1.86 0.01 1.86 0.01 1.86 0.01 1.86 0.01 1.86 0.01 1.86 0.01 1.86 0.01 1.86 0.01 1.86 0.01 1.86 0.01 1.86 0.01 1.86 0.01 1.85 0.01 1.85 0.01 1.85 0.01 1.85 0.01 1.85 0.01 1.85 0.01 1.85 0.01 1.85 0.01 1.85 0.01 1.85 0.01 1.85 0.01 1.85 0.01 1.85 0.01 1.84 0.01 1.84 0.01 1.84 0.01 1.84 0.01 1.84 0.01 1.84 0.01 1.84 0.01 1.84 0.01 1.84 0.01 1.84 0.01 1.84 0.01 1.84 0.01 1.84 0.01 1.83 0.01 1.83 0.01 1.83 0.01 1.83 0.01 1.83 0.01 1.83 0.01 1.83 0.01 1.82 0.01 1.82 0.01 1.82 0.01 1.82 0.01 1.82 0.01 1.82 0.01 1.82 0.01 1.82 0.01 1.82 0.01 1.82 0.02 1.81 0.02 1.81 0.02 1.81 0.02 1.81 0.02 1.81 0.02 1.81 0.02 1.81 0.02 1.81 0.02 1.81 0.02 1.81 0.02 1.81 0.02 1.81 0.02 1.8 0.02 1.8 0.02 1.8 0.02 1.8 0.02 1.8 0.02 1.8 0.02 1.8 0.02 1.8 0.02 1.8 0.02 1.8 0.02 1.8 0.02 1.8 0.02 1.8 0.02 1.79 0.02 1.79 0.02 1.79 0.02 1.79 0.02 1.79 0.02 1.79 0.02 1.79 0.02 1.79 0.02 1.79 0.02 1.79 0.02 1.79 0.02 1.79 0.02 1.79 0.02 1.79 0.02 1.79 0.02 1.78 0.02 1.78 0.02 1.78 0.02 1.78 0.02 1.78 0.02 1.78 0.02 1.78 0.02 1.78 0.02 1.78 0.02 1.78 0.02 1.78 0.02 1.78 0.02 1.78 0.02 1.78 0.02 1.77 0.02 1.77 0.02 1.77 0.02 1.77 0.02 1.77 0.02 1.77 0.02 1.77 0.02 1.76 0.02 1.76 0.02 1.76 0.02 1.76 0.02 1.76 0.02 1.76 0.02 1.76 0.02 1.76 0.02 1.76 0.02 1.76 0.02 1.76 0.02 1.75 0.02 1.75 0.02 1.75 0.02 1.75 0.02 1.75 0.02 1.75 0.02 1.75 0.02 1.75 0.02 1.75 0.02 1.75 0.02 1.75 0.02 1.74 0.03 1.74 0.03 1.74 0.03 1.74 0.03 1.74 0.03 1.74 0.03 1.74 0.03 1.74 0.03 1.74 0.03 1.74 0.03 1.74 0.03 1.74 0.03 1.74 0.03 1.73 0.03 1.73 0.03 1.73 0.03 1.73 0.03 1.73 0.03 1.73 0.03 1.73 0.03 1.73 0.03 1.73 0.03 1.73 0.03 1.73 0.03 1.73 0.03 1.73 0.03 1.72 0.03 1.72 0.03 1.72 0.03 1.72 0.03 1.72 0.03 1.72 0.03 1.72 0.03 1.72 0.03 1.72 0.03 1.72 0.03 1.71 0.03 1.71 0.03 1.71 0.03 1.71 0.03 1.71 0.03 1.71 0.03 1.71 0.03 1.71 0.03 1.7 0.03 1.7 0.03 1.7 0.03 1.7 0.03 1.7 0.03 1.7 0.03 1.7 0.03 1.7 0.03 1.7 0.03 1.7 0.03 1.7 0.03 1.69 0.03 1.69 0.03 1.69 0.03 1.69 0.03 1.69 0.03 1.69 0.03 1.69 0.03 1.69 0.03 1.69 0.03 1.69 0.03 1.69 0.04 1.68 0.04 1.68 0.04 1.68 0.04 1.68 0.04 1.68 0.04 1.68 0.04 1.68 0.04 1.68 0.04 1.68 0.04 1.68 0.04 1.68 0.04 1.68 0.04 1.67 0.04 1.67 0.04 1.67 0.04 1.67 0.04 1.67 0.04 1.67 0.04 1.67 0.04 1.67 0.04 1.66 0.04 1.66 0.04 1.66 0.04 1.66 0.04 1.66 0.04 1.66 0.04 1.66 0.04 1.66 0.04 1.66 0.04 1.66 0.04 1.65 0.04 1.65 0.04 1.65 0.04 1.65 0.04 1.65 0.04 1.65 0.04 1.65 0.04 1.65 0.04 1.64 0.04 1.64 0.04 1.64 0.04 1.64 0.04 1.64 0.04 1.64 0.04 1.64 0.04 1.64 0.04 1.64 0.04 1.64 0.04 1.64 0.05 1.63 0.05 1.63 0.05 1.63 0.05 1.63 0.05 1.63 0.05 1.63 0.05 1.62 0.05 1.62 0.05 1.62 0.05 1.62 0.05 1.62 0.05 1.62 0.05 1.62 0.05 1.62 0.05 1.62 0.05 1.62 0.05 1.62 0.05 1.61 0.05 1.61 0.05 1.61 0.05 1.61 0.05 1.61 0.05 1.61 0.05 1.61 0.05 1.61 0.05 1.6 0.05 1.6 0.05 1.6 0.05 1.6 0.05 1.6 0.05 1.6 0.05 1.6 0.05 1.6 0.05 1.6 0.05 1.6 0.05 1.59 0.05 1.59 0.05 1.59 0.05 1.59 0.05 1.59 0.05 1.59 0.06 1.59 0.06 1.59 0.06 1.58 0.06 1.58 0.06 1.58 0.06 1.58 0.06 1.58 0.06 1.58 0.06 1.58 0.06 1.58 0.06 1.58 0.06 1.58 0.06 1.58 0.06 1.58 0.06 1.57 0.06 1.57 0.06 1.57 0.06 1.57 0.06 1.57 0.06 1.57 0.06 1.57 0.06 1.57 0.06 1.57 0.06 1.57 0.06 1.57 0.06 1.57 0.06 1.57 0.06 1.57 0.06 1.57 0.06 1.57 0.06 1.56 0.06 1.56 0.06 1.56 0.06 1.56 0.06 1.56 0.06 1.56 0.06 1.56 0.06 1.56 0.06 1.56 0.06 1.56 0.06 1.56 0.06 1.56 0.06 1.55 0.06 1.55 0.07 1.55 0.07 1.55 0.07 1.55 0.07 1.55 0.07 1.55 0.07 1.55 0.07 1.55 0.07 1.55 0.07 1.54 0.07 1.54 0.07 1.54 0.07 1.54 0.07 1.54 0.07 1.54 0.07 1.54 0.07 1.54 0.07 1.54 0.07 1.53 0.07 1.53 0.07 1.53 0.07 1.53 0.07 1.53 0.07 1.53 0.07 1.53 0.07 1.52 0.07 1.52 0.07 1.52 0.07 1.52 0.07 1.52 0.07 1.52 0.07 1.52 0.07 1.52 0.07 1.52 0.07 1.52 0.07 1.52 0.07 1.52 0.07 1.52 0.07 1.52 0.07 1.52 0.07 1.52 0.07 1.51 0.07 1.51 0.08 1.51 0.08 1.51 0.08 1.51 0.08 1.51 0.08 1.51 0.08 1.51 0.08 1.51 0.08 1.51 0.08 1.51 0.08 1.51 0.08 1.51 0.08 1.5 0.08 1.5 0.08 1.5 0.08 1.5 0.08 1.5 0.08 1.5 0.08 1.5 0.08 1.5 0.08 1.5 0.08 1.5 0.08 1.5 0.08 1.5 0.08 1.49 0.08 1.49 0.08 1.49 0.08 1.49 0.08 1.49 0.08 1.49 0.08 1.49 0.08 1.49 0.08 1.49 0.08 1.49 0.08 1.49 0.08 1.48 0.08 1.48 0.08 1.48 0.08 1.48 0.08 1.48 0.08 1.48 0.09 1.48 0.09 1.48 0.09 1.47 0.09 1.47 0.09 1.47 0.09 1.47 0.09 1.47 0.09 1.47 0.09 1.47 0.09 1.47 0.09 1.47 0.09 1.47 0.09 1.47 0.09 1.47 0.09 1.47 0.09 1.47 0.09 1.47 0.09 1.47 0.09 1.46 0.09 1.46 0.09 1.46 0.09 1.46 0.09 1.46 0.09 1.46 0.09 1.46 0.09 1.46 0.09 1.46 0.09 1.46 0.09 1.46 0.09 1.46 0.09 1.46 0.09 1.46 0.09 1.45 0.09 1.45 0.09 1.45 0.09 1.45 0.09 1.45 0.09 1.45 0.09 1.45 0.09 1.45 0.09 1.45 0.09 1.45 0.09 1.45 0.09 1.45 0.09 1.45 0.1 1.45 0.1 1.45 0.1 1.44 0.1 1.44 0.1 1.44 0.1 1.44 0.1 1.44 0.1 1.44 0.1 1.44 0.1 1.44 0.1 1.44 0.1 1.44 0.1 1.44 0.1 1.44 0.1 1.44 0.1 1.44 0.1 1.43 0.1 1.43 0.1 1.43 0.1 1.43 0.1 1.43 0.1 1.43 0.1 1.43 0.1 1.43 0.1 1.43 0.1 1.43 0.1 1.43 0.1 1.43 0.1 1.43 0.1 1.42 0.1 1.42 0.1 1.42 0.1 1.42 0.1 1.42 0.1 1.42 0.1 1.42 0.1 1.42 0.1 1.42 0.1 1.42 0.1 1.42 0.1 1.42 0.1 1.42 0.1 1.42 0.1 1.42 0.1 1.42 0.1 1.42 0.11 1.41 0.11 1.41 0.11 1.41 0.11 1.41 0.11 1.41 0.11 1.41 0.11 1.41 0.11 1.41 0.11 1.41 0.11 1.41 0.11 1.41 0.11 1.41 0.11 1.41 0.11 1.4 0.11 1.4 0.11 1.4 0.11 1.4 0.11 1.4 0.11 1.4 0.11 1.4 0.11 1.4 0.11 1.4 0.11 1.4 0.11 1.4 0.11 1.4 0.11 1.4 0.11 1.4 0.11 1.4 0.11 1.4 0.11 1.39 0.11 1.39 0.11 1.39 0.11 1.39 0.11 1.39 0.11 1.39 0.11 1.39 0.11 1.39 0.11 1.39 0.11 1.39 0.11 1.39 0.11 1.39 0.11 1.39 0.11 1.39 0.12 1.38 0.12 1.38 0.12 1.38 0.12 1.38 0.12 1.38 0.12 1.38 0.12 1.38 0.12 1.38 0.12 1.38 0.12 1.38 0.12 1.38 0.12 1.38 0.12 1.38 0.12 1.38 0.12 1.38 0.12 1.37 0.12 1.37 0.12 1.37 0.12 1.37 0.12 1.37 0.12 1.37 0.12 1.37 0.12 1.37 0.12 1.37 0.12 1.37 0.12 1.37 0.12 1.37 0.12 1.37 0.12 1.37 0.12 1.37 0.12 1.36 0.12 1.36 0.12 1.36 0.12 1.36 0.12 1.36 0.12 1.36 0.12 1.36 0.12 1.36 0.12 1.36 0.12 1.36 0.12 1.36 0.13 1.36 0.13 1.36 0.13 1.36 0.13 1.36 0.13 1.35 0.13 1.35 0.13 1.35 0.13 1.35 0.13 1.35 0.13 1.35 0.13 1.35 0.13 1.35 0.13 1.35 0.13 1.35 0.13 1.35 0.13 1.35 0.13 1.35 0.13 1.35 0.13 1.35 0.13 1.34 0.13 1.34 0.13 1.34 0.13 1.34 0.13 1.34 0.13 1.34 0.13 1.34 0.13 1.34 0.13 1.34 0.13 1.34 0.13 1.34 0.13 1.34 0.13 1.34 0.13 1.34 0.13 1.34 0.13 1.34 0.13 1.33 0.13 1.33 0.13 1.33 0.13 1.33 0.13 1.33 0.13 1.33 0.14 1.33 0.14 1.33 0.14 1.33 0.14 1.33 0.14 1.33 0.14 1.33 0.14 1.33 0.14 1.33 0.14 1.32 0.14 1.32 0.14 1.32 0.14 1.32 0.14 1.32 0.14 1.32 0.14 1.32 0.14 1.32 0.14 1.32 0.14 1.32 0.14 1.32 0.14 1.32 0.14 1.32 0.14 1.32 0.14 1.32 0.14 1.31 0.14 1.31 0.14 1.31 0.14 1.31 0.14 1.31 0.14 1.31 0.14 1.31 0.14 1.31 0.14 1.31 0.14 1.31 0.14 1.31 0.14 1.31 0.14 1.31 0.14 1.31 0.14 1.31 0.14 1.3 0.15 1.3 0.15 1.3 0.15 1.3 0.15 1.3 0.15 1.3 0.15 1.3 0.15 1.3 0.15 1.3 0.15 1.3 0.15 1.3 0.15 1.3 0.15 1.3 0.15 1.3 0.15 1.3 0.15 1.29 0.15 1.29 0.15 1.29 0.15 1.29 0.15 1.29 0.15 1.29 0.15 1.29 0.15 1.29 0.15 1.29 0.15 1.29 0.15 1.29 0.15 1.29 0.15 1.29 0.15 1.29 0.15 1.29 0.15 1.28 0.15 1.28 0.15 1.28 0.15 1.28 0.15 1.28 0.15 1.28 0.15 1.28 0.15 1.28 0.16 1.28 0.16 1.28 0.16 1.28 0.16 1.28 0.16 1.28 0.16 1.28 0.16 1.28 0.16 1.27 0.16 1.27 0.16 1.27 0.16 1.27 0.16 1.27 0.16 1.27 0.16 1.27 0.16 1.27 0.16 1.27 0.16 1.27 0.16 1.27 0.16 1.27 0.16 1.27 0.16 1.27 0.16 1.27 0.16 1.26 0.16 1.26 0.16 1.26 0.16 1.26 0.16 1.26 0.16 1.26 0.16 1.26 0.16 1.26 0.16 1.26 0.16 1.26 0.16 1.26 0.16 1.26 0.16 1.26 0.16 1.26 0.17 1.26 0.17 1.25 0.17 1.25 0.17 1.25 0.17 1.25 0.17 1.25 0.17 1.25 0.17 1.25 0.17 1.25 0.17 1.25 0.17 1.25 0.17 1.25 0.17 1.24 0.17 1.24 0.17 1.24 0.17 1.24 0.17 1.24 0.17 1.24 0.17 1.24 0.17 1.24 0.17 1.24 0.17 1.24 0.17 1.24 0.17 1.24 0.17 1.23 0.18 1.23 0.18 1.23 0.18 1.23 0.18 1.23 0.18 1.23 0.18 1.23 0.18 1.23 0.18 1.23 0.18 1.23 0.18 1.23 0.18 1.22 0.18 1.22 0.18 1.22 0.18 1.22 0.18 1.22 0.18 1.22 0.18 1.22 0.18 1.21 0.19 1.21 0.19 1.21 0.19 1.21 0.19 1.21 0.22 1.14 0.25 1.07 0.29 1 0.48 0.69 0.81 0.52 1.15 0.52 1.16 0.52 1.18 0.52 1.19 0.52 1.36 0.21 1.69 0 2.06-0 2.07-0 2.07-0 2.07-0 2.07-0 3.93-0 3.93-0 4.49-0 4.93 0.45 4.93 1 4.93 1.55 4.49 2 3.93 2ZM 2 4.95C 2 4.95 2 6.95 2 6.95 2 7.51 1.55 7.95 1 7.95 0.45 7.95-0 7.51-0 6.95-0 6.95-0 4.95-0 4.95-0 4.4 0.45 3.95 1 3.95 1.55 3.95 2 4.4 2 4.95ZM 2 8.95C 2 8.95 2 10.95 2 10.95 2 11.51 1.55 11.95 1 11.95 0.45 11.95-0 11.51-0 10.95-0 10.95-0 8.95-0 8.95-0 8.4 0.45 7.95 1 7.95 1.55 7.95 2 8.4 2 8.95ZM 2 12.95C 2 12.95 2 14.95 2 14.95 2 15.22 1.9 15.46 1.73 15.64 1.84 15.72 1.94 15.83 2.01 15.96 2.01 15.97 2.02 16 2.06 16 2.46 16.04 2.77 16.31 2.9 16.67 3.03 16.28 3.4 16 3.84 16 3.84 16 5.84 16 5.84 16 6.39 16 6.84 16.45 6.84 17 6.84 17.55 6.39 18 5.84 18 5.84 18 3.84 18 3.84 18 3.4 18 3.03 17.72 2.89 17.32 2.76 17.72 2.38 17.99 1.95 17.99 1.91 17.99 1.88 17.99 1.84 17.99 1.72 17.97 1.6 17.95 1.49 17.92 1.49 17.92 1.49 17.92 1.49 17.92 1.47 17.91 1.46 17.91 1.44 17.9 1.44 17.9 1.44 17.9 1.44 17.9 1.44 17.9 1.44 17.9 1.44 17.9 1.44 17.9 1.44 17.9 1.44 17.9 1.44 17.9 1.43 17.9 1.43 17.9 1.43 17.9 1.43 17.9 1.43 17.9 1.43 17.9 1.43 17.9 1.43 17.9 1.43 17.9 1.43 17.9 1.43 17.9 1.42 17.9 1.42 17.9 1.41 17.9 1.41 17.9 1.41 17.9 1.41 17.9 1.41 17.89 1.41 17.89 1.41 17.89 1.41 17.89 1.41 17.89 1.41 17.89 1.41 17.89 1.4 17.89 1.4 17.89 1.4 17.89 1.4 17.89 1.4 17.89 1.4 17.89 1.4 17.89 1.4 17.89 1.4 17.89 1.4 17.89 1.4 17.89 1.39 17.89 1.39 17.89 1.38 17.88 1.38 17.88 1.38 17.88 1.38 17.88 1.38 17.88 1.38 17.88 1.38 17.88 1.38 17.88 1.38 17.88 1.38 17.88 1.38 17.88 1.38 17.88 1.38 17.88 1.38 17.88 1.38 17.88 1.38 17.88 1.38 17.88 1.37 17.88 1.37 17.88 1.37 17.88 1.37 17.88 1.37 17.88 1.37 17.88 1.37 17.88 1.37 17.88 1.37 17.88 1.37 17.88 1.37 17.88 1.36 17.88 1.36 17.88 1.36 17.88 1.36 17.88 1.36 17.88 1.36 17.88 1.36 17.88 1.36 17.88 1.36 17.87 1.36 17.87 1.36 17.87 1.36 17.87 1.35 17.87 1.35 17.87 1.35 17.87 1.35 17.87 1.35 17.87 1.35 17.87 1.35 17.87 1.35 17.87 1.35 17.87 1.35 17.87 1.35 17.87 1.35 17.87 1.35 17.87 1.34 17.87 1.34 17.87 1.34 17.87 1.34 17.87 1.34 17.87 1.34 17.87 1.34 17.87 1.34 17.87 1.34 17.87 1.34 17.87 1.34 17.87 1.34 17.87 1.33 17.87 1.33 17.87 1.33 17.87 1.33 17.87 1.33 17.87 1.33 17.87 1.33 17.86 1.33 17.86 1.33 17.86 1.33 17.86 1.33 17.86 1.32 17.86 1.32 17.86 1.32 17.86 1.32 17.86 1.32 17.86 1.32 17.86 1.32 17.86 1.32 17.86 1.32 17.86 1.32 17.86 1.32 17.86 1.32 17.86 1.32 17.86 1.31 17.86 1.31 17.86 1.31 17.86 1.31 17.86 1.31 17.86 1.31 17.86 1.31 17.86 1.31 17.86 1.31 17.86 1.31 17.86 1.31 17.86 1.31 17.86 1.31 17.86 1.3 17.85 1.3 17.85 1.3 17.85 1.3 17.85 1.3 17.85 1.3 17.85 1.3 17.85 1.3 17.85 1.3 17.85 1.3 17.85 1.3 17.85 1.29 17.85 1.29 17.85 1.29 17.85 1.29 17.85 1.29 17.85 1.29 17.85 1.29 17.85 1.29 17.85 1.29 17.85 1.29 17.85 1.29 17.85 1.29 17.85 1.29 17.85 1.29 17.85 1.29 17.85 1.29 17.85 1.29 17.85 1.28 17.85 1.28 17.85 1.28 17.85 1.28 17.85 1.28 17.85 1.28 17.85 1.28 17.85 1.28 17.84 1.28 17.84 1.28 17.84 1.28 17.84 1.28 17.84 1.28 17.84 1.28 17.84 1.28 17.84 1.28 17.84 1.27 17.84 1.27 17.84 1.27 17.84 1.27 17.84 1.27 17.84 1.27 17.84 1.27 17.84 1.27 17.84 1.27 17.84 1.27 17.84 1.27 17.84 1.27 17.84 1.27 17.84 1.27 17.84 1.27 17.84 1.27 17.84 1.26 17.84 1.26 17.84 1.26 17.84 1.26 17.84 1.26 17.84 1.26 17.84 1.26 17.84 1.26 17.84 1.26 17.84 1.26 17.84 1.26 17.84 1.26 17.84 1.26 17.84 1.26 17.84 1.26 17.84 1.26 17.84 1.26 17.83 1.25 17.83 1.25 17.83 1.25 17.83 1.25 17.83 1.25 17.83 1.25 17.83 1.25 17.83 1.25 17.83 1.25 17.83 1.25 17.83 1.25 17.83 1.25 17.83 1.25 17.83 1.25 17.83 1.25 17.83 1.25 17.83 1.25 17.83 1.24 17.83 1.24 17.83 1.24 17.83 1.24 17.83 1.24 17.83 1.24 17.83 1.24 17.83 1.24 17.83 1.24 17.83 1.24 17.83 1.24 17.83 1.24 17.83 1.24 17.83 1.24 17.83 1.24 17.83 1.24 17.83 1.23 17.83 1.23 17.83 1.23 17.83 1.23 17.82 1.23 17.82 1.23 17.82 1.23 17.82 1.23 17.82 1.23 17.82 1.23 17.82 1.23 17.82 1.23 17.82 1.23 17.82 1.23 17.82 1.23 17.82 1.23 17.82 1.22 17.82 1.22 17.82 1.22 17.82 1.22 17.82 1.22 17.82 1.22 17.82 1.22 17.82 1.22 17.82 1.22 17.82 1.22 17.82 1.22 17.82 1.22 17.82 1.22 17.82 1.22 17.82 1.22 17.82 1.22 17.82 1.22 17.82 1.22 17.82 1.21 17.82 1.21 17.82 1.21 17.82 1.21 17.82 1.21 17.82 1.21 17.82 1.21 17.81 1.21 17.81 1.21 17.81 1.21 17.81 1.21 17.81 1.21 17.81 1.21 17.81 1.21 17.81 1.21 17.81 1.21 17.81 1.21 17.81 1.2 17.81 1.2 17.81 1.2 17.81 1.2 17.81 1.2 17.81 1.2 17.81 1.2 17.81 1.2 17.81 1.2 17.81 1.2 17.81 1.2 17.81 1.2 17.81 1.2 17.81 1.2 17.81 1.2 17.81 1.2 17.81 1.2 17.81 1.19 17.81 1.19 17.81 1.19 17.81 1.19 17.81 1.19 17.81 1.19 17.81 1.19 17.81 1.19 17.81 1.19 17.81 1.19 17.81 1.19 17.8 1.19 17.8 1.19 17.8 1.19 17.8 1.19 17.8 1.19 17.8 1.19 17.8 1.18 17.8 1.18 17.8 1.18 17.8 1.18 17.8 1.18 17.8 1.18 17.8 1.18 17.8 1.18 17.8 1.18 17.8 1.18 17.8 1.18 17.8 1.18 17.8 1.18 17.8 1.18 17.8 1.18 17.8 1.18 17.8 1.18 17.8 1.17 17.8 1.17 17.8 1.17 17.8 1.17 17.8 1.17 17.8 1.17 17.8 1.17 17.8 1.17 17.8 1.17 17.8 1.17 17.8 1.17 17.8 1.17 17.79 1.17 17.79 1.17 17.79 1.17 17.79 1.17 17.79 1.16 17.79 1.16 17.79 1.16 17.79 1.16 17.79 1.16 17.79 1.16 17.79 1.16 17.79 1.16 17.79 1.16 17.79 1.16 17.79 1.16 17.79 1.16 17.79 1.16 17.79 1.16 17.79 1.16 17.79 1.16 17.79 1.16 17.79 1.16 17.79 1.15 17.79 1.15 17.79 1.15 17.79 1.15 17.79 1.15 17.79 1.15 17.79 1.15 17.79 1.15 17.79 1.15 17.79 1.15 17.79 1.15 17.79 1.15 17.79 1.15 17.78 1.15 17.78 1.15 17.78 1.15 17.78 1.15 17.78 1.14 17.78 1.14 17.78 1.14 17.78 1.14 17.78 1.14 17.78 1.14 17.78 1.14 17.78 1.14 17.78 1.14 17.78 1.14 17.78 1.14 17.78 1.14 17.78 1.14 17.78 1.14 17.78 1.14 17.78 1.14 17.78 1.13 17.78 1.13 17.78 1.13 17.78 1.13 17.78 1.13 17.78 1.13 17.78 1.13 17.78 1.13 17.78 1.13 17.78 1.13 17.78 1.13 17.78 1.13 17.78 1.13 17.78 1.13 17.78 1.13 17.77 1.13 17.77 1.13 17.77 1.13 17.77 1.12 17.77 1.12 17.77 1.12 17.77 1.12 17.77 1.12 17.77 1.12 17.77 1.12 17.77 1.12 17.77 1.12 17.77 1.12 17.77 1.12 17.77 1.12 17.77 1.12 17.77 1.12 17.77 1.12 17.77 1.12 17.77 1.12 17.77 1.12 17.77 1.11 17.77 1.11 17.77 1.11 17.77 1.11 17.77 1.11 17.77 1.11 17.77 1.11 17.77 1.11 17.77 1.11 17.77 1.11 17.77 1.11 17.76 1.11 17.76 1.11 17.76 1.11 17.76 1.11 17.76 1.11 17.76 1.11 17.76 1.1 17.76 1.1 17.76 1.1 17.76 1.1 17.76 1.1 17.76 1.1 17.76 1.1 17.76 1.1 17.76 1.1 17.76 1.1 17.76 1.1 17.76 1.1 17.76 1.1 17.76 1.09 17.76 1.09 17.76 1.09 17.76 1.09 17.76 1.09 17.76 1.09 17.76 1.09 17.76 1.09 17.76 1.09 17.75 1.09 17.75 1.09 17.75 1.09 17.75 1.09 17.75 1.09 17.75 1.09 17.75 1.09 17.75 1.08 17.75 1.08 17.75 1.08 17.75 1.08 17.75 1.08 17.75 1.08 17.75 1.08 17.75 1.08 17.75 1.08 17.75 1.08 17.75 1.08 17.75 1.08 17.75 1.07 17.75 1.07 17.75 1.07 17.75 1.07 17.75 1.07 17.75 1.07 17.75 1.07 17.74 1.07 17.74 1.07 17.74 1.07 17.74 1.07 17.74 1.06 17.74 1.06 17.74 1.06 17.74 1.06 17.74 1.06 17.74 1.06 17.74 1.06 17.74 1.06 17.74 1.06 17.74 1.06 17.74 1.06 17.74 1.06 17.74 1.06 17.74 1.06 17.74 1.05 17.74 1.05 17.73 1.05 17.73 1.05 17.73 1.05 17.73 1.05 17.73 1.05 17.73 1.05 17.73 1.05 17.73 1.05 17.73 1.05 17.73 1.05 17.73 1.05 17.73 1.05 17.73 1.05 17.73 1.05 17.73 1.05 17.73 1.04 17.73 1.04 17.73 1.04 17.73 1.04 17.73 1.04 17.73 1.04 17.73 1.04 17.73 1.04 17.73 1.04 17.72 1.04 17.72 1.04 17.72 1.03 17.72 1.03 17.72 1.03 17.72 1.03 17.72 1.03 17.72 1.03 17.72 1.03 17.72 1.03 17.72 1.03 17.72 1.02 17.72 1.02 17.72 1.02 17.72 1.02 17.72 1.02 17.72 1.02 17.72 1.02 17.72 1.02 17.71 1.01 17.71 1.01 17.71 1.01 17.71 1.01 17.71 1.01 17.71 1.01 17.71 1.01 17.71 1.01 17.71 1.01 17.71 1.01 17.71 1.01 17.71 1 17.71 1 17.7 1 17.7 1 17.7 0.99 17.7 0.99 17.7 0.99 17.7 0.99 17.7 0.99 17.7 0.99 17.7 0.99 17.7 0.99 17.7 0.68 17.51 0.42 17.24 0.25 16.91 0.04 16.52 0.11 16.06 0.4 15.75 0.16 15.57-0 15.28-0 14.95-0 14.95-0 12.95-0 12.95-0 12.4 0.45 11.95 1 11.95 1.55 11.95 2 12.4 2 12.95ZM 7.84 16C 7.84 16 9.84 16 9.84 16 10.39 16 10.84 16.45 10.84 17 10.84 17.55 10.39 18 9.84 18 9.84 18 7.84 18 7.84 18 7.29 18 6.84 17.55 6.84 17 6.84 16.45 7.29 16 7.84 16ZM 11.84 16C 11.84 16 13.84 16 13.84 16 14.39 16 14.84 16.45 14.84 17 14.84 17.55 14.39 18 13.84 18 13.84 18 11.84 18 11.84 18 11.29 18 10.84 17.55 10.84 17 10.84 16.45 11.29 16 11.84 16Z" fill="rgb(173,173,173)"/></svg>