<?xml version="1.0" encoding="utf-8"?>
<svg xmlns="http://www.w3.org/2000/svg"
	xmlns:xlink="http://www.w3.org/1999/xlink"
	width="13px" height="16px" viewBox="0 0 13 16">
<path fillRule="evenodd" d="M 6.52 1.6C 9.14 1.6 11.38 3.5 11.38 6.09 11.38 6.9 11.27 7.87 10.68 8.76 10.65 8.81 10.62 8.86 10.59 8.91 9.18 11.82 7.42 13.42 6.58 14.19 4.31 12.1 2.93 10.21 2.29 8.29 2.27 8.23 2.24 8.18 2.22 8.13 1.98 7.63 1.67 6.91 1.63 6.25 1.62 6.05 1.62 5.85 1.63 5.65 1.78 3.33 3.86 1.71 6.3 1.6 6.37 1.6 6.44 1.6 6.52 1.6M 6.6 8.93C 8.16 8.93 9.43 7.66 9.43 6.08 9.43 4.51 8.16 3.24 6.6 3.24 5.04 3.24 3.77 4.51 3.77 6.08 3.77 7.66 5.04 8.93 6.6 8.93M 6.52 0C 6.42 0 6.33 0 6.24 0.01 3.13 0.14 0.2 2.49 0.01 5.56-0.01 5.82-0.01 6.08 0.01 6.33 0.06 7.14 0.36 8.01 0.7 8.7 1.72 11.07 3.21 13.17 6.52 16 6.52 16 9.58 14.72 12.05 9.67 12.68 8.71 13.01 7.32 13.01 6.09 13.01 2.73 9.92 0 6.52 0 6.52 0 6.52 0 6.52 0ZM 6.59 7.33C 5.91 7.33 5.35 6.77 5.35 6.08 5.35 5.4 5.91 4.84 6.59 4.84 7.27 4.84 7.83 5.4 7.83 6.08 7.83 6.77 7.27 7.33 6.59 7.33 6.59 7.33 6.59 7.33 6.59 7.33Z" fill="rgb(19,43,71)"/></svg>