<?xml version="1.0" encoding="utf-8"?>
<svg xmlns="http://www.w3.org/2000/svg"
	xmlns:xlink="http://www.w3.org/1999/xlink"
	width="27px" height="12px" viewBox="0 0 27 12">
<path fillRule="evenodd" d="M 24.37 12C 24.37 12 2.62 12 2.62 12 1.17 12-0 10.82-0 9.38-0 9.38-0 2.62-0 2.62-0 1.18 1.17-0 2.62-0 2.62-0 24.37-0 24.37-0 25.82-0 27 1.18 27 2.62 27 2.62 27 9.38 27 9.38 27 10.82 25.82 12 24.37 12ZM 6.25 3.56C 6.25 3.56 4.97 3.56 4.97 3.56 4.97 3.56 4.55 4.54 4.55 4.54 4.42 4.86 4.32 5.1 4.21 5.44 4.21 5.44 4.19 5.44 4.19 5.44 4.07 5.14 3.96 4.87 3.81 4.54 3.81 4.54 3.38 3.56 3.38 3.56 3.38 3.56 2.09 3.56 2.09 3.56 2.09 3.56 3.47 6.22 3.47 6.22 3.47 6.22 2.03 8.95 2.03 8.95 2.03 8.95 3.32 8.95 3.32 8.95 3.32 8.95 3.73 7.97 3.73 7.97 3.89 7.6 4.01 7.32 4.12 7.01 4.12 7.01 4.13 7.01 4.13 7.01 4.27 7.32 4.39 7.6 4.58 7.97 4.58 7.97 5.03 8.95 5.03 8.95 5.03 8.95 6.33 8.95 6.33 8.95 6.33 8.95 4.85 6.19 4.85 6.19 4.85 6.19 6.25 3.56 6.25 3.56ZM 9.75 3.56C 9.75 3.56 9.25 4.86 9.25 4.86 9.1 5.24 8.98 5.55 8.87 5.89 8.87 5.89 8.85 5.89 8.85 5.89 8.73 5.54 8.62 5.25 8.47 4.86 8.47 4.86 7.96 3.56 7.96 3.56 7.96 3.56 6.68 3.56 6.68 3.56 6.68 3.56 8.25 6.74 8.25 6.74 8.25 6.74 8.25 8.95 8.25 8.95 8.25 8.95 9.37 8.95 9.37 8.95 9.37 8.95 9.37 6.7 9.37 6.7 9.37 6.7 11.01 3.56 11.01 3.56 11.01 3.56 9.75 3.56 9.75 3.56ZM 12.95 6.23C 12.95 6.23 10.97 6.23 10.97 6.23 10.97 6.23 10.97 7.25 10.97 7.25 10.97 7.25 12.95 7.25 12.95 7.25 12.95 7.25 12.95 6.23 12.95 6.23ZM 15.38 3.66C 14.14 3.66 13.55 4.86 13.55 6.36 13.55 7.83 14.1 9.04 15.34 9.04 16.57 9.04 17.16 7.93 17.16 6.33 17.16 4.9 16.66 3.66 15.38 3.66ZM 19.55 3.66C 18.31 3.66 17.72 4.86 17.72 6.36 17.73 7.83 18.27 9.04 19.52 9.04 20.74 9.04 21.34 7.93 21.34 6.33 21.34 4.9 20.84 3.66 19.55 3.66ZM 24.49 3.75C 24.49 3.75 23.56 3.75 23.56 3.75 23.56 3.75 22.29 4.39 22.29 4.39 22.29 4.39 22.47 5.3 22.47 5.3 22.47 5.3 23.39 4.83 23.39 4.83 23.39 4.83 23.4 4.83 23.4 4.83 23.4 4.83 23.4 8.95 23.4 8.95 23.4 8.95 24.49 8.95 24.49 8.95 24.49 8.95 24.49 3.75 24.49 3.75ZM 19.55 8.12C 19.11 8.12 18.84 7.55 18.85 6.36 18.84 5.15 19.12 4.58 19.54 4.58 19.99 4.58 20.22 5.19 20.22 6.34 20.22 7.53 19.98 8.12 19.55 8.12ZM 15.37 8.12C 14.93 8.12 14.67 7.55 14.68 6.36 14.67 5.15 14.95 4.58 15.36 4.58 15.81 4.58 16.04 5.19 16.04 6.34 16.04 7.53 15.81 8.12 15.37 8.12Z" fill="#ffffff"/></svg>