<?xml version="1.0" encoding="utf-8"?>
<svg xmlns="http://www.w3.org/2000/svg"
	xmlns:xlink="http://www.w3.org/1999/xlink"
	width="10px" height="17px" viewBox="0 0 10 17">
<path fillRule="evenodd" d="M 8 17C 8 17 8 10 8 10 8 10-0 9.95-0 9.95-0 9.95-0 7.61-0 7.61-0 7.61 0.74 7.61 0.74 7.61 0.74 7.61 7.79 0.98 7.79 0.98 7.79 0.98 9-0 9-0 9-0 10 1.73 10 1.73 10 1.73 10 7.61 10 7.61 10 7.61 10 9.95 10 9.95 10 9.95 10 17 10 17 10 17 8 17 8 17ZM 8 4C 8 4 3 8 3 8 3 8 8 8 8 8 8 8 8 4 8 4Z" fill="rgb(173,173,173)"/></svg>