<?xml version="1.0" encoding="utf-8"?>
<svg xmlns="http://www.w3.org/2000/svg"
	xmlns:xlink="http://www.w3.org/1999/xlink"
	width="18px" height="13px" viewBox="0 0 18 13">
<path fillRule="evenodd" d="M 16 11C 16 11 14 11 14 11 14 11 14 13 14 13 14 13 4 13 4 13 4 13 4 11 4 11 4 11-0 11-0 11-0 11-0 9-0 9-0 9 4 9 4 9 4 9 4 7 4 7 4 7 14 7 14 7 14 7 14 9 14 9 14 9 16 9 16 9 16 9 16 5 16 5 16 5 14 5 14 5 14 5 13 5 13 5 13 5 5 5 5 5 5 5 4 5 4 5 4 5 2 5 2 5 2 5 2 9 2 9 2 9-0 9-0 9-0 9-0 3-0 3-0 3 2 3 2 3 2 3 4 3 4 3 4 3 4 1 4 1 4 1 4-0 4-0 4-0 5-0 5-0 5-0 13-0 13-0 13-0 14-0 14-0 14-0 14 1 14 1 14 1 14 3 14 3 14 3 18 3 18 3 18 3 18 4 18 4 18 4 18 10 18 10 18 10 18 11 18 11 18 11 16 11 16 11ZM 12 9C 12 9 6 9 6 9 6 9 6 11 6 11 6 11 12 11 12 11 12 11 12 9 12 9ZM 12 2C 12 2 6 2 6 2 6 2 6 3 6 3 6 3 12 3 12 3 12 3 12 2 12 2Z" fill="rgb(19,45,73)"/></svg>