<?xml version="1.0" encoding="utf-8"?>
<svg xmlns="http://www.w3.org/2000/svg"
	xmlns:xlink="http://www.w3.org/1999/xlink"
	width="18px" height="17px" viewBox="0 0 18 17">
<path fillRule="evenodd" d="M 16.99 6.49C 16.99 6.49 16.99 13.2 16.99 13.2 16.99 15.29 15.25 16.99 13.12 16.99 13.12 16.99 12.35 16.99 12.35 16.99 10.21 16.99 8.48 15.29 8.48 13.2 8.48 13.2 8.48 3.8 8.48 3.8 8.48 2.81 7.65 2 6.64 2 6.64 2 5.87 2 5.87 2 4.86 2 4.03 2.81 4.03 3.8 4.03 3.8 4.03 12.54 4.03 12.54 4.62 13 5 13.7 5 14.5 5 15.88 3.88 17 2.5 17 1.12 17-0 15.88-0 14.5-0 13.29 0.86 12.28 2 12.05 2 12.05 2 3.8 2 3.8 2 1.71 3.73 0.01 5.87 0.01 5.87 0.01 6.64 0.01 6.64 0.01 8.77 0.01 10.51 1.71 10.51 3.8 10.51 3.8 10.51 13.2 10.51 13.2 10.51 14.2 11.34 15 12.35 15 12.35 15 13.12 15 13.12 15 14.13 15 14.96 14.2 14.96 13.2 14.96 13.2 14.96 6.94 14.96 6.94 13.84 6.69 13 5.69 13 4.5 13 3.12 14.12 2 15.5 2 16.88 2 18 3.12 18 4.5 18 5.32 17.6 6.04 16.99 6.49Z" fill="rgb(19,43,71)"/></svg>