<?xml version="1.0" encoding="utf-8"?>
<svg xmlns="http://www.w3.org/2000/svg"
	xmlns:xlink="http://www.w3.org/1999/xlink"
	width="17px" height="17px" viewBox="0 0 17 17">
<path fillRule="evenodd" d="M 16.67 16.67C 16.26 17.09 15.59 17.09 15.18 16.67 15.18 16.67 11.77 13.5 11.77 13.5 10.55 14.38 9.06 14.91 7.44 14.91 3.33 14.91-0 11.57-0 7.46-0 3.34 3.33-0 7.44-0 11.55-0 14.88 3.34 14.88 7.46 14.88 9.18 14.27 10.75 13.29 12.02 13.29 12.02 16.67 15.18 16.67 15.18 17.09 15.59 17.09 16.26 16.67 16.67ZM 7.45 2.09C 4.49 2.09 2.09 4.49 2.09 7.45 2.09 10.4 4.49 12.8 7.45 12.8 10.4 12.8 12.8 10.4 12.8 7.45 12.8 4.49 10.4 2.09 7.45 2.09ZM 8 10C 8 10 7 10 7 10 7 10 7 8 7 8 7 8 5 8 5 8 5 8 5 7 5 7 5 7 7 7 7 7 7 7 7 5 7 5 7 5 8 5 8 5 8 5 8 7 8 7 8 7 10 7 10 7 10 7 10 8 10 8 10 8 8 8 8 8 8 8 8 10 8 10Z" fill="rgb(19,45,73)"/></svg>